<?xml version="1.0" encoding="utf-8"?>
<svg version="1.1" id="Layer_1" xmlns="http://www.w3.org/2000/svg" x="0px" y="0px" style="enable-background:new 0 0 512 512;" width="32px" height="32px" viewBox="0 0 512 512" xmlns:bx="https://boxy-svg.com">
  <defs>
    <bx:export>
      <bx:file format="svg"/>
    </bx:export>
  </defs>
  <style type="text/css">
	.st0{fill:#37D7FF;}
	.st1{fill:#3E3E3E;}
</style>
  <g>
    <circle class="st0" cx="256" cy="256" r="237.71"/>
    <path class="st1" d="M256,493.71v-18.29c-60.65-0.01-115.39-24.53-155.16-64.27C61.1,371.39,36.58,316.65,36.57,256 c0.01-60.65,24.53-115.39,64.27-155.16C140.61,61.1,195.35,36.58,256,36.57c60.65,0.01,115.39,24.53,155.16,64.27 c39.74,39.77,64.26,94.51,64.27,155.16c-0.01,60.65-24.53,115.39-64.27,155.16c-39.77,39.74-94.51,64.26-155.16,64.27V493.71V512 c141.39-0.01,255.99-114.61,256-256C511.99,114.61,397.39,0.01,256,0C114.61,0.01,0.01,114.61,0,256h0 c0.01,141.39,114.61,255.99,256,256V493.71z"/>
    <path class="st1" d="M215.61,92.98l-4.57-4.57l-12.93,12.93l12.93,12.93l4.57-4.57c7.14-7.14,7.14-18.72,0-25.86 c-7.14-7.14-18.72-7.14-25.86,0l-4.57,4.57c-7.14,7.14-7.14,18.72,0,25.86l4.57,4.57c7.14,7.14,18.72,7.14,25.86,0 C222.75,111.7,222.75,100.12,215.61,92.98L215.61,92.98z"/>
    <path class="st1" d="M215.61,118.84l4.57-4.57c3.4-3.4,5.36-8.11,5.36-12.93c0-4.82-1.95-9.53-5.36-12.93l-4.57-4.57 c-7.14-7.14-18.72-7.14-25.86,0c-7.14,7.14-7.14,18.72,0,25.86l4.57,4.57l12.93-12.93l-12.93-12.93l-4.57,4.57 c-7.14,7.14-7.14,18.72,0,25.86C196.89,125.98,208.47,125.98,215.61,118.84L215.61,118.84z"/>
    <path class="st1" d="M322.29,92.98l-4.57-4.57l-12.93,12.93l12.93,12.93l4.57-4.57c7.14-7.14,7.14-18.72,0-25.86 c-7.14-7.14-18.72-7.14-25.86,0l-4.57,4.57c-7.14,7.14-7.14,18.72,0,25.86l4.57,4.57c7.14,7.14,18.72,7.14,25.86,0 C329.43,111.7,329.43,100.12,322.29,92.98L322.29,92.98z"/>
    <path class="st1" d="M322.29,118.84l4.57-4.57c3.4-3.4,5.36-8.11,5.36-12.93c0-4.82-1.95-9.53-5.36-12.93l-4.57-4.57 c-7.14-7.14-18.72-7.14-25.86,0c-7.14,7.14-7.14,18.72,0,25.86l4.57,4.57l12.93-12.93L301,88.41l-4.57,4.57 c-7.14,7.14-7.14,18.72,0,25.86C303.57,125.98,315.15,125.98,322.29,118.84L322.29,118.84z"/>
    <path class="st1" d="M215.61,402.3l-4.57-4.57l-12.93,12.93l12.93,12.93l4.57-4.57c7.14-7.14,7.14-18.72,0-25.86 c-7.14-7.14-18.72-7.14-25.86,0l-4.57,4.57c-7.14,7.14-7.14,18.72,0,25.86l4.57,4.57c7.14,7.14,18.72,7.14,25.86,0 C222.75,421.02,222.75,409.44,215.61,402.3L215.61,402.3z"/>
    <path class="st1" d="M215.61,428.16l4.57-4.57c3.4-3.4,5.36-8.11,5.36-12.93s-1.95-9.53-5.36-12.93l-4.57-4.57 c-7.14-7.14-18.72-7.14-25.86,0s-7.14,18.72,0,25.86l4.57,4.57l12.93-12.93l-12.93-12.93l-4.57,4.57c-7.14,7.14-7.14,18.72,0,25.86 S208.47,435.3,215.61,428.16L215.61,428.16z"/>
    <path class="st1" d="M114.27,194.32l-4.57-4.57l-12.93,12.93l12.93,12.93l4.57-4.57c7.14-7.14,7.14-18.72,0-25.86 c-7.14-7.14-18.72-7.14-25.86,0l-4.57,4.57c-7.14,7.14-7.14,18.72,0,25.86l4.57,4.57c7.14,7.14,18.72,7.14,25.86,0 C121.41,213.04,121.41,201.46,114.27,194.32L114.27,194.32z"/>
    <path class="st1" d="M114.27,220.18l4.57-4.57c3.4-3.4,5.36-8.11,5.36-12.93c0-4.82-1.95-9.53-5.36-12.93l-4.57-4.57 c-7.14-7.14-18.72-7.14-25.86,0s-7.14,18.72,0,25.86l4.57,4.57l12.93-12.93l-12.93-12.93l-4.57,4.57c-7.14,7.14-7.14,18.72,0,25.86 C95.55,227.32,107.13,227.32,114.27,220.18L114.27,220.18z"/>
    <path class="st1" d="M114.27,300.96l-4.57-4.57l-12.93,12.93l12.93,12.93l4.57-4.57c7.14-7.14,7.14-18.72,0-25.86 s-18.72-7.14-25.86,0l-4.57,4.57c-3.4,3.4-5.36,8.11-5.36,12.93c0,4.82,1.95,9.53,5.36,12.93l4.57,4.57 c7.14,7.14,18.72,7.14,25.86,0C121.41,319.68,121.41,308.1,114.27,300.96L114.27,300.96z"/>
    <path class="st1" d="M114.27,326.82l4.57-4.57c3.4-3.4,5.36-8.11,5.36-12.93c0-4.82-1.95-9.53-5.36-12.93l-4.57-4.57 c-7.14-7.14-18.72-7.14-25.86,0s-7.14,18.72,0,25.86l4.57,4.57l12.93-12.93l-12.93-12.93l-4.57,4.57c-7.14,7.14-7.14,18.72,0,25.86 S107.13,333.96,114.27,326.82L114.27,326.82z"/>
    <path class="st1" d="M423.59,194.32l-4.57-4.57l-12.93,12.93l12.93,12.93l4.57-4.57c7.14-7.14,7.14-18.72,0-25.86 c-7.14-7.14-18.72-7.14-25.86,0l-4.57,4.57c-7.14,7.14-7.14,18.72,0,25.86l4.57,4.57c7.14,7.14,18.72,7.14,25.86,0 C430.73,213.04,430.73,201.46,423.59,194.32L423.59,194.32z"/>
    <path class="st1" d="M423.59,220.18l4.57-4.57c3.4-3.4,5.36-8.11,5.36-12.93c0-4.82-1.95-9.53-5.36-12.93l-4.57-4.57 c-7.14-7.14-18.72-7.14-25.86,0c-7.14,7.14-7.14,18.72,0,25.86l4.57,4.57l12.93-12.93l-12.93-12.93l-4.57,4.57 c-7.14,7.14-7.14,18.72,0,25.86C404.87,227.32,416.45,227.32,423.59,220.18L423.59,220.18z"/>
    <path class="st1" d="M423.59,300.96l-4.57-4.57l-12.93,12.93l12.93,12.93l4.57-4.57c7.14-7.14,7.14-18.72,0-25.86 c-7.14-7.14-18.72-7.14-25.86,0l-4.57,4.57c-7.14,7.14-7.14,18.72,0,25.86l4.57,4.57c7.14,7.14,18.72,7.14,25.86,0 C430.73,319.68,430.73,308.1,423.59,300.96L423.59,300.96z"/>
    <path class="st1" d="M423.59,326.82l4.57-4.57c3.4-3.4,5.36-8.11,5.36-12.93c0-4.82-1.95-9.53-5.36-12.93l-4.57-4.57 c-7.14-7.14-18.72-7.14-25.86,0c-7.14,7.14-7.14,18.72,0,25.86l4.57,4.57l12.93-12.93l-12.93-12.93l-4.57,4.57 c-7.14,7.14-7.14,18.72,0,25.86C404.87,333.96,416.45,333.96,423.59,326.82L423.59,326.82z"/>
    <path class="st1" d="M322.29,402.3l-4.57-4.57l-12.93,12.93l12.93,12.93l4.57-4.57c7.14-7.14,7.14-18.72,0-25.86 c-7.14-7.14-18.72-7.14-25.86,0l-4.57,4.57c-7.14,7.14-7.14,18.72,0,25.86l4.57,4.57c7.14,7.14,18.72,7.14,25.86,0 C329.43,421.02,329.43,409.44,322.29,402.3L322.29,402.3z"/>
    <path class="st1" d="M322.29,428.16l4.57-4.57c3.4-3.4,5.36-8.11,5.36-12.93s-1.95-9.53-5.36-12.93l-4.57-4.57 c-7.14-7.14-18.72-7.14-25.86,0c-7.14,7.14-7.14,18.72,0,25.86l4.57,4.57l12.93-12.93L301,397.73l-4.57,4.57 c-7.14,7.14-7.14,18.72,0,25.86C303.57,435.3,315.15,435.3,322.29,428.16L322.29,428.16z"/>
    <path class="st1" d="M201.14,193.54v9.14h9.14C210.27,197.62,206.2,193.55,201.14,193.54v9.14h9.14h-9.14l0,9.14 c5.06-0.01,9.13-4.09,9.14-9.14h-9.14l0,9.14c10.1,0,18.29-8.19,18.29-18.29c0-10.1-8.19-18.29-18.29-18.29 c-15.16,0.01-27.42,12.27-27.43,27.43c0.01,15.16,12.27,27.42,27.43,27.43c10.1,0,18.29-8.19,18.29-18.29 C219.43,201.72,211.24,193.54,201.14,193.54z"/>
    <path class="st1" d="M201.14,230.11c15.16-0.01,27.42-12.27,27.43-27.43c-0.01-15.16-12.27-27.42-27.43-27.43 c-10.1,0-18.29,8.19-18.29,18.29c0,10.1,8.19,18.29,18.29,18.29v-9.14l-9.14,0c0.01,5.06,4.09,9.13,9.14,9.14v-9.14l-9.14,0h9.14 v-9.14c-5.06,0.01-9.13,4.09-9.14,9.14h9.14v-9.14c-10.1,0-18.29,8.19-18.29,18.29C182.86,221.92,191.04,230.11,201.14,230.11 L201.14,230.11z"/>
    <path class="st1" d="M311.63,193.54v9.14l9.14,0C320.76,197.62,316.68,193.55,311.63,193.54v9.14l9.14,0h-9.14l0,9.14 c5.06-0.01,9.13-4.09,9.14-9.14h-9.14l0,9.14c10.1,0,18.29-8.19,18.29-18.29c0-10.1-8.19-18.29-18.29-18.29 c-15.16,0.01-27.42,12.27-27.43,27.43c0.01,15.16,12.27,27.42,27.43,27.43c10.1,0,18.29-8.19,18.29-18.29 C329.91,201.72,321.72,193.54,311.63,193.54z"/>
    <path class="st1" d="M311.63,230.11c15.16-0.01,27.42-12.27,27.43-27.43c-0.01-15.16-12.27-27.42-27.43-27.43 c-10.1,0-18.29,8.19-18.29,18.29c0,10.1,8.19,18.29,18.29,18.29v-9.14l-9.14,0c0.01,5.06,4.09,9.13,9.14,9.14v-9.14l-9.14,0h9.14 v-9.14c-5.06,0.01-9.13,4.09-9.14,9.14h9.14v-9.14c-10.1,0-18.29,8.19-18.29,18.29C293.34,221.92,301.53,230.11,311.63,230.11 L311.63,230.11z"/>
    <path class="st1" d="M201.14,300.18v9.14h9.14C210.27,304.26,206.2,300.19,201.14,300.18v9.14h9.14h-9.14l0,9.14 c5.06-0.01,9.13-4.09,9.14-9.14h-9.14l0,9.14c10.1,0,18.29-8.19,18.29-18.29c0-10.1-8.19-18.29-18.29-18.29 c-15.16,0.01-27.42,12.27-27.43,27.43c0.01,15.16,12.27,27.42,27.43,27.43c10.1,0,18.29-8.19,18.29-18.29 C219.43,308.37,211.24,300.18,201.14,300.18L201.14,300.18z"/>
    <path class="st1" d="M201.14,336.75c15.16-0.01,27.42-12.27,27.43-27.43c-0.01-15.16-12.27-27.42-27.43-27.43 c-10.1,0-18.29,8.19-18.29,18.29c0,10.1,8.19,18.29,18.29,18.29v-9.14l-9.14,0c0.01,5.06,4.09,9.13,9.14,9.14v-9.14l-9.14,0h9.14 v-9.14c-5.06,0.01-9.13,4.09-9.14,9.14h9.14v-9.14c-10.1,0-18.29,8.19-18.29,18.29C182.86,328.56,191.04,336.75,201.14,336.75 L201.14,336.75z"/>
    <path class="st1" d="M311.63,300.18v9.14h9.14C320.76,304.26,316.68,300.19,311.63,300.18v9.14h9.14h-9.14l0,9.14 c5.06-0.01,9.13-4.09,9.14-9.14h-9.14l0,9.14c10.1,0,18.29-8.19,18.29-18.29c0-10.1-8.19-18.29-18.29-18.29 c-15.16,0.01-27.42,12.27-27.43,27.43c0.01,15.16,12.27,27.42,27.43,27.43c10.1,0,18.29-8.19,18.29-18.29 C329.91,308.37,321.72,300.18,311.63,300.18L311.63,300.18z"/>
    <path class="st1" d="M311.63,336.75c15.16-0.01,27.42-12.27,27.43-27.43c-0.01-15.16-12.27-27.42-27.43-27.43 c-10.1,0-18.29,8.19-18.29,18.29c0,10.1,8.19,18.29,18.29,18.29v-9.14l-9.14,0c0.01,5.06,4.09,9.13,9.14,9.14v-9.14l-9.14,0h9.14 v-9.14c-5.06,0.01-9.13,4.09-9.14,9.14h9.14v-9.14c-10.1,0-18.29,8.19-18.29,18.29C293.34,328.56,301.53,336.75,311.63,336.75 L311.63,336.75z"/>
  </g>
</svg>