<?xml version='1.0' encoding='UTF-8'?>
<svg viewBox="-4.8 -2 32 32" xmlns="http://www.w3.org/2000/svg" >
  <g transform="translate(-5.59999971389771, -2.80000114440918)">
    <g transform="matrix(0.699999809265137, 0, 0, 0.699999809265137, 0, 0)">
      <polygon points="24,37 19,31 19,25 29,25 29,31" fill="#FF9800" />
    </g>
  </g>
  <g transform="translate(-5.60000152587891, -2.80000057220459)">
    <g transform="matrix(0.699999809265137, 0, 0, 0.699999809265137, 0, 0)">
      <g fill="#FFA726">
        <circle cx="33" cy="19" r="2" fill="#FFA726" />
      </g>
    </g>
  </g>
  <g transform="translate(-5.60000047683716, -2.80000057220459)">
    <g transform="matrix(0.699999809265137, 0, 0, 0.699999809265137, 0, 0)">
      <g fill="#FFA726">
        <circle cx="15" cy="19" r="2" fill="#FFA726" />
      </g>
    </g>
  </g>
  <g transform="translate(-5.60000085830688, -2.80000043869019)">
    <g transform="matrix(0.699999809265137, 0, 0, 0.699999809265137, 0, 0)">
      <path d="M33, 13C33, 5.4 15, 8 15, 13C15, 14.1 15, 18.9 15, 20C15, 25 19, 29 24, 29C29, 29 33, 25 33, 20C33, 18.9 33, 14.1 33, 13z" fill="#FFB74D" />
    </g>
  </g>
  <g transform="translate(-5.60000066757202, -2.8)">
    <g transform="matrix(0.699999809265137, 0, 0, 0.699999809265137, 0, 0)">
      <path d="M24, 4C17.9, 4 14, 8.9 14, 15C14, 15.8 14, 17.3 14, 17.3L16, 19L16, 14L28, 10L32, 14L32, 19L34, 17.3C34, 17.3 34, 15.8 34, 15C34, 11 33, 7 28, 6L27, 4L24, 4z" fill="#424242" />
    </g>
  </g>
  <g transform="translate(-5.60000076293945, -2.80000076293945)">
    <g transform="matrix(0.699999809265137, 0, 0, 0.699999809265137, 0, 0)">
      <g fill="#784719">
        <circle cx="28" cy="19" r="1" fill="#784719" />
      </g>
    </g>
  </g>
  <g transform="translate(-5.60000066757202, -2.80000076293945)">
    <g transform="matrix(0.699999809265137, 0, 0, 0.699999809265137, 0, 0)">
      <g fill="#784719">
        <circle cx="20" cy="19" r="1" fill="#784719" />
      </g>
    </g>
  </g>
  <g transform="translate(-5.59999971389771, -2.80000038146973)">
    <g transform="matrix(0.699999809265137, 0, 0, 0.699999809265137, 0, 0)">
      <polygon points="24,43 19,31 24,32 29,31" fill="#fff" />
    </g>
  </g>
  <g transform="translate(-5.60000076293945, -2.8000015258789)">
    <g transform="matrix(0.699999809265137, 0, 0, 0.699999809265137, 0, 0)">
      <polygon points="23,35 22.3,39.5 24,43.5 25.7,39.5 25,35 26,34 24,32 22,34" fill="#D32F2F" />
    </g>
  </g>
  <g transform="translate(-5.6, -2.80000228881836)">
    <g transform="matrix(0.699999809265137, 0, 0, 0.699999809265137, 0, 0)">
      <path d="M29, 31L29, 31L24, 43L19, 31C19, 31 8, 33 8, 44L40, 44C40, 33 29, 31 29, 31z" fill="#546E7A" />
    </g>
  </g>
</svg>