<?xml version='1.0' encoding='UTF-8'?>
<svg viewBox="-2 -2 32 32" xmlns="http://www.w3.org/2000/svg" >
  <g id="Gauges" transform="translate(0, 0)" style="enable-background:new 0 0 32 32">
    <g transform="matrix(0.9333, 0, 0, 0.9333, 0, 0)">
      <path d="M15, 8C15.8, 8 16.6, 8.1 17.3, 8.4L20.3, 5.4C18.8, 4.5 16.9, 4 15, 4C8.9, 4 4, 8.9 4, 15C4, 18 5.2, 20.8 7.2, 22.8L10, 20C8.8, 18.7 8, 16.9 8, 15C8, 11.1 11.1, 8 15, 8z" fill="#1177D7" class="Blue" />
    </g>
  </g>
  <g id="Gauges" transform="translate(0, 0)" style="enable-background:new 0 0 32 32">
    <g transform="matrix(0.9333, 0, 0, 0.9333, 0, 0)">
      <path d="M21.6, 12.7C21.9, 13.4 22, 14.2 22, 15C22, 16.9 21.2, 18.7 19.9, 19.9L22.7, 22.7C24.7, 20.7 25.9, 18 25.9, 14.9C25.9, 13 25.4, 11.1 24.5, 9.5L21.6, 12.7z" fill="#D11C1C" class="Red" />
    </g>
  </g>
  <g id="Gauges" transform="translate(0, 0)" style="enable-background:new 0 0 32 32">
    <g transform="matrix(0.9333, 0, 0, 0.9333, 0, 0)">
      <path d="M15, 0C6.7, 0 0, 6.7 0, 15C0, 23.3 6.7, 30 15, 30C23.3, 30 30, 23.3 30, 15C30, 6.7 23.3, 0 15, 0zM15, 28C7.8, 28 2, 22.2 2, 15C2, 7.8 7.8, 2 15, 2C22.2, 2 28, 7.8 28, 15C28, 22.2 22.2, 28 15, 28zM17.7, 13.7C17.9, 14.1 18, 14.5 18, 15C18, 16.7 16.7, 18 15, 18C13.3, 18 12, 16.7 12, 15C12, 13.3 13.3, 12 15, 12C15.5, 12 15.9, 12.1 16.3, 12.3L22.3, 6.3L23.7, 7.7L17.7, 13.7z" fill="#727272" class="Black" />
    </g>
  </g>
</svg>