<?xml version="1.0" encoding="UTF-8" standalone="no"?>
<svg
   viewBox="-2 -8 32 32"
   version="1.1"
   id="svg1"
   sodipodi:docname="Cloud.svg"
   inkscape:export-filename="Cloud.png"
   inkscape:export-xdpi="96"
   inkscape:export-ydpi="96"
   inkscape:version="1.4 (e7c3feb100, 2024-10-09)"
   xmlns:inkscape="http://www.inkscape.org/namespaces/inkscape"
   xmlns:sodipodi="http://sodipodi.sourceforge.net/DTD/sodipodi-0.dtd"
   xmlns="http://www.w3.org/2000/svg"
   xmlns:svg="http://www.w3.org/2000/svg">
  <defs
     id="defs1" />
  <sodipodi:namedview
     id="namedview1"
     pagecolor="#ffffff"
     bordercolor="#000000"
     borderopacity="0.25"
     inkscape:showpageshadow="2"
     inkscape:pageopacity="0.0"
     inkscape:pagecheckerboard="0"
     inkscape:deskcolor="#d1d1d1"
     inkscape:zoom="24.96875"
     inkscape:cx="16"
     inkscape:cy="16"
     inkscape:window-width="1920"
     inkscape:window-height="969"
     inkscape:window-x="0"
     inkscape:window-y="0"
     inkscape:window-maximized="1"
     inkscape:current-layer="svg1" />
  <g
     id="Layer_1"
     transform="translate(-2, -8)"
     style="enable-background:new 0 0 32 32">
    <g
       id="Cloudy_1_">
      <path
         d="M27, 18C26.6, 18 26.2, 18.1 25.8, 18.2C25.9, 17.8 26, 17.4 26, 17C26, 14.2 23.8, 12 21, 12C20.5, 12 19.9, 12.1 19.4, 12.3C18.4, 9.8 15.9, 8 13, 8C9.1, 8 6, 11.1 6, 15C6, 15.3 6, 15.7 6.1, 16C6.1, 16 6, 16 6, 16C3.8, 16 2, 17.8 2, 20C2, 22.2 3.8, 24 6, 24L27, 24C28.7, 24 30, 22.7 30, 21C30, 19.3 28.7, 18 27, 18z"
         fill="#1177D7"
         class="Blue"
         id="path1" />
    </g>
  </g>
</svg>
