<?xml version='1.0' encoding='UTF-8'?>
<svg viewBox="-4.865 -2 32 32" xmlns="http://www.w3.org/2000/svg" >
  <g id="Capa_1" transform="translate(-2.865, 0)">
    <g transform="matrix(0.0547, 0, 0, 0.0547, 0, 0)">
      <g transform="matrix(1.0021, 0, 0, 1.0021, 0, 0)">
        <g>
          <path d="M442.824, 92.489L386.616, 148.697L309.994, 72.075L366.202, 15.867C376.433, 5.635 390.045, 0 404.513, 0C418.987, -0.007 432.592, 5.635 442.824, 15.867L442.831, 15.874C453.063, 26.106 458.691, 39.71 458.691, 54.178C458.698, 68.653 453.056, 82.258 442.824, 92.489z" fill="#0d5386" />
        </g>
      </g>
    </g>
  </g>
  <g id="Capa_1" transform="translate(-2.865, 0)">
    <g transform="matrix(0.0547, 0, 0, 0.0547, 0, 0)">
      <g transform="matrix(1.0021, 0, 0, 1.0021, 0, 0)">
        <g>
          <path d="M348.312, 110.393L442.831, 15.874C453.063, 26.106 458.691, 39.71 458.691, 54.178C458.698, 68.652 453.056, 82.257 442.824, 92.489L386.616, 148.697z" fill="#002c5e" />
        </g>
      </g>
    </g>
  </g>
  <g id="Capa_1" transform="translate(-2.865, 0)">
    <g transform="matrix(0.0547, 0, 0, 0.0547, 0, 0)">
      <g transform="matrix(1.0021, 0, 0, 1.0021, 0, 0)">
        <g>
          <path d="M399.634, 206.489C382.932, 223.191 356.628, 224.563 338.349, 210.611L200.463, 348.497C188.159, 360.801 171.747, 367.398 154.678, 367.186L143.958, 377.906C135.246, 386.618 123.813, 390.966 112.372, 390.966C100.931, 390.966 89.504, 386.624 80.793, 377.913L80.786, 377.906C63.37, 360.49 63.377, 332.156 80.793, 314.74L91.513, 304.02C91.301, 286.894 97.898, 270.539 110.202, 258.235L248.086, 120.35C234.128, 102.078 235.5, 75.76 252.201, 59.058C270.395, 40.864 300.001, 40.871 318.195, 59.065L399.625, 140.495C408.443, 149.313 413.301, 161.029 413.301, 173.489C413.302, 185.962 408.444, 197.679 399.634, 206.489z" fill="#f2ebee" />
        </g>
      </g>
    </g>
  </g>
  <g id="Capa_1" transform="translate(-2.865, 0)">
    <g transform="matrix(0.0547, 0, 0, 0.0547, 0, 0)">
      <g transform="matrix(1.0021, 0, 0, 1.0021, 0, 0)">
        <g>
          <path d="M399.634, 206.489C382.932, 223.191 356.628, 224.563 338.349, 210.611L200.463, 348.497C188.159, 360.801 171.747, 367.398 154.678, 367.186L143.958, 377.906C135.246, 386.618 123.813, 390.966 112.372, 390.966C100.931, 390.966 89.504, 386.624 80.793, 377.913L358.918, 99.787L399.626, 140.495C408.444, 149.313 413.302, 161.029 413.302, 173.489C413.302, 185.962 408.444, 197.679 399.634, 206.489z" fill="#e8dde3" />
        </g>
      </g>
    </g>
  </g>
  <g id="Capa_1" transform="translate(-2.865, 0)">
    <g transform="matrix(0.0547, 0, 0, 0.0547, 0, 0)">
      <g transform="matrix(1.0021, 0, 0, 1.0021, 0, 0)">
        <g>
          <path d="M271.767, 277.193L200.462, 348.498C188.158, 360.802 171.746, 367.399 154.677, 367.187L143.957, 377.907C135.245, 386.619 123.812, 390.967 112.371, 390.967C100.93, 390.967 89.503, 386.625 80.792, 377.914L80.785, 377.907C63.369, 360.491 63.376, 332.157 80.792, 314.741L91.512, 304.021C91.3, 286.895 97.897, 270.54 110.201, 258.236L181.506, 186.931z" fill="#ff9515" />
        </g>
      </g>
    </g>
  </g>
  <g id="Capa_1" transform="translate(-2.865, 0)">
    <g transform="matrix(0.0547, 0, 0, 0.0547, 0, 0)">
      <g transform="matrix(1.0021, 0, 0, 1.0021, 0, 0)">
        <g>
          <path d="M221.13, 154.943L258.73, 154.943L258.73, 282.593L221.13, 282.593z" fill="#ffda2d" transform="matrix(0.707, -0.707, 0.707, 0.707, -84.419, 233.732)" />
        </g>
      </g>
    </g>
  </g>
  <g id="Capa_1" transform="translate(-2.865, 0)">
    <g transform="matrix(0.0547, 0, 0, 0.0547, 0, 0)">
      <g transform="matrix(1.0021, 0, 0, 1.0021, 0, 0)">
        <g>
          <path d="M157.376, 458.347C157.376, 487.337 133.786, 510.917 104.796, 510.917C75.806, 510.917 52.226, 487.337 52.226, 458.347C52.226, 444.197 59.716, 428.017 74.476, 410.247C84.546, 398.137 94.566, 389.437 94.986, 389.067L104.676, 380.697L104.796, 380.797L114.466, 388.947C118.856, 392.647 157.376, 426.027 157.376, 458.347z" fill="#ff6f48" />
        </g>
      </g>
    </g>
  </g>
  <g id="Capa_1" transform="translate(-2.865, 0)">
    <g transform="matrix(0.0547, 0, 0, 0.0547, 0, 0)">
      <g transform="matrix(1.0021, 0, 0, 1.0021, 0, 0)">
        <g>
          <path d="M157.376, 458.347C157.376, 487.337 133.786, 510.917 104.796, 510.917L104.796, 380.797L114.466, 388.947C118.856, 392.647 157.376, 426.027 157.376, 458.347z" fill="#f42130" />
        </g>
      </g>
    </g>
  </g>
  <g id="Capa_1" transform="translate(-2.865, 0)">
    <g transform="matrix(0.0547, 0, 0, 0.0547, 0, 0)">
      <g transform="matrix(1.0021, 0, 0, 1.0021, 0, 0)">
        <g>
          <path d="M271.767, 277.193L200.462, 348.498C188.158, 360.802 171.746, 367.399 154.677, 367.187L143.957, 377.907C135.245, 386.619 123.812, 390.967 112.371, 390.967C100.93, 390.967 89.503, 386.625 80.792, 377.914L226.64, 232.065z" fill="#ff6f48" />
        </g>
      </g>
    </g>
  </g>
  <g id="Capa_1" transform="translate(-2.865, 0)">
    <g transform="matrix(0.0547, 0, 0, 0.0547, 0, 0)">
      <g transform="matrix(1.0021, 0, 0, 1.0021, 0, 0)">
        <g>
          <path d="M243.697, 209.425L281.297, 209.425L281.297, 273.245L243.697, 273.245z" fill="#fdbf00" transform="matrix(0.707, -0.707, 0.707, 0.707, -93.766, 256.299)" />
        </g>
      </g>
    </g>
  </g>
</svg>