<?xml version='1.0' encoding='UTF-8'?>
<svg viewBox="-3.8675 -2 32 32" xmlns="http://www.w3.org/2000/svg" >
  <g id="Layer_1" transform="translate(-3.7341, -1.8666)" style="enable-background:new 0 0 32 32">
    <g transform="matrix(0.9333, 0, 0, 0.9333, 0, 0)">
      <g id="UpdateDataExtract">
        <path d="M4, 10L4, 6C4, 3.8 8.5, 2 14, 2C19.5, 2 24, 3.8 24, 6L24, 10C24, 12.2 19.5, 14 14, 14C8.5, 14 4, 12.2 4, 10zM14, 20C14.5, 20 15.1, 20 15.6, 19.9C17.2, 17.5 19.9, 16 23, 16C23.3, 16 23.7, 16 24, 16.1C24, 16.1 24, 16.1 24, 16L24, 12C24, 14.2 19.5, 16 14, 16C8.5, 16 4, 14.2 4, 12L4, 16C4, 18.2 8.5, 20 14, 20zM14, 24L14, 24C14.1, 23.3 14.3, 22.6 14.5, 22C14.3, 22 14.1, 22 14, 22C8.5, 22 4, 20.2 4, 18L4, 22C4, 24.2 8.5, 26 14, 26L14, 24z" fill="#FFB115" class="Yellow" />
      </g>
    </g>
  </g>
  <g id="Layer_1" transform="translate(-3.7341, -1.8666)" style="enable-background:new 0 0 32 32">
    <g transform="matrix(0.9333, 0, 0, 0.9333, 0, 0)">
      <g id="UpdateDataExtract">
        <path d="M30, 18L30, 24L29.9, 24L24, 24L26.5, 21.5C25.6, 20.6 24.4, 20 23, 20C20.6, 20 18.6, 21.7 18.1, 24L16.1, 24C16.6, 20.6 19.5, 18 23, 18C24.9, 18 26.7, 18.8 27.9, 20.1L30, 18zM23, 30C21.6, 30 20.4, 29.4 19.5, 28.5L22, 26L16.1, 26L16, 26L16, 32L18.1, 29.9C19.4, 31.2 21.1, 32 23, 32C26.5, 32 29.4, 29.4 29.9, 26L27.9, 26C27.4, 28.3 25.4, 30 23, 30z" fill="#039C23" class="Green" />
      </g>
    </g>
  </g>
</svg>