<?xml version='1.0' encoding='UTF-8'?>
<svg viewBox="-2 -2 32 32" xmlns="http://www.w3.org/2000/svg" >
  <g id="Capa_1" transform="translate(0, 0)" style="enable-background:new 0 0 54 54">
    <g transform="matrix(0.875, 0, 0, 0.875, 0, 0)">
      <g transform="matrix(1.1429, 0, 0, 1.1429, 0, 0)">
        <g transform="matrix(0.5185, 0, 0, 0.5185, 0, 0)">
          <g>
            <g>
              <path d="M1, 49.217L1, 4.783C1, 2.694 2.694, 1 4.783, 1L49.218, 1C51.306, 1 53, 2.694 53, 4.783L53, 49.218C53, 51.306 51.306, 53 49.217, 53L4.783, 53C2.694, 53 1, 51.306 1, 49.217z" fill="#1177D7" fill-opacity="1" class="Blue" />
            </g>
          </g>
        </g>
      </g>
    </g>
  </g>
  <g id="Capa_1" transform="translate(0, 0)" style="enable-background:new 0 0 54 54">
    <g transform="matrix(0.875, 0, 0, 0.875, 0, 0)">
      <g transform="matrix(1.1429, 0, 0, 1.1429, 0, 0)">
        <g transform="matrix(0.5185, 0, 0, 0.5185, 0, 0)">
          <g>
            <g>
              <path d="M49.217, 54L4.783, 54C2.146, 54 0, 51.854 0, 49.218L0, 4.783C0, 2.146 2.146, 0 4.783, 0L49.218, 0C51.854, 0 54, 2.146 54, 4.782L54, 49.217C54, 51.854 51.854, 54 49.217, 54zM4.783, 2C3.249, 2 2, 3.249 2, 4.783L2, 49.218C2, 50.752 3.249, 52 4.783, 52L49.218, 52C50.751, 52 52, 50.751 52, 49.217L52, 4.782C52, 3.248 50.751, 2 49.217, 2L4.783, 2z" fill="#1177D7" fill-opacity="1" class="Blue" />
            </g>
          </g>
        </g>
      </g>
    </g>
  </g>
  <g id="Capa_1" transform="translate(0, 0)" style="enable-background:new 0 0 54 54">
    <g transform="matrix(0.875, 0, 0, 0.875, 0, 0)">
      <g transform="matrix(1.1429, 0, 0, 1.1429, 0, 0)">
        <g transform="matrix(0.5185, 0, 0, 0.5185, 0, 0)">
          <g>
            <g>
              <path d="M26.159, 39.544L13.984, 18.456C13.611, 17.809 14.078, 17 14.825, 17L39.174, 17C39.921, 17 40.389, 17.809 40.015, 18.456L27.841, 39.544C27.467, 40.191 26.533, 40.191 26.159, 39.544z" fill="#FFFFFF" fill-opacity="1" class="White" />
            </g>
          </g>
        </g>
      </g>
    </g>
  </g>
  <g id="Capa_1" transform="translate(0, 0)" style="enable-background:new 0 0 54 54">
    <g transform="matrix(0.875, 0, 0, 0.875, 0, 0)">
      <g transform="matrix(1.1429, 0, 0, 1.1429, 0, 0)">
        <g transform="matrix(0.5185, 0, 0, 0.5185, 0, 0)">
          <g>
            <g>
              <path d="M27, 41.029C26.288, 41.029 25.649, 40.661 25.293, 40.044L13.118, 18.956C12.762, 18.34 12.762, 17.602 13.118, 16.985C13.475, 16.368 14.113, 16 14.825, 16L39.175, 16C39.887, 16 40.526, 16.368 40.882, 16.985C41.238, 17.602 41.238, 18.339 40.882, 18.956L28.707, 40.044C28.351, 40.661 27.712, 41.029 27, 41.029zM39.149, 17.956L14.825, 18L27, 39L39.149, 17.956z" fill="#FFFFFF" fill-opacity="1" class="White" />
            </g>
          </g>
        </g>
      </g>
    </g>
  </g>
</svg>