<?xml version="1.0" encoding="utf-8"?>
<svg height="56" viewBox="0 0 56 56" width="56" version="1.1" id="svg1" xmlns="http://www.w3.org/2000/svg">
  <path d="m39.6485 28.9024.6563-.7266c1.1484-1.1953 1.1953-2.6016-.0235-3.8203l-.7031-.6797c3.5859-3.2109 7.5703-3.6563 10.0313-6.1641 3.492-3.5156 2.3438-8.4375-.0936-10.8984-2.4379-2.4844-7.3127-3.5391-10.8987-.0938-2.5312 2.4376-2.9531 6.4454-6.164 10.0313l-.6797-.7032c-1.2187-1.2187-2.625-1.1718-3.8203-.0234l-.7266.6563c-1.4297 1.3828-1.1718 2.6015.0703 3.8437l.9844.9844-17.6953 17.7188c-7.2422 7.2421-3.75 6.1171-7.6875 11.6718l2.086 2.2266c5.3905-3.9141 4.664-.0703 12-7.4063l17.8124-17.6953 1.0079 1.0078c1.2421 1.2422 2.4609 1.5 3.8437.0704zm-29.5313 17.2265c-.8671-.9375-.7031-1.8281.2344-2.7656l19.9453-20.0391 2.5547 2.5547-20.039 20.0156c-.8203.8438-1.8985 1.1016-2.6954.2344z" id="path1" style="stroke-width: 1.33333; fill-opacity: 1; fill: rgb(255, 120, 90);"/>
</svg>