<?xml version='1.0' encoding='UTF-8'?>
<svg viewBox="-2 -2.105 32 32" xmlns="http://www.w3.org/2000/svg" >
  <g transform="translate(-2.7999995470047, -3.00999946594238)">
    <g transform="matrix(0.699999809265137, 0, 0, 0.699999809265137, 0, 0)">
      <polygon points="42,39 6,39 6,23 24,6 42,23" fill="#E8EAF6" />
    </g>
  </g>
  <g transform="translate(-2.80000190734863, -3.00999932289124)">
    <g transform="matrix(0.699999809265137, 0, 0, 0.699999809265137, 0, 0)">
      <g fill="#C5CAE9">
        <polygon points="39,21 34,16 34,9 39,9" fill="#C5CAE9" />
      </g>
    </g>
  </g>
  <g transform="translate(-2.7999995470047, -3.01000099182129)">
    <g transform="matrix(0.699999809265137, 0, 0, 0.699999809265137, 0, 0)">
      <g fill="#C5CAE9">
        <rect x="6" y="39" width="36" height="5" rx="0" ry="0" fill="#C5CAE9" />
      </g>
    </g>
  </g>
  <g transform="translate(-2.79999928474426, -3.00999928474426)">
    <g transform="matrix(0.699999809265137, 0, 0, 0.699999809265137, 0, 0)">
      <polygon points="24,4.3 4,22.9 6,25.1 24,8.4 42,25.1 44,22.9" fill="#B71C1C" />
    </g>
  </g>
  <g transform="translate(-2.79999885559082, -3.00999984741211)">
    <g transform="matrix(0.699999809265137, 0, 0, 0.699999809265137, 0, 0)">
      <rect x="18" y="28" width="12" height="16" rx="0" ry="0" fill="#D84315" />
    </g>
  </g>
  <g transform="translate(-2.79999942779541, -3.01000061035156)">
    <g transform="matrix(0.699999809265137, 0, 0, 0.699999809265137, 0, 0)">
      <rect x="21" y="17" width="6" height="6" rx="0" ry="0" fill="#01579B" />
    </g>
  </g>
  <g transform="translate(-2.8000015258789, -3.01000175476074)">
    <g transform="matrix(0.699999809265137, 0, 0, 0.699999809265137, 0, 0)">
      <path d="M27.5, 35.5C27.2, 35.5 27, 35.7 27, 36L27, 38C27, 38.3 27.2, 38.5 27.5, 38.5C27.8, 38.5 28, 38.3 28, 38L28, 36C28, 35.7 27.8, 35.5 27.5, 35.5z" fill="#FF8A65" />
    </g>
  </g>
</svg>