<?xml version='1.0' encoding='UTF-8'?>
<svg viewBox="-2 -3 32 32" xmlns="http://www.w3.org/2000/svg" >
  <g id="Layer_1" transform="translate(-2, -4)" style="enable-background:new 0 0 32 32">
    <path d="M20, 8L2, 8L2, 6L20, 6L20, 8zM20, 18L2, 18L2, 16L20, 16L20, 18zM20, 28L2, 28L2, 26L20, 26L20, 28z" fill="#727272" class="Black" />
  </g>
  <g id="Layer_1" transform="translate(-2, -4)" style="enable-background:new 0 0 32 32">
    <path d="M30, 7C30, 8.66 28.66, 10 27, 10C25.34, 10 24, 8.66 24, 7C24, 5.34 25.34, 4 27, 4C28.66, 4 30, 5.34 30, 7zM27, 14C25.34, 14 24, 15.34 24, 17C24, 18.66 25.34, 20 27, 20C28.66, 20 30, 18.66 30, 17C30, 15.34 28.66, 14 27, 14zM27, 24C25.34, 24 24, 25.34 24, 27C24, 28.66 25.34, 30 27, 30C28.66, 30 30, 28.66 30, 27C30, 25.34 28.66, 24 27, 24z" fill="#1177D7" class="Blue" />
  </g>
</svg>