<?xml version="1.0" encoding="UTF-8" standalone="no"?>
<svg
   viewBox="0 0 32 32"
   version="1.1"
   id="svg7"
   sodipodi:docname="melt.svg"
   inkscape:version="1.4.2 (f4327f4, 2025-05-13)"
   xmlns:inkscape="http://www.inkscape.org/namespaces/inkscape"
   xmlns:sodipodi="http://sodipodi.sourceforge.net/DTD/sodipodi-0.dtd"
   xmlns="http://www.w3.org/2000/svg"
   xmlns:svg="http://www.w3.org/2000/svg">
  <defs
     id="defs7">
    <filter
       x="-0.60066271"
       width="2.2013254"
       y="-0.41133729"
       height="1.8226746"
       style="color-interpolation-filters:sRGB;"
       inkscape:label="Felt Feather"
       id="filter124">
      <feGaussianBlur
         stdDeviation="5.30235 3.63108"
         result="blur"
         id="feGaussianBlur121" />
      <feComposite
         in="SourceGraphic"
         in2="blur"
         operator="atop"
         result="composite1"
         id="feComposite121" />
      <feComposite
         in2="composite1"
         operator="in"
         result="composite2"
         id="feComposite122" />
      <feComposite
         in2="composite2"
         operator="in"
         result="composite3"
         id="feComposite123" />
      <feTurbulence
         type="fractalNoise"
         numOctaves="2"
         seed="18"
         baseFrequency="0.415931 0.0635857"
         result="turbulence"
         id="feTurbulence123" />
      <feDisplacementMap
         in="composite3"
         in2="turbulence"
         xChannelSelector="R"
         scale="36.8421"
         yChannelSelector="G"
         result="map"
         id="feDisplacementMap123" />
      <feColorMatrix
         values="1 0 0 0 0 0 1 0 0 0 0 0 1 0 0 0 0 0 59.3651 -15.2381 "
         result="colormatrix"
         id="feColorMatrix123" />
      <feComposite
         in="composite3"
         in2="colormatrix"
         operator="atop"
         result="composite4"
         id="feComposite124" />
    </filter>
  </defs>
  <sodipodi:namedview
     id="namedview7"
     pagecolor="#ffffff"
     bordercolor="#000000"
     borderopacity="0.25"
     inkscape:showpageshadow="2"
     inkscape:pageopacity="0.0"
     inkscape:pagecheckerboard="0"
     inkscape:deskcolor="#d1d1d1"
     inkscape:zoom="24.15625"
     inkscape:cx="15.979301"
     inkscape:cy="16"
     inkscape:window-width="1920"
     inkscape:window-height="991"
     inkscape:window-x="-9"
     inkscape:window-y="-9"
     inkscape:window-maximized="1"
     inkscape:current-layer="svg7" />
  <path
     style="fill:#e37247;fill-opacity:1;stroke:none;stroke-opacity:1"
     d="M 8,18.125 C 8,15.44375 7.71875,11.84375 7.375,10.125 6.9712963,8.1064815 7.1069361,4.7645537 7.8336028,4.7645537 8.4523528,4.7645537 9.0365485,7.7875 9.0812189,8.75 9.1347554,9.9035366 9.7211771,10.01269 10.561575,8.1095275 12.539776,3.6297008 13.399139,3.279836 11.629314,8.4927338 10.778728,10.998077 10,17.629168 10,19.534947 10,21.440726 9.55,23 9,23 8.45,23 8,20.80625 8,18.125 Z m 4.604785,3.287469 C 11.492773,18.514613 11.983488,13.159369 13.5,11.642857 14.325,10.817857 15.031628,9.0982143 15.070285,7.8214286 15.136188,5.6447347 15.191443,5.6246945 15.956529,7.5 16.644125,9.1853707 16.843863,8.9493988 17.226206,6 17.623546,2.9349129 17.699812,3.090239 17.839963,7.25 17.927983,9.8625 18.45,12 19,12 c 0.55,0 1,1.548442 1,3.440983 0,1.892541 -0.45,3.719098 -1,4.059017 -0.55,0.339919 -1,0.114919 -1,-0.5 0,-0.614919 -0.417827,-0.859802 -0.928506,-0.544186 -0.510678,0.315616 -1.124396,-0.445326 -1.363817,-1.690983 -0.277709,-1.444856 -0.484617,-0.928522 -0.571495,1.426152 -0.14702,3.98472 -1.552268,5.773055 -2.531397,3.221486 z M 4.0789474,19.416667 c 0.047984,-1.164943 0.2849403,-1.4019 0.6041666,-0.604167 0.2888706,0.721875 0.2533443,1.584375 -0.078947,1.916667 -0.3322917,0.332291 -0.5686404,-0.258334 -0.5252196,-1.3125 z m 20.9999996,-2 c 0.04798,-1.164943 0.284941,-1.4019 0.604167,-0.604167 0.288871,0.721875 0.253344,1.584375 -0.07895,1.916667 -0.332292,0.332291 -0.568641,-0.258334 -0.52522,-1.3125 z M 21.140571,11.5 c 0,-4.7881246 0.271564,-6.3680356 0.859429,-5 0.472686,1.1 0.859429,3.35 0.859429,5 0,1.65 -0.386743,3.9 -0.859429,5 -0.587865,1.368036 -0.859429,-0.211875 -0.859429,-5 z M 27.232003,10 c 0,-1.925 0.205795,-2.7125 0.457323,-1.75 0.251527,0.9625 0.251527,2.5375 0,3.5 -0.251528,0.9625 -0.457323,0.175 -0.457323,-1.75 z"
     id="path124"
     sodipodi:nodetypes="sssssssssssssssssssssssssssssssssssssssss" />
</svg>
