<?xml version="1.0" encoding="utf-8"?>
<svg width="32" height="32" viewBox="0 0 32 32" fill="none" version="1.1" id="svg2" xmlns="http://www.w3.org/2000/svg">
  <path id="path4" style="baseline-shift: baseline; display: inline; overflow: visible; vector-effect: none; stop-color: rgb(0, 0, 0); stop-opacity: 1; fill-opacity: 1; fill: rgb(17, 119, 215);" d="M 16 1 C 14.1038 1 12.33305 1.9476406 11.28125 3.5253906 L 10.257812 5.0605469 C 9.968202 5.4949469 9.5704756 5.8465981 9.1035156 6.0800781 L 7.5195312 6.8710938 C 5.1040312 8.0788438 4.0850769 10.987353 5.2167969 13.439453 L 5.8183594 14.742188 C 6.1865194 15.539886 6.1865194 16.460113 5.8183594 17.257812 L 5.2167969 18.560547 C 4.0850769 21.012647 5.1040214 23.921106 7.5195312 25.128906 L 9.1035156 25.919922 C 9.5704856 26.153422 9.968202 26.505053 10.257812 26.939453 L 11.28125 28.474609 C 12.33305 30.052309 14.1038 31 16 31 C 17.8962 31 19.66695 30.052309 20.71875 28.474609 L 21.742188 26.939453 C 22.031788 26.505053 22.429584 26.153422 22.896484 25.919922 L 24.480469 25.128906 C 26.895969 23.921106 27.914903 21.012647 26.783203 18.560547 L 26.181641 17.257812 C 25.813441 16.460113 25.813441 15.539887 26.181641 14.742188 L 26.783203 13.439453 C 27.914903 10.987353 26.895969 8.0788439 24.480469 6.8710938 L 22.896484 6.0800781 C 22.429584 5.8465981 22.031788 5.4949369 21.742188 5.0605469 L 20.71875 3.5253906 C 19.66695 1.9476406 17.8962 1 16 1 z M 16 3 C 17.2275 3 18.373788 3.6134156 19.054688 4.6347656 L 20.078125 6.1699219 C 20.560825 6.8939119 21.223653 7.4800106 22.001953 7.8691406 L 23.585938 8.6601562 C 25.035238 9.3848061 25.645797 11.130262 24.966797 12.601562 L 24.365234 13.904297 C 23.751634 15.233797 23.751634 16.766203 24.365234 18.095703 L 24.966797 19.398438 C 25.645797 20.869737 25.035238 22.615144 23.585938 23.339844 L 22.001953 24.130859 C 21.223653 24.520059 20.560825 25.106078 20.078125 25.830078 L 19.054688 27.365234 C 18.373787 28.386534 17.2275 29 16 29 C 14.7725 29 13.626212 28.386534 12.945312 27.365234 L 11.921875 25.830078 C 11.439175 25.106078 10.774384 24.520059 9.9960938 24.130859 L 8.4140625 23.339844 C 6.9647625 22.615144 6.3541631 20.869737 7.0332031 19.398438 L 7.6347656 18.095703 C 8.2483656 16.766203 8.2483656 15.233797 7.6347656 13.904297 L 7.0332031 12.601562 C 6.3541731 11.130261 6.9647625 9.3848062 8.4140625 8.6601562 L 9.9960938 7.8691406 C 10.774384 7.4800106 11.439175 6.8939119 11.921875 6.1699219 L 12.945312 4.6347656 C 13.626212 3.6134156 14.7725 3 16 3 z M 16 5.4101562 C 12.2665 5.4101562 9.2402344 10.275997 9.2402344 16.279297 C 9.2402344 22.282697 12.2665 27.150391 16 27.150391 C 19.7334 27.150391 22.759766 22.282697 22.759766 16.279297 C 22.759766 10.275997 19.7334 5.4101562 16 5.4101562 z M 20.896484 11.132812 C 21.439884 12.622912 21.759766 14.379797 21.759766 16.279297 C 21.759766 19.124497 21.041641 21.6527 19.931641 23.4375 C 18.812541 25.237 17.395 26.150391 16 26.150391 C 14.6049 26.150391 13.187459 25.237 12.068359 23.4375 C 11.672759 22.8014 11.328275 22.071225 11.046875 21.265625 L 20.896484 11.132812 z "/>
</svg>