<?xml version='1.0' encoding='UTF-8'?>
<svg viewBox="-2 -2.455 32 32" xmlns="http://www.w3.org/2000/svg" >
  <defs id="defs3712" tag="staticElement_id10206759">
    <linearGradient x1="28.622px" y1="10.042px" x2="28.622px" y2="41.87px" gradientunits="userspaceonuse" spreadmethod="pad" gradientTransform="matrix(1.3107, 0, 0, 1.2884, -8.8539, -9.8895)" id="linearGradient2888">
      <stop offset="0%" id="stop4224" style="stop-color:#fff" />
      <stop offset="100%" id="stop4226" style="stop-color:#fff;stop-opacity:0" />
    </linearGradient>
    <linearGradient x1="22.182px" y1="14.5px" x2="22.182px" y2="44.051px" gradientunits="userspaceonuse" spreadmethod="pad" gradientTransform="matrix(-1.1301, 0, 0, 1.1161, 49.537, -3.1095)" id="linearGradient2891">
      <stop offset="0%" id="stop3618" style="stop-color:#f0c178" />
      <stop offset="50%" id="stop3270" style="stop-color:#e18941" />
      <stop offset="100%" id="stop3620" style="stop-color:#ec4f18" />
    </linearGradient>
    <linearGradient x1="16.632px" y1="46.054px" x2="16.632px" y2="1.0474px" gradientunits="userspaceonuse" spreadmethod="pad" id="linearGradient3674">
      <stop offset="0%" id="stop3624" style="stop-color:#bb2b12" />
      <stop offset="100%" id="stop3626" style="stop-color:#cd7233" />
    </linearGradient>
    <radialGradient cx="11.25px" cy="19.031px" r="8.0625px" gradientunits="userspaceonuse" spreadmethod="pad" gradientTransform="matrix(2.9695, 0, 0, 0.81662, -9.4362, 25.375)" id="radialGradient3708">
      <stop offset="0%" id="stop2487" style="stop-color:#0d0d0d" />
      <stop offset="100%" id="stop2489" style="stop-color:#0d0d0d;stop-opacity:0" />
    </radialGradient>
  </defs>
  <g id="svg3710" transform="translate(-0.0175, -0.620701220703126)">
    <g transform="matrix(0.584033250808716, 0, 0, 0.584033250808716, 0, 0)">
      <g id="layer1">
        <path d="M47.913, 40.916A23.942 6.584 0 0 1 0.03, 40.916A23.942 6.584 0 1 1 47.913, 40.916z" fill="url(#radialGradient3708)" opacity="0.16292" id="path2621" />
      </g>
    </g>
  </g>
  <g id="svg3710" transform="translate(-0.0175001668930054, -0.6207)">
    <g transform="matrix(0.584033250808716, 0, 0, 0.584033250808716, 0, 0)">
      <g id="layer1">
        <path d="M21.471, 1.5572L47.468, 23.6102L21.471, 45.5522L21.471, 34.5552L1.474, 34.5552L1.474, 12.5552L21.471, 12.5552L21.471, 1.5582z" fill="url(#linearGradient2891)" id="path2624" stroke="url(#linearGradient3674)" stroke-width="1.0055px" stroke-linecap="round" stroke-linejoin="round" />
      </g>
    </g>
  </g>
  <g id="svg3710" transform="translate(-0.0175001859664916, -0.620700038146973)">
    <g transform="matrix(0.584033250808716, 0, 0, 0.584033250808716, 0, 0)">
      <g id="layer1">
        <path d="M22.471, 3.5544L45.971, 23.6354L22.471, 43.5544L22.471, 33.5544L2.471, 33.5544L2.471, 13.5544L22.471, 13.5544L22.471, 3.5544z" fill="none" opacity="0.4" id="path2626" stroke="url(#linearGradient2888)" stroke-width="1.0055px" stroke-linejoin="round" />
      </g>
    </g>
  </g>
</svg>