<?xml version="1.0" encoding="utf-8"?>
<svg viewBox="-2 -2.855 32 32" xmlns="http://www.w3.org/2000/svg">
  <g id="Layer_1" transform="translate(0, 0.0196)" style="enable-background:new 0 0 32 32">
    <g transform="matrix(0.875683128833771, 0, 0, 0.875683128833771, 0, 0)">
      <path d="M 29.01 9.763 C 28.085 9.174 26.908 9.594 26.571 10.519 L 24.973 13.967 C 24.805 14.304 24.469 14.472 24.133 14.472 L 24.133 14.472 C 23.544 14.472 23.123 13.967 23.292 13.379 L 24.721 6.483 C 24.889 5.558 24.385 4.717 23.46 4.465 C 22.535 4.297 21.694 4.801 21.442 5.726 L 19.844 12.117 C 19.76 12.538 19.423 12.79 19.003 12.79 L 18.919 12.79 C 18.414 12.79 17.994 12.37 17.994 11.865 L 17.994 4.549 C 17.994 3.708 17.405 2.951 16.648 2.783 C 15.555 2.615 14.63 3.456 14.63 4.465 L 14.63 11.949 C 14.63 12.454 14.21 12.874 13.705 12.874 L 13.621 12.874 C 13.2 12.874 12.864 12.622 12.78 12.201 L 11.266 5.81 C 11.014 4.801 9.921 4.213 8.996 4.633 C 8.155 4.885 7.818 5.81 7.987 6.651 L 10.089 16.154 C 10.257 16.826 9.5 17.415 8.828 17.079 L 5.464 14.892 C 4.791 14.472 3.95 14.556 3.362 15.145 C 2.689 15.817 2.689 16.911 3.362 17.583 L 12.023 26.329 C 13.032 27.422 14.546 28.011 16.144 28.011 L 19.676 28.011 C 22.114 28.011 23.628 26.329 24.637 23.974 L 29.599 11.949 C 29.935 11.192 29.683 10.267 29.01 9.763 Z" class="Black" style="stroke: rgb(17, 119, 215); fill: rgb(211, 224, 255); stroke-width: 2.28393px; paint-order: stroke; stroke-linecap: round;"/>
    </g>
  </g>
</svg>