<?xml version="1.0" encoding="utf-8"?>
<svg viewBox="-2 -2 32 32" version="1.1" id="svg2" xmlns="http://www.w3.org/2000/svg">
  <g transform="translate(0, 0)" id="g2" style="fill:#FFFFFF;fill-opacity:1">
    <g transform="matrix(0.0546874962747097, 0, 0, 0.0546874962747097, 0, 0)" id="g1" style="fill:#FFFFFF;fill-opacity:1">
      <path d="M104.6, 48L64, 48C28.7, 48 0, 76.7 0, 112L0, 384C0, 419.3 28.7, 448 64, 448L160, 448L160, 400L64, 400C55.2, 400 48, 392.8 48, 384L48, 112C48, 103.2 55.2, 96 64, 96L80, 96C80, 113.7 94.3, 128 112, 128L184.4, 128C202, 108.4 227.6, 96 256, 96L318, 96C310.9, 68.4 285.8, 48 256, 48L215.4, 48C211.6, 20.9 188.2, 0 160, 0C131.8, 0 108.4, 20.9 104.6, 48zM144, 56A16 16 0 1 1 176, 56A16 16 0 1 1 144, 56zM448, 464L256, 464C247.2, 464 240, 456.8 240, 448L240, 192C240, 183.2 247.2, 176 256, 176L396.1, 176L464, 243.9L464, 448C464, 456.8 456.8, 464 448, 464zM256, 512L448, 512C483.3, 512 512, 483.3 512, 448L512, 243.9C512, 231.2 506.9, 219 497.9, 210L430, 142.1C421, 133.1 408.8, 128 396.1, 128L256, 128C220.7, 128 192, 156.7 192, 192L192, 448C192, 483.3 220.7, 512 256, 512z" id="path1" style="fill-opacity: 1; fill: rgb(17, 119, 215);"/>
    </g>
  </g>
</svg>