<?xml version='1.0' encoding='UTF-8'?>
<svg viewBox="-2.0125 -2 32 32" xmlns="http://www.w3.org/2000/svg" >
  <g id="Layer_1" transform="translate(-0.0125, 0)" style="enable-background:new 0 0 309.537 309.537">
    <g transform="matrix(0.0905, 0, 0, 0.0905, 0, 0)">
      <g>
        <path d="M270.744, 0.271L270.744, 0C270.744, 0 113.917, 0.193 58.171, 0.251C47.24, 0.251 38.793, 8.466 38.793, 19.629L38.793, 309.528L251.414, 309.528C262.084, 309.528 270.743, 300.869 270.743, 290.199L270.743, 19.59L290.072, 19.59L290.072, 0.261C290.073, 0.261 270.744, 0.271 270.744, 0.271z" fill="#D11C1C" fill-opacity="1" class="Red" />
      </g>
    </g>
  </g>
  <g id="Layer_1" transform="translate(-0.0125, 0)" style="enable-background:new 0 0 309.537 309.537">
    <g transform="matrix(0.0905, 0, 0, 0.0905, 0, 0)">
      <g>
        <path d="M232.086, 290.208C232.086, 279.538 240.745, 270.879 251.415, 270.879L19.464, 270.879C8.794, 270.879 0.135, 279.538 0.135, 290.208C0.135, 300.878 8.794, 309.537 19.464, 309.537L251.414, 309.537C240.745, 309.538 232.086, 300.878 232.086, 290.208z" fill="#D11C1C" fill-opacity="1" class="Red" />
      </g>
    </g>
  </g>
  <g id="Layer_1" transform="translate(-0.0125, 0)" style="enable-background:new 0 0 309.537 309.537">
    <g transform="matrix(0.0905, 0, 0, 0.0905, 0, 0)">
      <g>
        <path d="M290.073, 0.271C279.403, 0.271 270.744, 8.93 270.744, 19.6L270.744, 38.929L290.073, 38.929C300.743, 38.929 309.402, 30.27 309.402, 19.6C309.402, 8.92 300.743, 0.271 290.073, 0.271z" fill="#D11C1C" fill-opacity="1" class="Red" />
      </g>
    </g>
  </g>
  <g id="Layer_1" transform="translate(-0.0125, 0)" style="enable-background:new 0 0 309.537 309.537">
    <g transform="matrix(0.0905, 0, 0, 0.0905, 0, 0)">
      <g>
        <path d="M217.569, 137.15C220.816, 137.15 222.401, 134.318 222.401, 131.583C222.401, 128.751 220.739, 126.016 217.569, 126.016L199.129, 126.016C195.543, 126.016 193.524, 129.002 193.524, 132.298L193.524, 177.615C193.524, 181.655 195.824, 183.897 198.926, 183.897C202.028, 183.897 204.329, 181.655 204.329, 177.615L204.329, 165.177L215.482, 165.177C218.952, 165.177 220.672, 162.345 220.672, 159.533C220.672, 156.779 218.952, 154.043 215.482, 154.043L204.329, 154.043L204.329, 137.15L217.569, 137.15zM155.242, 126.017L141.75, 126.017C138.087, 126.017 135.487, 128.53 135.487, 132.26L135.487, 177.655C135.487, 182.284 139.227, 183.734 141.924, 183.734L156.063, 183.734C172.821, 183.734 183.887, 172.707 183.887, 155.687C183.879, 137.701 173.479, 126.017 155.242, 126.017zM155.9, 172.542L147.666, 172.542L147.666, 137.208L155.088, 137.208C166.299, 137.208 171.189, 144.737 171.189, 155.126C171.189, 164.839 166.395, 172.542 155.9, 172.542zM106.465, 126.017L93.099, 126.017C89.32, 126.017 87.233, 128.51 87.233, 132.299L87.233, 177.616C87.233, 181.656 89.63, 183.898 92.877, 183.898C96.124, 183.898 98.56, 181.656 98.56, 177.616L98.56, 164.395L106.92, 164.395C117.261, 164.395 125.795, 157.069 125.795, 145.288C125.794, 133.758 117.56, 126.017 106.465, 126.017zM106.243, 153.764L98.56, 153.764L98.56, 136.658L106.243, 136.658C110.998, 136.658 114.023, 140.36 114.023, 145.211C114.013, 150.043 110.998, 153.764 106.243, 153.764z" fill="#FFFFFF" fill-opacity="1" class="White" />
      </g>
    </g>
  </g>
</svg>