<?xml version="1.0" encoding="utf-8"?>
<svg width="100%" height="100%" viewBox="0 0 33 32" version="1.1" style="fill-rule:evenodd;clip-rule:evenodd;stroke-linejoin:round;stroke-miterlimit:2;" xmlns="http://www.w3.org/2000/svg">
  <defs>
    <linearGradient gradientUnits="userSpaceOnUse" x1="13.347" y1="7.386" x2="13.347" y2="30" id="gradient-1" spreadMethod="pad">
      <stop offset="0" style="stop-color: #bada55"/>
      <stop offset="1" style="stop-color: #758d29"/>
    </linearGradient>
  </defs>
  <g id="g2">
    <g id="g1">
      <g id="Layer_1">
        <g id="Edit">
          <path id="path1" d="M29.478,7.184l-4.719,-4.719c-0.621,-0.621 -1.738,-0.621 -2.359,0l-3.104,3.104l7.202,7.202l3.104,-3.104c0.497,-0.745 0.497,-1.738 -0.124,-2.483l0,-0Z" style="fill: rgb(255, 35, 35); fill-rule: nonzero; stroke: rgb(17, 119, 215);"/>
        </g>
      </g>
    </g>
  </g>
  <g id="g6">
    <g id="g5">
      <g id="g4">
        <g id="g3">
          <path id="polygon1" d="M2.041,22.801l0,4.804l2.444,2.365l4.757,0.03l-7.201,-7.199Z" style="fill: rgb(255, 191, 64); fill-rule: nonzero; stroke: rgb(17, 119, 215);"/>
        </g>
      </g>
    </g>
  </g>
  <g id="tip">
    <path id="tip1" d="M2.041,27.605l0,2.395l2.444,-0.03l-2.444,-2.365Z" style="fill: rgb(146, 85, 27); stroke: rgb(17, 119, 215);"/>
  </g>
  <g id="g10">
    <g id="g9">
      <g id="g8">
        <g id="g7">
          <path id="rect2" d="M17.452,7.386l7.201,7.199l-15.411,15.415l-7.201,-7.199l15.411,-15.415Z" style="fill-rule: nonzero; stroke: rgb(17, 119, 215); fill: url(#gradient-1);"/>
        </g>
      </g>
    </g>
  </g>
  <g id="g13">
    <g id="g12">
      <g id="g11">
        <path id="rect21" d="M19.281,5.557l7.217,7.215l-1.828,1.829l-7.217,-7.215l1.828,-1.829Z" style="fill: rgb(247, 227, 0); fill-rule: nonzero; stroke: rgb(17, 119, 215);"/>
      </g>
    </g>
  </g>
</svg>