<?xml version="1.0" encoding="utf-8"?>
<svg width="31.994951" height="32.000015" viewBox="32 32 8.9386878 8.9401026" version="1.1" id="svg1" xmlns="http://www.w3.org/2000/svg">
  <g id="layer1" transform="translate(-201.51979,-235.5087)">
    <ellipse style="stroke-width: 0.58502; stroke-linecap: butt; stroke-dasharray: none; stroke-opacity: 1; paint-order: normal; fill: rgb(255, 219, 187); stroke: rgb(209, 134, 83);" id="path1" cx="360.982" cy="-15.825" rx="2.032" ry="3.066" transform="matrix(0.627491, 0.778624, -0.77617, 0.630536, -0.000088, 1.000084)"/>
    <ellipse id="path5" style="stroke-width: 0.00478869; fill: rgb(255, 219, 187); stroke: rgb(209, 134, 83);" cx="236.77841" cy="272.81592" rx="0.00064945634" ry="0.00065205846"/>
    <path style="stroke-width: 0.36375; stroke-linecap: square; stroke-linejoin: round; stroke-dasharray: none; stroke-opacity: 1; fill: rgb(255, 219, 187); stroke: rgb(209, 134, 83); paint-order: markers;" d="m 237.41623,273.2039 c 0,0 0.11229,-0.0331 0.13475,-0.21916 0.0226,-0.18608 0.0315,-0.21502 -0.0628,-0.35563 -0.0943,-0.14059 -0.57488,-0.0166 -0.57488,-0.0166 0,0 -0.38986,0.1396 -0.72759,0.43419 -0.17067,0.14887 -0.46709,0.459 -0.44014,0.6823 0.0269,0.22329 0.0943,0.33081 0.26499,0.34322 0.17066,0.0124 0.51199,-0.0951 0.64224,-0.20676 0.13024,-0.11165 0.0988,0.0413 0.0988,0.0413 0,0 -0.65075,0.5815 -1.00604,0.85597 -0.27894,0.21549 -0.86233,0.612 -0.8803,0.62441 -0.018,0.0124 0.0943,0.11992 0.0943,0.11992 0,0 0.70962,-0.49208 1.11382,-0.83116 0.40423,-0.33908 0.91622,-0.82289 0.91622,-0.82289 0,0 0.0359,-0.0413 0,-0.12819 -0.0359,-0.0869 -0.15269,-0.0827 -0.26049,-0.0413 -0.10778,0.0413 -0.18996,0.1093 -0.41319,0.17781 -0.12127,0.0372 -0.28744,0.0744 -0.3638,0.0208 -0.0564,-0.0397 -0.0982,-0.16547 -0.0495,-0.26466 0.0512,-0.10406 0.0907,-0.15983 0.14796,-0.23259 0.0478,-0.0607 0.16194,-0.1685 0.16194,-0.1685 0,0 0.25151,-0.26879 0.56589,-0.40111 0.31439,-0.13233 0.47159,-0.11579 0.47159,-0.11579 0,0 0.13474,-0.005 0.16617,0.0992 0.0278,0.0917 0.006,0.21063 -0.0359,0.27292 -0.0816,0.12233 -0.19726,0.15284 -0.13923,0.20675 0.0426,0.0396 0.17516,-0.0744 0.17516,-0.0744 z" id="path6"/>
  </g>
</svg>