<?xml version='1.0' encoding='UTF-8'?>
<svg viewBox="-2 -2 32 32" xmlns="http://www.w3.org/2000/svg" >
  <g id="Capa_1" transform="translate(-0.0001, -0.0001)" style="enable-background:new 0 0 58 58">
    <g transform="matrix(0.8749, 0, 0, 0.8749, 0, 0)">
      <g transform="matrix(1.1431, 0, 0, 1.1431, 0, 0)">
        <g transform="matrix(0.4827, 0, 0, 0.4827, 0, 0)">
          <circle cx="29" cy="29" r="29" fill="#1177D7" fill-opacity="1" class="Blue" />
        </g>
      </g>
    </g>
  </g>
  <g id="Capa_1" transform="translate(-0.0001, -0.0001)" style="enable-background:new 0 0 58 58">
    <g transform="matrix(0.8749, 0, 0, 0.8749, 0, 0)">
      <g transform="matrix(1.1431, 0, 0, 1.1431, 0, 0)">
        <g transform="matrix(0.4827, 0, 0, 0.4827, 0, 0)">
          <path d="M53.148, 21.529C53.005, 20.995 52.456, 20.676 51.923, 20.822L49.654, 21.43C49.285, 20.262 48.817, 19.128 48.254, 18.037L50.284, 16.865C50.763, 16.589 50.926, 15.977 50.65, 15.499C50.374, 15.02 49.761, 14.855 49.284, 15.133L47.239, 16.314C46.569, 15.267 45.833, 14.285 45.02, 13.393L46.677, 11.736C47.068, 11.345 47.068, 10.713 46.677, 10.322C46.286, 9.931 45.654, 9.931 45.263, 10.322L43.61, 11.975C42.697, 11.143 41.716, 10.407 40.689, 9.752L41.865, 7.716C42.141, 7.237 41.978, 6.626 41.499, 6.35C41.02, 6.073 40.408, 6.237 40.133, 6.716L38.954, 8.758C37.863, 8.196 36.729, 7.735 35.563, 7.365L36.176, 5.077C36.319, 4.544 36.002, 3.995 35.469, 3.852C34.932, 3.705 34.387, 4.026 34.244, 4.559L33.631, 6.847C32.439, 6.584 31.226, 6.417 30, 6.358L30, 4C30, 3.447 29.552, 3 29, 3C28.448, 3 28, 3.447 28, 4L28, 6.352C26.783, 6.406 25.566, 6.553 24.359, 6.817L23.754, 4.559C23.611, 4.026 23.066, 3.705 22.529, 3.852C21.996, 3.995 21.679, 4.543 21.822, 5.077L22.428, 7.34C21.277, 7.706 20.15, 8.189 19.045, 8.76L17.865, 6.716C17.589, 6.236 16.978, 6.072 16.5, 6.35C16.021, 6.626 15.858, 7.238 16.134, 7.716L17.306, 9.745C16.266, 10.412 15.294, 11.16 14.396, 11.982L12.736, 10.322C12.345, 9.931 11.713, 9.931 11.322, 10.322C10.931, 10.713 10.931, 11.345 11.322, 11.736L12.986, 13.4C12.161, 14.309 11.416, 15.283 10.758, 16.313L8.715, 15.134C8.235, 14.857 7.625, 15.021 7.349, 15.5C7.073, 15.979 7.237, 16.59 7.715, 16.866L9.76, 18.047C9.2, 19.132 8.73, 20.265 8.357, 21.434L6.076, 20.822C5.545, 20.677 4.994, 20.996 4.851, 21.529C4.708, 22.062 5.024, 22.611 5.558, 22.754L7.839, 23.366C7.501, 24.901 7.318, 26.481 7.323, 28.087C7.324, 28.639 7.772, 29.084 8.323, 29.084C8.324, 29.084 8.325, 29.084 8.326, 29.084C8.878, 29.082 9.325, 28.633 9.323, 28.081C9.308, 23.117 11.175, 18.401 14.399, 14.814L21.969, 22.384C21.204, 23.341 20.633, 24.451 20.306, 25.671C19.683, 27.992 20.003, 30.418 21.204, 32.499C22.81, 35.275 25.798, 37 29.007, 37C30.578, 37 32.132, 36.582 33.499, 35.793C35.581, 34.592 37.069, 32.651 37.691, 30.329C38.314, 28.008 37.994, 25.582 36.793, 23.501C36.565, 23.107 36.303, 22.74 36.023, 22.39L43.607, 14.806C44.519, 15.816 45.344, 16.931 46.051, 18.156C47.783, 21.156 48.689, 24.588 48.671, 28.08C48.668, 28.632 49.114, 29.082 49.666, 29.085C49.667, 29.085 49.669, 29.085 49.671, 29.085C50.221, 29.085 50.668, 28.641 50.671, 28.09C50.679, 26.493 50.502, 24.91 50.167, 23.365L52.44, 22.755C52.975, 22.611 53.291, 22.063 53.148, 21.529zM28.993, 19C27.422, 19 25.868, 19.418 24.501, 20.207C24.106, 20.435 23.741, 20.697 23.39, 20.975L15.811, 13.396C16.828, 12.474 17.943, 11.648 19.156, 10.948C26.729, 6.575 36.024, 7.83 42.193, 13.393L34.608, 20.978C33.033, 19.725 31.062, 19 28.993, 19zM35.76, 29.812C35.276, 31.618 34.118, 33.126 32.499, 34.061C31.436, 34.675 30.228, 35 29.007, 35C26.51, 35 24.185, 33.658 22.939, 31.499C22.004, 29.88 21.756, 27.994 22.24, 26.188C22.724, 24.382 23.882, 22.874 25.501, 21.939C26.564, 21.325 27.772, 21 28.993, 21C31.49, 21 33.815, 22.342 35.061, 24.501C35.996, 26.12 36.244, 28.006 35.76, 29.812z" fill="#FFFFFF" fill-opacity="1" class="White" />
        </g>
      </g>
    </g>
  </g>
  <g id="Capa_1" transform="translate(-0.0001, -0.0001)" style="enable-background:new 0 0 58 58">
    <g transform="matrix(0.8749, 0, 0, 0.8749, 0, 0)">
      <g transform="matrix(1.1431, 0, 0, 1.1431, 0, 0)">
        <g transform="matrix(0.4827, 0, 0, 0.4827, 0, 0)">
          <path d="M26, 46.5L23.793, 46.5C23.777, 46.5 23.764, 46.508 23.749, 46.509C23.629, 44.804 23.193, 43.101 22.408, 41.486C22.42, 41.479 22.434, 41.477 22.446, 41.47L24.357, 40.366C24.836, 40.09 24.999, 39.478 24.723, 39C24.446, 38.521 23.833, 38.357 23.357, 38.634L21.446, 39.738C21.431, 39.747 21.422, 39.762 21.408, 39.772C20.402, 38.284 19.149, 37.053 17.733, 36.095C17.742, 36.081 17.755, 36.07 17.763, 36.056L18.867, 34.145C19.143, 33.666 18.979, 33.055 18.501, 32.779C18.021, 32.503 17.411, 32.666 17.135, 33.145L16.031, 35.056C16.025, 35.067 16.025, 35.08 16.019, 35.091C14.445, 34.329 12.737, 33.872 10.993, 33.744C10.993, 33.731 11, 33.721 11, 33.708L11, 31.5C11, 30.947 10.552, 30.5 10, 30.5C9.448, 30.5 9, 30.947 9, 31.5L9, 33.707C9, 33.724 9.009, 33.738 9.01, 33.756C6.992, 33.9 4.974, 34.475 3.104, 35.555C2.386, 35.97 1.73, 36.448 1.117, 36.963C1.967, 39.943 3.284, 42.725 4.979, 45.23C5.438, 44.213 6.202, 43.322 7.243, 42.721C9.882, 41.197 13.256, 42.102 14.78, 44.741C16.304, 47.38 15.399, 50.754 12.761, 52.278C12.557, 52.396 12.348, 52.494 12.136, 52.583C14.598, 54.348 17.344, 55.74 20.298, 56.669C22.337, 54.379 23.525, 51.488 23.747, 48.49C23.764, 48.491 23.778, 48.5 23.795, 48.5L26, 48.5C26.552, 48.5 27, 48.053 27, 47.5C27, 46.947 26.552, 46.5 26, 46.5z" fill="#039C23" fill-opacity="1" class="Green" />
        </g>
      </g>
    </g>
  </g>
  <g id="Capa_1" transform="translate(-0.0001, -0.0001)" style="enable-background:new 0 0 58 58">
    <g transform="matrix(0.8749, 0, 0, 0.8749, 0, 0)">
      <g transform="matrix(1.1431, 0, 0, 1.1431, 0, 0)">
        <g transform="matrix(0.4827, 0, 0, 0.4827, 0, 0)">
          <path d="M48.99, 33.257C48.991, 33.24 49, 33.225 49, 33.207L49, 31C49, 30.447 48.552, 30 48, 30C47.448, 30 47, 30.447 47, 31L47, 33.207C47, 33.223 47.008, 33.235 47.009, 33.251C45.304, 33.371 43.599, 33.808 41.983, 34.593C41.977, 34.581 41.977, 34.567 41.97, 34.555L40.866, 32.644C40.59, 32.164 39.978, 32 39.5, 32.277C39.021, 32.553 38.858, 33.165 39.134, 33.643L40.238, 35.554C40.247, 35.569 40.26, 35.58 40.269, 35.594C38.781, 36.601 37.55, 37.854 36.593, 39.27C36.579, 39.261 36.571, 39.246 36.556, 39.237L34.645, 38.133C34.164, 37.856 33.556, 38.02 33.279, 38.499C33.003, 38.978 33.167, 39.589 33.645, 39.865L35.556, 40.969C35.567, 40.975 35.579, 40.977 35.59, 40.983C34.829, 42.556 34.372, 44.263 34.244, 46.007C34.23, 46.007 34.22, 46 34.207, 46L32, 46C31.448, 46 31, 46.447 31, 47C31, 47.553 31.448, 48 32, 48L34.207, 48C34.224, 48 34.239, 47.991 34.256, 47.99C34.4, 50.008 34.975, 52.026 36.055, 53.896C36.625, 54.883 37.308, 55.76 38.064, 56.547C41.062, 55.561 43.839, 54.093 46.316, 52.245C45.057, 51.841 43.936, 50.993 43.223, 49.758C41.699, 47.119 42.604, 43.745 45.242, 42.221C47.88, 40.697 51.255, 41.602 52.779, 44.241C52.928, 44.499 53.047, 44.766 53.15, 45.036C54.859, 42.468 56.176, 39.617 56.999, 36.56C54.736, 34.612 51.914, 33.474 48.99, 33.257z" fill="#D11C1C" fill-opacity="1" class="Red" />
        </g>
      </g>
    </g>
  </g>
</svg>