<?xml version='1.0' encoding='UTF-8'?>
<svg viewBox="-6.5575 -2.0025 32 32" xmlns="http://www.w3.org/2000/svg" >
  <g id="Layer_1" transform="translate(-4.5576, -0.0026)" style="enable-background:new 0 0 512.004 512.004">
    <g transform="matrix(0.0547, 0, 0, 0.0547, 0, 0)">
      <g>
        <g>
          <path d="M237.642, 138.42L237.642, 72.505C237.642, 64.221 230.926, 57.505 222.642, 57.505L150.767, 57.505C142.483, 57.505 135.767, 64.221 135.767, 72.505L135.767, 138.421L237.642, 138.421z" fill="#FFBD59" />
        </g>
      </g>
    </g>
  </g>
  <g id="Layer_1" transform="translate(-4.5576, -0.0026)" style="enable-background:new 0 0 512.004 512.004">
    <g transform="matrix(0.0547, 0, 0, 0.0547, 0, 0)">
      <g>
        <g>
          <path d="M222.642, 57.505L186.705, 57.505L186.705, 138.421L237.642, 138.421L237.642, 72.505C237.642, 64.22 230.927, 57.505 222.642, 57.505z" fill="#FF8036" />
        </g>
      </g>
    </g>
  </g>
  <g id="Layer_1" transform="translate(-4.5576, -0.0026)" style="enable-background:new 0 0 512.004 512.004">
    <g transform="matrix(0.0547, 0, 0, 0.0547, 0, 0)">
      <g>
        <g>
          <path d="M248.781, 123.421L124.629, 123.421C116.345, 123.421 109.629, 130.137 109.629, 138.421L109.629, 186.444C109.629, 194.728 116.345, 201.444 124.629, 201.444L248.781, 201.444C257.065, 201.444 263.781, 194.728 263.781, 186.444L263.781, 138.421C263.781, 130.136 257.065, 123.421 248.781, 123.421z" fill="#5F6270" />
        </g>
      </g>
    </g>
  </g>
  <g id="Layer_1" transform="translate(-4.5576, -0.0026)" style="enable-background:new 0 0 512.004 512.004">
    <g transform="matrix(0.0547, 0, 0, 0.0547, 0, 0)">
      <g>
        <g>
          <path d="M248.781, 123.421L186.705, 123.421L186.705, 201.444L248.781, 201.444C257.065, 201.444 263.781, 194.728 263.781, 186.444L263.781, 138.421C263.781, 130.136 257.065, 123.421 248.781, 123.421z" fill="#343642" />
        </g>
      </g>
    </g>
  </g>
  <g id="Layer_1" transform="translate(-4.5576, -0.0026)" style="enable-background:new 0 0 512.004 512.004">
    <g transform="matrix(0.0547, 0, 0, 0.0547, 0, 0)">
      <g>
        <g>
          <path d="M233.958, 171.444L139.453, 171.444C108.48, 171.444 83.281, 196.642 83.281, 227.616L83.281, 497.004C83.281, 505.288 89.997, 512.004 98.281, 512.004L275.13, 512.004C283.414, 512.004 290.13, 505.288 290.13, 497.004L290.13, 227.616C290.13, 196.642 264.931, 171.444 233.958, 171.444z" fill="#FFBD59" />
        </g>
      </g>
    </g>
  </g>
  <g id="Layer_1" transform="translate(-4.5576, -0.0026)" style="enable-background:new 0 0 512.004 512.004">
    <g transform="matrix(0.0547, 0, 0, 0.0547, 0, 0)">
      <g>
        <g>
          <path d="M233.958, 171.444L186.705, 171.444L186.705, 512.004L275.13, 512.004C283.414, 512.004 290.13, 505.288 290.13, 497.004L290.13, 227.616C290.13, 196.642 264.931, 171.444 233.958, 171.444z" fill="#FF8036" />
        </g>
      </g>
    </g>
  </g>
  <g id="Layer_1" transform="translate(-4.5576, -0.0026)" style="enable-background:new 0 0 512.004 512.004">
    <g transform="matrix(0.0547, 0, 0, 0.0547, 0, 0)">
      <g>
        <g>
          <g>
            <path d="M413.723, 78.62L383.585, 78.62C375.301, 78.62 368.585, 85.336 368.585, 93.62C368.585, 101.904 375.301, 108.62 383.585, 108.62L413.723, 108.62C422.007, 108.62 428.723, 101.904 428.723, 93.62C428.723, 85.336 422.007, 78.62 413.723, 78.62z" fill="#BBBEC7" />
          </g>
        </g>
      </g>
    </g>
  </g>
  <g id="Layer_1" transform="translate(-4.5576, -0.0026)" style="enable-background:new 0 0 512.004 512.004">
    <g transform="matrix(0.0547, 0, 0, 0.0547, 0, 0)">
      <g>
        <g>
          <g>
            <path d="M339.173, 78.62L312.361, 78.62C304.077, 78.62 297.361, 85.336 297.361, 93.62C297.361, 101.904 304.077, 108.62 312.361, 108.62L339.173, 108.62C347.457, 108.62 354.173, 101.904 354.173, 93.62C354.173, 85.336 347.457, 78.62 339.173, 78.62z" fill="#5F6270" />
          </g>
        </g>
      </g>
    </g>
  </g>
  <g id="Layer_1" transform="translate(-4.5576, -0.0026)" style="enable-background:new 0 0 512.004 512.004">
    <g transform="matrix(0.0547, 0, 0, 0.0547, 0, 0)">
      <g>
        <g>
          <g>
            <path d="M371.179, 41.672C372.917, 41.672 374.685, 41.367 376.41, 40.726L407.741, 29.062C415.505, 26.171 419.455, 17.535 416.565, 9.771C413.674, 2.007 405.039, -1.942 397.274, 0.947L365.943, 12.61C358.179, 15.501 354.229, 24.137 357.119, 31.901C359.367, 37.94 365.092, 41.672 371.179, 41.672z" fill="#BBBEC7" />
          </g>
        </g>
      </g>
    </g>
  </g>
  <g id="Layer_1" transform="translate(-4.5576, -0.0026)" style="enable-background:new 0 0 512.004 512.004">
    <g transform="matrix(0.0547, 0, 0, 0.0547, 0, 0)">
      <g>
        <g>
          <g>
            <path d="M301.148, 67.743C302.886, 67.743 304.654, 67.438 306.379, 66.797L335.043, 56.126C342.807, 53.235 346.757, 44.599 343.867, 36.835C340.976, 29.071 332.342, 25.123 324.576, 28.011L295.912, 38.682C288.148, 41.573 284.198, 50.209 287.088, 57.973C289.337, 64.011 295.061, 67.743 301.148, 67.743z" fill="#5F6270" />
          </g>
        </g>
      </g>
    </g>
  </g>
  <g id="Layer_1" transform="translate(-4.5576, -0.0026)" style="enable-background:new 0 0 512.004 512.004">
    <g transform="matrix(0.0547, 0, 0, 0.0547, 0, 0)">
      <g>
        <g>
          <g>
            <path d="M407.741, 158.177L376.41, 146.513C368.644, 143.621 360.009, 147.574 357.119, 155.337C354.229, 163.1 358.18, 171.737 365.943, 174.628L397.274, 186.292C399, 186.935 400.767, 187.238 402.505, 187.238C408.591, 187.238 414.317, 183.506 416.565, 177.467C419.455, 169.705 415.505, 161.068 407.741, 158.177z" fill="#BBBEC7" />
          </g>
        </g>
      </g>
    </g>
  </g>
  <g id="Layer_1" transform="translate(-4.5576, -0.0026)" style="enable-background:new 0 0 512.004 512.004">
    <g transform="matrix(0.0547, 0, 0, 0.0547, 0, 0)">
      <g>
        <g>
          <g>
            <path d="M335.043, 131.113L306.379, 120.442C298.613, 117.55 289.978, 121.503 287.088, 129.266C284.198, 137.029 288.149, 145.666 295.912, 148.557L324.576, 159.228C326.302, 159.871 328.069, 160.174 329.807, 160.174C335.893, 160.174 341.619, 156.442 343.867, 150.403C346.757, 142.64 342.806, 134.004 335.043, 131.113z" fill="#5F6270" />
          </g>
        </g>
      </g>
    </g>
  </g>
  <g id="Layer_1" transform="translate(-4.5576, -0.0026)" style="enable-background:new 0 0 512.004 512.004">
    <g transform="matrix(0.0547, 0, 0, 0.0547, 0, 0)">
      <g>
        <path d="M83.281, 415.061L83.281, 497.003C83.281, 505.287 89.997, 512.003 98.281, 512.003L275.13, 512.003C283.414, 512.003 290.13, 505.287 290.13, 497.003L290.13, 415.061L83.281, 415.061z" fill="#59A7FF" />
      </g>
    </g>
  </g>
  <g id="Layer_1" transform="translate(-4.5576, -0.0026)" style="enable-background:new 0 0 512.004 512.004">
    <g transform="matrix(0.0547, 0, 0, 0.0547, 0, 0)">
      <g>
        <path d="M290.13, 283.586L290.13, 227.616C290.13, 196.642 264.931, 171.444 233.958, 171.444L139.453, 171.444C108.48, 171.444 83.281, 196.642 83.281, 227.616L83.281, 283.586L290.13, 283.586z" fill="#59A7FF" />
      </g>
    </g>
  </g>
  <g id="Layer_1" transform="translate(-4.5576, -0.0026)" style="enable-background:new 0 0 512.004 512.004">
    <g transform="matrix(0.0547, 0, 0, 0.0547, 0, 0)">
      <g>
        <path d="M186.705, 415.061L186.705, 512.003L275.13, 512.003C283.414, 512.003 290.13, 505.287 290.13, 497.003L290.13, 415.061L186.705, 415.061z" fill="#316196" />
      </g>
    </g>
  </g>
  <g id="Layer_1" transform="translate(-4.5576, -0.0026)" style="enable-background:new 0 0 512.004 512.004">
    <g transform="matrix(0.0547, 0, 0, 0.0547, 0, 0)">
      <g>
        <path d="M233.958, 171.444L186.705, 171.444L186.705, 283.586L290.13, 283.586L290.13, 227.616C290.13, 196.642 264.931, 171.444 233.958, 171.444z" fill="#316196" />
      </g>
    </g>
  </g>
</svg>