<?xml version='1.0' encoding='UTF-8'?>
<svg viewBox="-3.6589 -8.3814 32 32" xmlns="http://www.w3.org/2000/svg" >
  <g id="Layer_1" transform="translate(-9.3028, -13.5476) rotate(90, 14.2378, 21.4026)" style="enable-background:new 0 0 472 472">
    <g transform="matrix(0.8749, 0, 0, 0.8749, 0, 0)">
      <g transform="matrix(1.1433, 0, 0, 1.1433, 0, 0)">
        <g transform="matrix(0.0593, 0, 0, 0.0593, 0, 0)">
          <path d="M268, 394.4C268, 408 253.6, 416 240, 416L240, 416C226.4, 416 212, 408 212, 394.4L212, 330.4C212, 316.8 222.4, 305.6 236, 305.6L236, 305.6C249.6, 305.6 268, 316.8 268, 330.4L268, 394.4z" fill="#1177D7" fill-opacity="1" class="Blue" />
        </g>
      </g>
    </g>
  </g>
  <g id="Layer_1" transform="translate(8.0659, 3.3462) rotate(90, 14.0003, 4.2713)" style="enable-background:new 0 0 472 472">
    <g transform="matrix(0.8749, 0, 0, 0.8749, 0, 0)">
      <g transform="matrix(1.1433, 0, 0, 1.1433, 0, 0)">
        <g transform="matrix(0.0593, 0, 0, 0.0593, 0, 0)">
          <path d="M308, 119.2C308, 132.8 296.8, 144 283.2, 144L188.8, 144C175.2, 144 164, 132.8 164, 119.2L164, 24.8C164, 11.2 175.2, 0 188.8, 0L283.2, 0C296.8, 0 308, 11.2 308, 24.8L308, 119.2z" fill="#FFB115" fill-opacity="1" class="Yellow" />
        </g>
      </g>
    </g>
  </g>
  <g id="Layer_1" transform="translate(7.9946, 3.2749) rotate(90, 14.0003, 4.3426)" style="enable-background:new 0 0 472 472">
    <g transform="matrix(0.8749, 0, 0, 0.8749, 0, 0)">
      <g transform="matrix(1.1433, 0, 0, 1.1433, 0, 0)">
        <g transform="matrix(0.0593, 0, 0, 0.0593, 0, 0)">
          <path d="M164, 24.8C164, 11.2 175.2, 0 188.8, 0L283.2, 0C296.8, 0 308, 11.2 308, 24.8L308, 122.4C308, 136 296, 146.4 282.4, 146.4" fill="#FFB115" fill-opacity="1" class="Yellow" />
        </g>
      </g>
    </g>
  </g>
  <g id="Layer_1" transform="translate(7.9959, 3.2737) rotate(90, 13.9991, 4.3426)" style="enable-background:new 0 0 472 472">
    <g transform="matrix(0.8749, 0, 0, 0.8749, 0, 0)">
      <g transform="matrix(1.1433, 0, 0, 1.1433, 0, 0)">
        <g transform="matrix(0.0593, 0, 0, 0.0593, 0, 0)">
          <path d="M228, 0L228, 140.8C228, 144 232.8, 146.4 236, 146.4C239.2, 146.4 244, 144 244, 140.8L244, 0L228, 0z" fill="#727272" fill-opacity="1" class="Black" />
        </g>
      </g>
    </g>
  </g>
  <g id="Layer_1" transform="translate(11.6009, 6.8811) rotate(90, 14.0003, 0.7363)" style="enable-background:new 0 0 472 472">
    <g transform="matrix(0.8749, 0, 0, 0.8749, 0, 0)">
      <g transform="matrix(1.1433, 0, 0, 1.1433, 0, 0)">
        <g transform="matrix(0.0593, 0, 0, 0.0593, 0, 0)">
          <path d="M164, 24.8C164, 11.2 175.2, 0 188.8, 0L283.2, 0C296.8, 0 308, 11.2 308, 24.8" fill="#D11C1C" fill-opacity="1" class="Red" />
        </g>
      </g>
    </g>
  </g>
  <g id="Layer_1" transform="translate(-1.8991, -6.6213) rotate(90, 13.9991, 14.2376)" style="enable-background:new 0 0 472 472">
    <g transform="matrix(0.8749, 0, 0, 0.8749, 0, 0)">
      <g transform="matrix(1.1433, 0, 0, 1.1433, 0, 0)">
        <g transform="matrix(0.0593, 0, 0, 0.0593, 0, 0)">
          <path d="M324, 330.4C324, 349.6 308, 368 288.8, 368L183.2, 368C164, 368 148, 350.4 148, 330.4L148, 136.8C148, 116.8 164, 112 183.2, 112L288, 112C307.2, 112 323.2, 117.6 323.2, 136.8L323.2, 330.4L324, 330.4z" fill="#1177D7" fill-opacity="1" class="Blue" />
        </g>
      </g>
    </g>
  </g>
  <g id="Layer_1" transform="translate(-1.8754, -6.6451) rotate(90, 13.9753, 14.2376)" style="enable-background:new 0 0 472 472">
    <g transform="matrix(0.8749, 0, 0, 0.8749, 0, 0)">
      <g transform="matrix(1.1433, 0, 0, 1.1433, 0, 0)">
        <g transform="matrix(0.0593, 0, 0, 0.0593, 0, 0)">
          <g>
            <path d="M148, 136C148, 116 164, 112 183.2, 112L288, 112C307.2, 112 323.2, 117.6 323.2, 136.8L323.2, 330.4C323.2, 349.6 307.2, 368 288, 368" fill="#1177D7" fill-opacity="1" class="Blue" />
          </g>
        </g>
      </g>
    </g>
  </g>
  <g id="Layer_1" transform="translate(-3.1316, -7.8539) rotate(90, 13.9991, 15.4701)" style="enable-background:new 0 0 472 472">
    <g transform="matrix(0.8749, 0, 0, 0.8749, 0, 0)">
      <g transform="matrix(1.1433, 0, 0, 1.1433, 0, 0)">
        <g transform="matrix(0.0593, 0, 0, 0.0593, 0, 0)">
          <g>
            <circle cx="236" cy="260.8" r="49.6" fill="#FFFFFF" fill-opacity="1" class="White" />
          </g>
        </g>
      </g>
    </g>
  </g>
  <g id="Layer_1" transform="translate(-3.1329, -7.0001) rotate(90, 14.4266, 15.0439)" style="enable-background:new 0 0 472 472">
    <g transform="matrix(0.8749, 0, 0, 0.8749, 0, 0)">
      <g transform="matrix(1.1433, 0, 0, 1.1433, 0, 0)">
        <g transform="matrix(0.0593, 0, 0, 0.0593, 0, 0)">
          <path d="M200.8, 225.6C220, 206.4 251.2, 206.4 271.2, 225.6C290.4, 244.8 290.4, 276 271.2, 296" fill="#FFFFFF" fill-opacity="1" class="White" />
        </g>
      </g>
    </g>
  </g>
  <g id="Layer_1" transform="translate(11.8621, 2.3949) rotate(90, 11.6266, 2.8489)" style="enable-background:new 0 0 472 472">
    <g transform="matrix(0.8749, 0, 0, 0.8749, 0, 0)">
      <g transform="matrix(1.1433, 0, 0, 1.1433, 0, 0)">
        <g transform="matrix(0.0593, 0, 0, 0.0593, 0, 0)">
          <path d="M204, 56C204, 60.8 200.8, 64.8 196, 64.8L196, 64.8C191.2, 64.8 188, 60.8 188, 56L188, 40C188, 35.2 191.2, 31.2 196, 31.2L196, 31.2C200.8, 31.2 204, 35.2 204, 40L204, 56z" fill="#FFFFFF" fill-opacity="1" class="White" />
        </g>
      </g>
    </g>
  </g>
  <g id="Layer_1" transform="translate(11.5071, 2.0399) rotate(90, 11.6266, 3.2039)" style="enable-background:new 0 0 472 472">
    <g transform="matrix(0.8749, 0, 0, 0.8749, 0, 0)">
      <g transform="matrix(1.1433, 0, 0, 1.1433, 0, 0)">
        <g transform="matrix(0.0593, 0, 0, 0.0593, 0, 0)">
          <path d="M196, 43.2C191.2, 43.2 188, 47.2 188, 52L188, 56C188, 60.8 191.2, 64.8 196, 64.8C200.8, 64.8 204, 60.8 204, 56L204, 52C204, 47.2 200.8, 43.2 196, 43.2z" fill="#FFFFFF" fill-opacity="1" class="White" />
        </g>
      </g>
    </g>
  </g>
  <g id="Layer_1" transform="translate(7.1159, 7.1411) rotate(90, 16.3729, 2.8489)" style="enable-background:new 0 0 472 472">
    <g transform="matrix(0.8749, 0, 0, 0.8749, 0, 0)">
      <g transform="matrix(1.1433, 0, 0, 1.1433, 0, 0)">
        <g transform="matrix(0.0593, 0, 0, 0.0593, 0, 0)">
          <path d="M284, 56C284, 60.8 280.8, 64.8 276, 64.8L276, 64.8C271.2, 64.8 268, 60.8 268, 56L268, 40C268, 35.2 271.2, 31.2 276, 31.2L276, 31.2C280.8, 31.2 284, 35.2 284, 40L284, 56z" fill="#FFFFFF" fill-opacity="1" class="White" />
        </g>
      </g>
    </g>
  </g>
  <g id="Layer_1" transform="translate(6.7609, 6.7861) rotate(90, 16.3729, 3.2039)" style="enable-background:new 0 0 472 472">
    <g transform="matrix(0.8749, 0, 0, 0.8749, 0, 0)">
      <g transform="matrix(1.1433, 0, 0, 1.1433, 0, 0)">
        <g transform="matrix(0.0593, 0, 0, 0.0593, 0, 0)">
          <path d="M276, 43.2C271.2, 43.2 268, 47.2 268, 52L268, 56C268, 60.8 271.2, 64.8 276, 64.8C280.8, 64.8 284, 60.8 284, 56L284, 52C284, 47.2 280.8, 43.2 276, 43.2z" fill="#FFFFFF" fill-opacity="1" class="White" />
        </g>
      </g>
    </g>
  </g>
  <g id="Layer_1" transform="translate(-13.4766, -17.7714) rotate(90, 14.2128, 25.6013)" style="enable-background:new 0 0 472 472">
    <g transform="matrix(0.8749, 0, 0, 0.8749, 0, 0)">
      <g transform="matrix(1.1433, 0, 0, 1.1433, 0, 0)">
        <g transform="matrix(0.0593, 0, 0, 0.0593, 0, 0)">
          <path d="M252, 460.8C252, 466.4 247.2, 472 240.8, 472L238.4, 472C232.8, 472 227.2, 467.2 227.2, 460.8L227.2, 402.4C227.2, 396.8 232, 391.2 238.4, 391.2L240.8, 391.2C246.4, 391.2 252, 396 252, 402.4L252, 460.8z" fill="#727272" fill-opacity="1" class="Black" />
        </g>
      </g>
    </g>
  </g>
</svg>