<?xml version='1.0' encoding='UTF-8'?>
<svg viewBox="-2 -2 32 32" xmlns="http://www.w3.org/2000/svg" >
  <g transform="translate(-3.6842, -3.6842)">
    <g transform="matrix(0.73684161901474, 0, 0, 0.73684161901474, 0, 0)">
      <path d="M39, 43L9, 43C6.8, 43 5, 41.2 5, 39L5, 9C5, 6.8 6.8, 5 9, 5L39, 5C41.2, 5 43, 6.8 43, 9L43, 39C43, 41.2 41.2, 43 39, 43z" fill="#3F51B5" />
    </g>
  </g>
  <g transform="translate(-3.68420061035156, -3.68420015258789)">
    <g transform="matrix(0.73684161901474, 0, 0, 0.73684161901474, 0, 0)">
      <path d="M33.6, 25.4C33.7, 25 33.7, 24.5 33.7, 24C33.7, 23.5 33.7, 23.1 33.6, 22.6L36.4, 20.6C36.7, 20.4 36.8, 20 36.6, 19.7L33.9, 15.1C33.7, 14.8 33.4, 14.7 33.1, 14.8L30, 16.3C29.3, 15.7 28.5, 15.3 27.6, 14.9L27.3, 11.5C27.3, 11.2 27, 10.9 26.7, 10.9L21.4, 10.9C21.1, 10.9 20.8, 11.2 20.8, 11.5L20.4, 15C19.5, 15.3 18.8, 15.8 18, 16.4L14.9, 15C14.6, 14.9 14.2, 15 14.1, 15.3L11.4, 19.9C11.2, 20.2 11.3, 20.6 11.6, 20.8L14.4, 22.8C14.3, 23.2 14.3, 23.7 14.3, 24.2C14.3, 24.7 14.3, 25.1 14.4, 25.6L11.6, 27.6C11.3, 27.8 11.2, 28.2 11.4, 28.5L14.1, 33.1C14.3, 33.4 14.6, 33.5 14.9, 33.4L18, 32C18.7, 32.6 19.5, 33 20.4, 33.4L20.7, 36.8C20.7, 37.1 21, 37.4 21.3, 37.4L26.6, 37.4C26.9, 37.4 27.2, 37.1 27.2, 36.8L27.5, 33.4C28.4, 33.1 29.1, 32.6 29.9, 32L33, 33.4C33.3, 33.5 33.7, 33.4 33.8, 33.1L36.5, 28.5C36.7, 28.2 36.6, 27.8 36.3, 27.6L33.6, 25.4zM24, 29C21.2, 29 19, 26.8 19, 24C19, 21.2 21.2, 19 24, 19C26.8, 19 29, 21.2 29, 24C29, 26.8 26.8, 29 24, 29z" fill="#B3E5FC" />
    </g>
  </g>
</svg>