<?xml version='1.0' encoding='UTF-8'?>
<svg viewBox="-2 -2 32 32" xmlns="http://www.w3.org/2000/svg" >
  <g id="Layer_1" transform="translate(0, 0)" style="enable-background:new 0 0 508 508">
    <g transform="matrix(0.0551181100308895, 0, 0, 0.0551181100308895, 0, 0)">
      <circle cx="254" cy="254" r="254" fill="#727272" class="Black" />
    </g>
  </g>
  <g id="Layer_1" transform="translate(-8.77380371022696E-07, -5.53131103586679E-07)" style="enable-background:new 0 0 508 508">
    <g transform="matrix(0.0551181100308895, 0, 0, 0.0551181100308895, 0, 0)">
      <path d="M252, 414L256, 414C318.8, 414 371.2, 363.6 370, 300.8C370, 292.8 368.8, 285.2 367.2, 278C360, 246.4 324, 210 298, 170.8C270.8, 133.2 254, 93.2 254, 94.4C253.6, 93.6 236.8, 133.6 210, 170.8C184.4, 210 148, 246.8 140.8, 277.6C138.8, 284.8 138, 292.4 138, 300.4C136.8, 363.2 189.2, 414 252, 414z" fill="#FFFFFF" class="White" />
    </g>
  </g>
  <g id="Layer_1" transform="translate(-1.0299682617898E-06, -2.67028807954262E-07)" style="enable-background:new 0 0 508 508">
    <g transform="matrix(0.0551181100308895, 0, 0, 0.0551181100308895, 0, 0)">
      <g>
        <path d="M177.2, 353.6C183.2, 353.2 186.8, 347.6 184.4, 342.8C181.2, 335.6 178.4, 328 177.2, 320C175.6, 312 175.2, 304.4 175.6, 296.8C176.8, 264.8 207.6, 221.6 227.2, 178.4C229.2, 174.8 230.8, 170.8 232.4, 167.2C231.6, 168.4 230.8, 169.6 230, 170.4C203.6, 210.8 166, 249.2 159.2, 280.4C157.6, 287.6 156.8, 295.6 156.8, 303.6C157.2, 320.4 161.6, 335.6 169.2, 349.6C171.2, 352.4 174, 354 177.2, 353.6L177.2, 353.6z" fill="#727272" class="Black" />
      </g>
    </g>
  </g>
  <g id="Layer_1" transform="translate(-4.1961669872137E-07, -2.28881835795391E-06)" style="enable-background:new 0 0 508 508">
    <g transform="matrix(0.0551181100308895, 0, 0, 0.0551181100308895, 0, 0)">
      <g>
        <ellipse cx="188.401" cy="365.998" rx="8.4" ry="9.2" fill="#727272" class="Black" transform="matrix(-0.042, -0.9991, 0.9991, -0.042, -169.3631, 569.6013)" />
      </g>
    </g>
  </g>
</svg>