<?xml version='1.0' encoding='UTF-8'?>
<svg viewBox="-2 -2.025 32 32" xmlns="http://www.w3.org/2000/svg" >
  <g id="Layer_1" transform="translate(0, -0.025)" style="enable-background:new 0 0 512.883 512.883">
    <g transform="matrix(0.0546, 0, 0, 0.0546, 0, 0)">
      <path d="M0, 106.372L0, 493.02C0, 503.613 8.828, 512.441 19.421, 512.441L123.587, 512.441L388.415, 512.441L492.581, 512.441C503.174, 512.441 512.002, 503.613 512.002, 493.02L512.002, 106.372L0, 106.372z" fill="#FFFFFF" fill-opacity="1" class="White" />
    </g>
  </g>
  <g id="Layer_1" transform="translate(0, -0.025)" style="enable-background:new 0 0 512.883 512.883">
    <g transform="matrix(0.0546, 0, 0, 0.0546, 0, 0)">
      <path d="M512, 106.372L0, 106.372L0, 17.214C0, 7.503 7.062, 0.441 16.772, 0.441L496.11, 0.441C504.938, 0.441 512.882, 7.503 512.882, 17.213L512.882, 106.372L512, 106.372z" fill="#1177D7" fill-opacity="1" style="fill:#A8A8A8" />
    </g>
  </g>
  <g id="Layer_1" transform="translate(0, -0.025)" style="enable-background:new 0 0 512.883 512.883">
    <g transform="matrix(0.0546, 0, 0, 0.0546, 0, 0)">
      <path d="M79.448, 53.407C79.448, 68.414 67.972, 79.89 52.965, 79.89C37.958, 79.89 26.483, 68.414 26.483, 53.407C26.483, 38.4 37.959, 26.924 52.966, 26.924C67.973, 26.924 79.448, 38.4 79.448, 53.407" fill="#D11C1C" fill-opacity="1" class="Red" />
    </g>
  </g>
  <g id="Layer_1" transform="translate(0, -0.025)" style="enable-background:new 0 0 512.883 512.883">
    <g transform="matrix(0.0546, 0, 0, 0.0546, 0, 0)">
      <path d="M158.897, 53.407C158.897, 68.414 147.421, 79.89 132.414, 79.89C117.407, 79.89 105.931, 68.414 105.931, 53.407C105.931, 38.4 117.407, 26.924 132.414, 26.924C147.421, 26.924 158.897, 38.4 158.897, 53.407" fill="#FFB115" fill-opacity="1" class="Yellow" />
    </g>
  </g>
  <g id="Layer_1" transform="translate(0, -0.025)" style="enable-background:new 0 0 512.883 512.883">
    <g transform="matrix(0.0546, 0, 0, 0.0546, 0, 0)">
      <path d="M238.345, 53.407C238.345, 68.414 226.869, 79.89 211.862, 79.89C196.855, 79.89 185.379, 68.414 185.379, 53.407C185.379, 38.4 196.855, 26.924 211.862, 26.924C226.869, 26.924 238.345, 38.4 238.345, 53.407" fill="#039C23" fill-opacity="1" class="Green" />
    </g>
  </g>
  <g id="Layer_1" transform="translate(0, -0.025)" style="enable-background:new 0 0 512.883 512.883">
    <g transform="matrix(0.0546, 0, 0, 0.0546, 0, 0)">
      <path d="M158.897, 176.993L44.138, 176.993C38.841, 176.993 35.31, 173.462 35.31, 168.165C35.31, 162.868 38.841, 159.337 44.138, 159.337L158.897, 159.337C164.194, 159.337 167.725, 162.868 167.725, 168.165C167.725, 173.462 164.193, 176.993 158.897, 176.993" fill="#1177D7" fill-opacity="1" class="Blue" />
    </g>
  </g>
  <g id="Layer_1" transform="translate(0, -0.025)" style="enable-background:new 0 0 512.883 512.883">
    <g transform="matrix(0.0546, 0, 0, 0.0546, 0, 0)">
      <path d="M282.483, 176.993L194.207, 176.993C188.91, 176.993 185.379, 173.462 185.379, 168.165C185.379, 162.868 188.91, 159.337 194.207, 159.337L282.483, 159.337C287.78, 159.337 291.311, 162.868 291.311, 168.165C291.311, 173.462 287.779, 176.993 282.483, 176.993" fill="#FFB115" fill-opacity="1" class="Yellow" />
    </g>
  </g>
  <g id="Layer_1" transform="translate(0, -0.025)" style="enable-background:new 0 0 512.883 512.883">
    <g transform="matrix(0.0546, 0, 0, 0.0546, 0, 0)">
      <path d="M335.448, 176.993L317.793, 176.993C312.496, 176.993 308.965, 173.462 308.965, 168.165C308.965, 162.868 312.496, 159.337 317.793, 159.337L335.448, 159.337C340.745, 159.337 344.276, 162.868 344.276, 168.165C344.276, 173.462 340.745, 176.993 335.448, 176.993" fill="#039C23" fill-opacity="1" class="Green" />
    </g>
  </g>
  <g id="Layer_1" transform="translate(0, -0.025)" style="enable-background:new 0 0 512.883 512.883">
    <g transform="matrix(0.0546, 0, 0, 0.0546, 0, 0)">
      <path d="M379.586, 212.303L247.172, 212.303C241.875, 212.303 238.344, 208.772 238.344, 203.475C238.344, 198.178 241.875, 194.647 247.172, 194.647L379.586, 194.647C384.883, 194.647 388.414, 198.178 388.414, 203.475C388.414, 208.772 384.883, 212.303 379.586, 212.303" fill="#1177D7" fill-opacity="1" class="Blue" />
    </g>
  </g>
  <g id="Layer_1" transform="translate(0, -0.025)" style="enable-background:new 0 0 512.883 512.883">
    <g transform="matrix(0.0546, 0, 0, 0.0546, 0, 0)">
      <g>
        <path d="M211.862, 212.303L88.276, 212.303C82.979, 212.303 79.448, 208.772 79.448, 203.475C79.448, 198.178 82.979, 194.647 88.276, 194.647L211.862, 194.647C217.159, 194.647 220.69, 198.178 220.69, 203.475C220.69, 208.772 217.159, 212.303 211.862, 212.303" fill="#D11C1C" fill-opacity="1" class="Red" />
      </g>
    </g>
  </g>
  <g id="Layer_1" transform="translate(0, -0.025)" style="enable-background:new 0 0 512.883 512.883">
    <g transform="matrix(0.0546, 0, 0, 0.0546, 0, 0)">
      <g>
        <path d="M52.966, 212.303L44.138, 212.303C38.841, 212.303 35.31, 208.772 35.31, 203.475C35.31, 198.178 38.841, 194.647 44.138, 194.647L52.966, 194.647C58.263, 194.647 61.794, 198.178 61.794, 203.475C61.794, 208.772 58.262, 212.303 52.966, 212.303" fill="#D11C1C" fill-opacity="1" class="Red" />
      </g>
    </g>
  </g>
  <g id="Layer_1" transform="translate(0, -0.025)" style="enable-background:new 0 0 512.883 512.883">
    <g transform="matrix(0.0546, 0, 0, 0.0546, 0, 0)">
      <path d="M123.586, 247.614L44.138, 247.614C38.841, 247.614 35.31, 244.083 35.31, 238.786C35.31, 233.489 38.841, 229.958 44.138, 229.958L123.586, 229.958C128.883, 229.958 132.414, 233.489 132.414, 238.786C132.414, 244.083 128.883, 247.614 123.586, 247.614" fill="#1177D7" fill-opacity="1" class="Blue" />
    </g>
  </g>
  <g id="Layer_1" transform="translate(0, -0.025)" style="enable-background:new 0 0 512.883 512.883">
    <g transform="matrix(0.0546, 0, 0, 0.0546, 0, 0)">
      <path d="M176.552, 247.614L158.897, 247.614C153.6, 247.614 150.069, 244.083 150.069, 238.786C150.069, 233.489 153.6, 229.958 158.897, 229.958L176.552, 229.958C181.849, 229.958 185.38, 233.489 185.38, 238.786C185.38, 244.083 181.848, 247.614 176.552, 247.614" fill="#FFB115" fill-opacity="1" class="Yellow" />
    </g>
  </g>
  <g id="Layer_1" transform="translate(0, -0.025)" style="enable-background:new 0 0 512.883 512.883">
    <g transform="matrix(0.0546, 0, 0, 0.0546, 0, 0)">
      <path d="M335.448, 247.614L211.862, 247.614C206.565, 247.614 203.034, 244.083 203.034, 238.786C203.034, 233.489 206.565, 229.958 211.862, 229.958L335.448, 229.958C340.745, 229.958 344.276, 233.489 344.276, 238.786C344.276, 244.083 340.745, 247.614 335.448, 247.614" fill="#039C23" fill-opacity="1" class="Green" />
    </g>
  </g>
  <g id="Layer_1" transform="translate(0, -0.025)" style="enable-background:new 0 0 512.883 512.883">
    <g transform="matrix(0.0546, 0, 0, 0.0546, 0, 0)">
      <path d="M158.897, 282.924L44.138, 282.924C38.841, 282.924 35.31, 279.393 35.31, 274.096C35.31, 268.799 38.841, 265.268 44.138, 265.268L158.897, 265.268C164.194, 265.268 167.725, 268.799 167.725, 274.096C167.724, 279.393 164.193, 282.924 158.897, 282.924" fill="#D11C1C" fill-opacity="1" class="Red" />
    </g>
  </g>
  <g id="Layer_1" transform="translate(0, -0.025)" style="enable-background:new 0 0 512.883 512.883">
    <g transform="matrix(0.0546, 0, 0, 0.0546, 0, 0)">
      <path d="M282.483, 282.924L194.207, 282.924C188.91, 282.924 185.379, 279.393 185.379, 274.096C185.379, 268.799 188.91, 265.268 194.207, 265.268L282.483, 265.268C287.78, 265.268 291.311, 268.799 291.311, 274.096C291.31, 279.393 287.779, 282.924 282.483, 282.924" fill="#1177D7" fill-opacity="1" class="Blue" />
    </g>
  </g>
  <g id="Layer_1" transform="translate(0, -0.025)" style="enable-background:new 0 0 512.883 512.883">
    <g transform="matrix(0.0546, 0, 0, 0.0546, 0, 0)">
      <path d="M282.483, 318.234L247.173, 318.234C241.876, 318.234 238.345, 314.703 238.345, 309.406C238.345, 304.109 241.876, 300.578 247.173, 300.578L282.483, 300.578C287.78, 300.578 291.311, 304.109 291.311, 309.406C291.31, 314.703 287.779, 318.234 282.483, 318.234" fill="#FFB115" fill-opacity="1" class="Yellow" />
    </g>
  </g>
  <g id="Layer_1" transform="translate(0, -0.025)" style="enable-background:new 0 0 512.883 512.883">
    <g transform="matrix(0.0546, 0, 0, 0.0546, 0, 0)">
      <path d="M211.862, 318.234L88.276, 318.234C82.979, 318.234 79.448, 314.703 79.448, 309.406C79.448, 304.109 82.979, 300.578 88.276, 300.578L211.862, 300.578C217.159, 300.578 220.69, 304.109 220.69, 309.406C220.69, 314.703 217.159, 318.234 211.862, 318.234" fill="#039C23" fill-opacity="1" class="Green" />
    </g>
  </g>
  <g id="Layer_1" transform="translate(0, -0.025)" style="enable-background:new 0 0 512.883 512.883">
    <g transform="matrix(0.0546, 0, 0, 0.0546, 0, 0)">
      <path d="M52.966, 318.234L44.138, 318.234C38.841, 318.234 35.31, 314.703 35.31, 309.406C35.31, 304.109 38.841, 300.578 44.138, 300.578L52.966, 300.578C58.263, 300.578 61.794, 304.109 61.794, 309.406C61.793, 314.703 58.262, 318.234 52.966, 318.234" fill="#FFB115" fill-opacity="1" class="Yellow" />
    </g>
  </g>
  <g id="Layer_1" transform="translate(0, -0.025)" style="enable-background:new 0 0 512.883 512.883">
    <g transform="matrix(0.0546, 0, 0, 0.0546, 0, 0)">
      <path d="M123.586, 353.545L44.138, 353.545C38.841, 353.545 35.31, 350.014 35.31, 344.717C35.31, 339.42 38.841, 335.889 44.138, 335.889L123.586, 335.889C128.883, 335.889 132.414, 339.42 132.414, 344.717C132.414, 350.014 128.883, 353.545 123.586, 353.545" fill="#D11C1C" fill-opacity="1" class="Red" />
    </g>
  </g>
  <g id="Layer_1" transform="translate(0, -0.025)" style="enable-background:new 0 0 512.883 512.883">
    <g transform="matrix(0.0546, 0, 0, 0.0546, 0, 0)">
      <path d="M176.552, 353.545L158.897, 353.545C153.6, 353.545 150.069, 350.014 150.069, 344.717C150.069, 339.42 153.6, 335.889 158.897, 335.889L176.552, 335.889C181.849, 335.889 185.38, 339.42 185.38, 344.717C185.38, 350.014 181.848, 353.545 176.552, 353.545" fill="#FFB115" fill-opacity="1" class="Yellow" />
    </g>
  </g>
  <g id="Layer_1" transform="translate(0, -0.025)" style="enable-background:new 0 0 512.883 512.883">
    <g transform="matrix(0.0546, 0, 0, 0.0546, 0, 0)">
      <path d="M273.655, 353.545L211.862, 353.545C206.565, 353.545 203.034, 350.014 203.034, 344.717C203.034, 339.42 206.565, 335.889 211.862, 335.889L273.655, 335.889C278.952, 335.889 282.483, 339.42 282.483, 344.717C282.483, 350.014 278.952, 353.545 273.655, 353.545" fill="#1177D7" fill-opacity="1" class="Blue" />
    </g>
  </g>
  <g id="Layer_1" transform="translate(0, -0.025)" style="enable-background:new 0 0 512.883 512.883">
    <g transform="matrix(0.0546, 0, 0, 0.0546, 0, 0)">
      <path d="M158.897, 388.855L44.138, 388.855C38.841, 388.855 35.31, 385.324 35.31, 380.027C35.31, 374.73 38.841, 371.199 44.138, 371.199L158.897, 371.199C164.194, 371.199 167.725, 374.73 167.725, 380.027C167.725, 385.324 164.193, 388.855 158.897, 388.855" fill="#039C23" fill-opacity="1" class="Green" />
    </g>
  </g>
  <g id="Layer_1" transform="translate(0, -0.025)" style="enable-background:new 0 0 512.883 512.883">
    <g transform="matrix(0.0546, 0, 0, 0.0546, 0, 0)">
      <path d="M238.345, 388.855L194.207, 388.855C188.91, 388.855 185.379, 385.324 185.379, 380.027C185.379, 374.73 188.91, 371.199 194.207, 371.199L238.345, 371.199C243.642, 371.199 247.173, 374.73 247.173, 380.027C247.173, 385.324 243.641, 388.855 238.345, 388.855" fill="#FFB115" fill-opacity="1" class="Yellow" />
    </g>
  </g>
  <g id="Layer_1" transform="translate(0, -0.025)" style="enable-background:new 0 0 512.883 512.883">
    <g transform="matrix(0.0546, 0, 0, 0.0546, 0, 0)">
      <path d="M211.862, 424.166L88.276, 424.166C82.979, 424.166 79.448, 420.635 79.448, 415.338C79.448, 410.041 82.979, 406.51 88.276, 406.51L211.862, 406.51C217.159, 406.51 220.69, 410.041 220.69, 415.338C220.69, 420.635 217.159, 424.166 211.862, 424.166" fill="#D11C1C" fill-opacity="1" class="Red" />
    </g>
  </g>
  <g id="Layer_1" transform="translate(0, -0.025)" style="enable-background:new 0 0 512.883 512.883">
    <g transform="matrix(0.0546, 0, 0, 0.0546, 0, 0)">
      <path d="M52.966, 424.166L44.138, 424.166C38.841, 424.166 35.31, 420.635 35.31, 415.338C35.31, 410.041 38.841, 406.51 44.138, 406.51L52.966, 406.51C58.263, 406.51 61.794, 410.041 61.794, 415.338C61.794, 420.635 58.262, 424.166 52.966, 424.166" fill="#1177D7" fill-opacity="1" class="Blue" />
    </g>
  </g>
  <g id="Layer_1" transform="translate(0, -0.025)" style="enable-background:new 0 0 512.883 512.883">
    <g transform="matrix(0.0546, 0, 0, 0.0546, 0, 0)">
      <path d="M123.586, 459.476L44.138, 459.476C38.841, 459.476 35.31, 455.945 35.31, 450.648C35.31, 445.351 38.841, 441.82 44.138, 441.82L123.586, 441.82C128.883, 441.82 132.414, 445.351 132.414, 450.648C132.414, 455.945 128.883, 459.476 123.586, 459.476" fill="#039C23" fill-opacity="1" class="Green" />
    </g>
  </g>
  <g id="Layer_1" transform="translate(0, -0.025)" style="enable-background:new 0 0 512.883 512.883">
    <g transform="matrix(0.0546, 0, 0, 0.0546, 0, 0)">
      <path d="M176.552, 459.476L158.897, 459.476C153.6, 459.476 150.069, 455.945 150.069, 450.648C150.069, 445.351 153.6, 441.82 158.897, 441.82L176.552, 441.82C181.849, 441.82 185.38, 445.351 185.38, 450.648C185.38, 455.945 181.848, 459.476 176.552, 459.476" fill="#FFB115" fill-opacity="1" class="Yellow" />
    </g>
  </g>
  <g id="Layer_1" transform="translate(0, -0.025)" style="enable-background:new 0 0 512.883 512.883">
    <g transform="matrix(0.0546, 0, 0, 0.0546, 0, 0)">
      <path d="M256, 459.476L211.862, 459.476C206.565, 459.476 203.034, 455.945 203.034, 450.648C203.034, 445.351 206.565, 441.82 211.862, 441.82L256, 441.82C261.297, 441.82 264.828, 445.351 264.828, 450.648C264.828, 455.945 261.297, 459.476 256, 459.476" fill="#1177D7" fill-opacity="1" class="Blue" />
    </g>
  </g>
  <g id="Layer_1" transform="translate(0, -0.025)" style="enable-background:new 0 0 512.883 512.883">
    <g transform="matrix(0.0546, 0, 0, 0.0546, 0, 0)">
      <path d="M500.524, 488.607L440.496, 428.579L497.875, 400.331L342.51, 342.952L399.889, 498.318L428.137, 440.939L488.165, 500.967C489.931, 502.733 492.579, 503.615 494.344, 503.615C496.11, 503.615 498.758, 502.732 500.523, 500.967C504.055, 497.434 504.055, 492.138 500.524, 488.607" fill="Transparent" fill-opacity="1" class="Transparent" />
    </g>
  </g>
  <g id="Layer_1" transform="translate(14, 17.975)" style="enable-background:new 0 0 16 16">
    <g>
      <path d="M8, 14C4.7, 14 2, 13.1 2, 12L2, 14C2, 15.1 4.7, 16 8, 16C11.3, 16 14, 15.1 14, 14L14, 12C14, 13.1 11.3, 14 8, 14z" fill="Transparent" class="Transparent" />
    </g>
  </g>
  <g id="Layer_1" transform="translate(14, 17.975)" style="enable-background:new 0 0 16 16">
    <g>
      <path d="M8, 10C4.7, 10 2, 9.1 2, 8L2, 10C2, 11.1 4.7, 12 8, 12C11.3, 12 14, 11.1 14, 10L14, 8C14, 9.1 11.3, 10 8, 10z" fill="#1177D7" class="Blue" />
    </g>
  </g>
  <g id="Layer_1" transform="translate(14, 17.975)" style="enable-background:new 0 0 16 16">
    <g>
      <path d="M8, 0C4.7, 0 2, 0.9 2, 2L2, 6C2, 7.1 4.7, 8 8, 8C11.3, 8 14, 7.1 14, 6L14, 2C14, 0.9 11.3, 0 8, 0z" fill="#D11C1C" class="Red" />
    </g>
  </g>
  <g id="Layer_1" transform="translate(14, 17.975)" style="enable-background:new 0 0 16 16">
    <g>
      <path d="M8, 12C4.7, 12 2, 11.1 2, 10L2, 12C2, 13.1 4.7, 14 8, 14C11.3, 14 14, 13.1 14, 12L14, 10C14, 11.1 11.3, 12 8, 12z" fill="Transparent" class="Transparent" />
    </g>
  </g>
  <g id="Layer_1" transform="translate(14, 17.975)" style="enable-background:new 0 0 16 16">
    <g>
      <path d="M8, 8C4.7, 8 2, 7.1 2, 6L2, 8C2, 9.1 4.7, 10 8, 10C11.3, 10 14, 9.1 14, 8L14, 6C14, 7.1 11.3, 8 8, 8z" fill="#FFB115" class="Yellow" />
    </g>
  </g>
</svg>