<?xml version='1.0' encoding='UTF-8'?>
<svg viewBox="-4.8 -2 32 32" xmlns="http://www.w3.org/2000/svg" >
  <g transform="translate(-5.60000009536743, -2.80000019073486)">
    <g transform="matrix(0.699999809265137, 0, 0, 0.699999809265137, 0, 0)">
      <rect x="16" y="15" width="16" height="18" rx="0" ry="0" fill="#BF360C" />
    </g>
  </g>
  <g transform="translate(-5.6, -2.80000228881836)">
    <g transform="matrix(0.699999809265137, 0, 0, 0.699999809265137, 0, 0)">
      <path d="M40, 44L8, 44C8, 33 19, 31 19, 31L29, 31C29, 31 40, 33 40, 44z" fill="#78909C" />
    </g>
  </g>
  <g transform="translate(-5.60000066757202, -2.80000114440918)">
    <g transform="matrix(0.699999809265137, 0, 0, 0.699999809265137, 0, 0)">
      <path d="M24, 37C21.8, 37 19, 31 19, 31L19, 25L29, 25L29, 31C29, 31 26.2, 37 24, 37z" fill="#FF9800" />
    </g>
  </g>
  <g transform="translate(-5.60000085830688, -2.80000015258789)">
    <g transform="matrix(0.699999809265137, 0, 0, 0.699999809265137, 0, 0)">
      <path d="M33, 14C33, 6.4 15, 9 15, 14C15, 15.1 15, 19.9 15, 21C15, 26 19, 30 24, 30C29, 30 33, 26 33, 21C33, 19.9 33, 15.1 33, 14z" fill="#FFB74D" />
    </g>
  </g>
  <g transform="translate(-5.60000019073486, -2.8)">
    <g transform="matrix(0.699999809265137, 0, 0, 0.699999809265137, 0, 0)">
      <path d="M24, 4C17.9, 4 9, 7.4 9, 27.3L16, 32L16, 19L28, 12L32, 17L32, 32L39, 26C39, 22 38.3, 6 28, 6L27, 4L24, 4z" fill="#FF5722" />
    </g>
  </g>
  <g transform="translate(-5.60000066757202, -2.80000228881836)">
    <g transform="matrix(0.699999809265137, 0, 0, 0.699999809265137, 0, 0)">
      <path d="M24, 38C19.6, 38 19, 31 19, 31C19, 31 21.5, 35 24, 35C26.5, 35 29, 31 29, 31C29, 31 28.4, 38 24, 38z" fill="#FFB74D" />
    </g>
  </g>
  <g transform="translate(-5.60000076293945, -2.80000114440918)">
    <g transform="matrix(0.699999809265137, 0, 0, 0.699999809265137, 0, 0)">
      <circle cx="28" cy="21" r="1" fill="#784719" />
    </g>
  </g>
  <g transform="translate(-5.60000066757202, -2.80000114440918)">
    <g transform="matrix(0.699999809265137, 0, 0, 0.699999809265137, 0, 0)">
      <circle cx="20" cy="21" r="1" fill="#784719" />
    </g>
  </g>
</svg>
