<?xml version='1.0' encoding='UTF-8'?>
<svg viewBox="-2 -2 32 32" xmlns="http://www.w3.org/2000/svg" >
  <g id="Layer_1" transform="translate(-8.4, -8.4)">
    <g transform="matrix(1.4, 0, 0, 1.4, 0, 0)">
      <path d="M19.1, 16L25.7, 9.4C26.1, 9 26.1, 8.4 25.7, 8L24, 6.3C23.6, 5.9 23, 5.9 22.6, 6.3L16, 12.9L9.4, 6.3C9, 5.9 8.4, 5.9 8, 6.3L6.3, 8C5.9, 8.4 5.9, 9 6.3, 9.4L12.9, 16L6.3, 22.6C5.9, 23 5.9, 23.6 6.3, 24L8, 25.7C8.4, 26.1 9, 26.1 9.4, 25.7L16, 19.1L22.6, 25.7C23, 26.1 23.6, 26.1 24, 25.7L25.7, 24C26.1, 23.6 26.1, 23 25.7, 22.6L19.1, 16z" />
    </g>
  </g>
</svg>