<?xml version='1.0' encoding='UTF-8'?>
<svg viewBox="-2 -2 32 32" xmlns="http://www.w3.org/2000/svg" >
  <g transform="translate(0, 0)">
    <g id="Layer_1" transform="translate(0, 0)" style="enable-background:new 0 0 32 32">
      <g transform="matrix(0.933333694934845, 0, 0, 0.933333694934845, 0, 0)">
        <g id="EditColors">
          <path d="M29, 0L1, 0C0.5, 0 0, 0.5 0, 1L0, 29C0, 29.5 0.5, 30 1, 30L29, 30C29.5, 30 30, 29.5 30, 29L30, 1C30, 0.5 29.5, 0 29, 0zM28, 28L2, 28L2, 2L28, 2L28, 28z" fill="#727272" class="Black" />
        </g>
      </g>
    </g>
  </g>
  <g transform="translate(-2.93731687861509E-08, -2.93731687861509E-08)">
    <g id="Layer_1" transform="translate(-2.67791747887713E-07, -2.67791747887713E-07)" style="enable-background:new 0 0 32 32">
      <g transform="matrix(0.933333694934845, 0, 0, 0.933333694934845, 0, 0)">
        <g id="EditColors">
          <path d="M10, 10L4, 10L4, 4L10, 4L10, 10zM18, 4L12, 4L12, 10L18, 10L18, 4zM10, 12L4, 12L4, 18L10, 18L10, 12z" fill="#EBD10E" />
        </g>
      </g>
    </g>
  </g>
  <g transform="translate(-2.93731687861509E-08, -1.14440917897696E-06)">
    <g id="Layer_1" transform="translate(-2.67791747887713E-07, -1.90734862570707E-07)" style="enable-background:new 0 0 32 32">
      <g transform="matrix(0.933333694934845, 0, 0, 0.933333694934845, 0, 0)">
        <g id="EditColors">
          <path d="M10, 26L4, 26L4, 20L10, 20L10, 26zM18, 12L12, 12L12, 18L18, 18L18, 12z" fill="#294A30" />
        </g>
      </g>
    </g>
  </g>
  <g transform="translate(3.63159180949424E-07, -2.93731687861509E-08)">
    <g id="Layer_1" transform="translate(3.63159180949424E-07, -2.67791747887713E-07)" style="enable-background:new 0 0 32 32">
      <g transform="matrix(0.933333694934845, 0, 0, 0.933333694934845, 0, 0)">
        <g id="EditColors">
          <path d="M26, 10L20, 10L20, 4L26, 4L26, 10zM26, 12L20, 12L20, 18L26, 18L26, 12z" fill="#D11C1C" class="Red" />
        </g>
      </g>
    </g>
  </g>
  <g transform="translate(-1.14440917897696E-06, 3.63159180949424E-07)">
    <g id="Layer_1" transform="translate(-1.90734862570707E-07, 3.63159180949424E-07)" style="enable-background:new 0 0 32 32">
      <g transform="matrix(0.933333694934845, 0, 0, 0.933333694934845, 0, 0)">
        <g id="EditColors">
          <path d="M26, 26L20, 26L20, 20L26, 20L26, 26zM18, 20L12, 20L12, 26L18, 26L18, 20z" fill="#1177D7" class="Blue" />
        </g>
      </g>
    </g>
  </g>
  <g transform="translate(-2.93731687861509E-08, -1.14440917897696E-06)">
    <g id="Layer_1" transform="translate(-2.67791747887713E-07, -1.90734862570707E-07)" style="enable-background:new 0 0 32 32">
      <g transform="matrix(0.933333694934845, 0, 0, 0.933333694934845, 0, 0)">
        <g id="EditColors">
          <g class="st1">
            <rect x="4" y="12" width="6" height="6" rx="0" ry="0" fill="#039C23" class="Green" />
          </g>
        </g>
      </g>
    </g>
  </g>
  <g transform="translate(-1.14440917897696E-06, -2.93731687861509E-08)">
    <g id="Layer_1" transform="translate(-1.90734862570707E-07, -2.67791747887713E-07)" style="enable-background:new 0 0 32 32">
      <g transform="matrix(0.933333694934845, 0, 0, 0.933333694934845, 0, 0)">
        <g id="EditColors">
          <g class="st1">
            <path d="M18, 10L12, 10L12, 4L18, 4L18, 10zM26, 20L20, 20L20, 26L26, 26L26, 20z" fill="#F08F07" />
          </g>
        </g>
      </g>
    </g>
  </g>
  <g transform="translate(-1.14440917897696E-06, -1.14440917897696E-06)">
    <g id="Layer_1" transform="translate(-1.90734862570707E-07, -1.90734862570707E-07)" style="enable-background:new 0 0 32 32">
      <g transform="matrix(0.933333694934845, 0, 0, 0.933333694934845, 0, 0)">
        <g id="EditColors">
          <g class="st1">
            <path d="M26, 18L20, 18L20, 12L26, 12L26, 18zM18, 12L12, 12L12, 18L18, 18L18, 12z" fill="#5A2C8F" />
          </g>
        </g>
      </g>
    </g>
  </g>
  <g transform="translate(3.63159180949424E-07, 3.63159180949424E-07)">
    <g id="Layer_1" transform="translate(3.63159180949424E-07, 3.63159180949424E-07)" style="enable-background:new 0 0 32 32">
      <g transform="matrix(0.933333694934845, 0, 0, 0.933333694934845, 0, 0)">
        <g id="EditColors">
          <g class="st1">
            <rect x="20" y="20" width="6" height="6" rx="0" ry="0" fill="#031E38" />
          </g>
        </g>
      </g>
    </g>
  </g>
</svg>