<?xml version='1.0' encoding='UTF-8'?>
<svg viewBox="-2 -2 32 32" xmlns="http://www.w3.org/2000/svg" >
  <g id="Layer_1" transform="translate(0, 0)" style="enable-background:new 0 0 496.8 496.8">
    <g transform="matrix(0.875, 0, 0, 0.875, 0, 0)">
      <g transform="matrix(1.142, 0, 0, 1.142, 0, 0)">
        <g transform="matrix(0.0564, 0, 0, 0.0564, 0, 0)">
          <path d="M152, 484C152, 490.4 146.4, 496 140, 496L140, 496C133.6, 496 128, 490.4 128, 484L128, 12C128, 5.6 133.6, 0 140, 0L140, 0C146.4, 0 152, 5.6 152, 12L152, 484z" fill="#FFB115" fill-opacity="1" class="Yellow" />
        </g>
      </g>
    </g>
  </g>
  <g id="Layer_1" transform="translate(0, 0)" style="enable-background:new 0 0 496.8 496.8">
    <g transform="matrix(0.875, 0, 0, 0.875, 0, 0)">
      <g transform="matrix(1.142, 0, 0, 1.142, 0, 0)">
        <g transform="matrix(0.0564, 0, 0, 0.0564, 0, 0)">
          <path d="M138.4, 0L138.4, 0C145.6, 0 152, 5.6 152, 12.8L152, 484C152, 491.2 145.6, 496.8 139.2, 496.8L139.2, 496.8" fill="#FFB115" fill-opacity="1" class="Yellow" />
        </g>
      </g>
    </g>
  </g>
  <g id="Layer_1" transform="translate(0, 0)" style="enable-background:new 0 0 496.8 496.8">
    <g transform="matrix(0.875, 0, 0, 0.875, 0, 0)">
      <g transform="matrix(1.142, 0, 0, 1.142, 0, 0)">
        <g transform="matrix(0.0564, 0, 0, 0.0564, 0, 0)">
          <path d="M208, 484C208, 490.4 202.4, 496 196, 496L196, 496C189.6, 496 184, 490.4 184, 484L184, 12C184, 5.6 189.6, 0 196, 0L196, 0C202.4, 0 208, 5.6 208, 12L208, 484z" fill="#FFB115" fill-opacity="1" class="Yellow" />
        </g>
      </g>
    </g>
  </g>
  <g id="Layer_1" transform="translate(0, 0)" style="enable-background:new 0 0 496.8 496.8">
    <g transform="matrix(0.875, 0, 0, 0.875, 0, 0)">
      <g transform="matrix(1.142, 0, 0, 1.142, 0, 0)">
        <g transform="matrix(0.0564, 0, 0, 0.0564, 0, 0)">
          <path d="M194.4, 0L194.4, 0C200.8, 0 208, 5.6 208, 12.8L208, 484C208, 491.2 201.6, 496.8 194.4, 496.8L194.4, 496.8" fill="#FFB115" fill-opacity="1" class="Yellow" />
        </g>
      </g>
    </g>
  </g>
  <g id="Layer_1" transform="translate(0, 0)" style="enable-background:new 0 0 496.8 496.8">
    <g transform="matrix(0.875, 0, 0, 0.875, 0, 0)">
      <g transform="matrix(1.142, 0, 0, 1.142, 0, 0)">
        <g transform="matrix(0.0564, 0, 0, 0.0564, 0, 0)">
          <path d="M312, 484C312, 490.4 306.4, 496 300, 496L300, 496C293.6, 496 288, 490.4 288, 484L288, 12C288, 5.6 293.6, 0 300, 0L300, 0C306.4, 0 312, 5.6 312, 12L312, 484z" fill="#FFB115" fill-opacity="1" class="Yellow" />
        </g>
      </g>
    </g>
  </g>
  <g id="Layer_1" transform="translate(0, 0)" style="enable-background:new 0 0 496.8 496.8">
    <g transform="matrix(0.875, 0, 0, 0.875, 0, 0)">
      <g transform="matrix(1.142, 0, 0, 1.142, 0, 0)">
        <g transform="matrix(0.0564, 0, 0, 0.0564, 0, 0)">
          <path d="M301.6, 0L301.6, 0C308, 0 312, 5.6 312, 12.8L312, 484C312, 491.2 307.2, 496.8 300, 496.8L300, 496.8" fill="#FFB115" fill-opacity="1" class="Yellow" />
        </g>
      </g>
    </g>
  </g>
  <g id="Layer_1" transform="translate(0, 0)" style="enable-background:new 0 0 496.8 496.8">
    <g transform="matrix(0.875, 0, 0, 0.875, 0, 0)">
      <g transform="matrix(1.142, 0, 0, 1.142, 0, 0)">
        <g transform="matrix(0.0564, 0, 0, 0.0564, 0, 0)">
          <path d="M368, 484C368, 490.4 362.4, 496 356, 496L356, 496C349.6, 496 344, 490.4 344, 484L344, 12C344, 5.6 349.6, 0 356, 0L356, 0C362.4, 0 368, 5.6 368, 12L368, 484z" fill="#FFB115" fill-opacity="1" class="Yellow" />
        </g>
      </g>
    </g>
  </g>
  <g id="Layer_1" transform="translate(0, 0)" style="enable-background:new 0 0 496.8 496.8">
    <g transform="matrix(0.875, 0, 0, 0.875, 0, 0)">
      <g transform="matrix(1.142, 0, 0, 1.142, 0, 0)">
        <g transform="matrix(0.0564, 0, 0, 0.0564, 0, 0)">
          <path d="M356.8, 0L356.8, 0C364, 0 368, 5.6 368, 12.8L368, 484C368, 491.2 363.2, 496.8 356, 496.8L356, 496.8" fill="#FFB115" fill-opacity="1" class="Yellow" />
        </g>
      </g>
    </g>
  </g>
  <g id="Layer_1" transform="translate(0, 0)" style="enable-background:new 0 0 496.8 496.8">
    <g transform="matrix(0.875, 0, 0, 0.875, 0, 0)">
      <g transform="matrix(1.142, 0, 0, 1.142, 0, 0)">
        <g transform="matrix(0.0564, 0, 0, 0.0564, 0, 0)">
          <path d="M260, 484C260, 490.4 254.4, 496 248, 496L248, 496C241.6, 496 236, 490.4 236, 484L236, 12C236, 5.6 241.6, 0 248, 0L248, 0C254.4, 0 260, 5.6 260, 12L260, 484z" fill="#FFB115" fill-opacity="1" class="Yellow" />
        </g>
      </g>
    </g>
  </g>
  <g id="Layer_1" transform="translate(0, 0)" style="enable-background:new 0 0 496.8 496.8">
    <g transform="matrix(0.875, 0, 0, 0.875, 0, 0)">
      <g transform="matrix(1.142, 0, 0, 1.142, 0, 0)">
        <g transform="matrix(0.0564, 0, 0, 0.0564, 0, 0)">
          <path d="M248.8, 0L248.8, 0C256, 0 260, 5.6 260, 12.8L260, 484C260, 491.2 255.2, 496.8 248, 496.8L248, 496.8" fill="#FFB115" fill-opacity="1" class="Yellow" />
        </g>
      </g>
    </g>
  </g>
  <g id="Layer_1" transform="translate(0, 0)" style="enable-background:new 0 0 496.8 496.8">
    <g transform="matrix(0.875, 0, 0, 0.875, 0, 0)">
      <g transform="matrix(1.142, 0, 0, 1.142, 0, 0)">
        <g transform="matrix(0.0564, 0, 0, 0.0564, 0, 0)">
          <path d="M12.8, 152C5.6, 152 0, 147.2 0, 140L0, 140C0, 132.8 5.6, 128 12.8, 128L484, 128C491.2, 128 496.8, 132.8 496.8, 140L496.8, 140C496.8, 147.2 491.2, 152 484, 152L12.8, 152z" fill="#FFB115" fill-opacity="1" class="Yellow" />
        </g>
      </g>
    </g>
  </g>
  <g id="Layer_1" transform="translate(0, 0)" style="enable-background:new 0 0 496.8 496.8">
    <g transform="matrix(0.875, 0, 0, 0.875, 0, 0)">
      <g transform="matrix(1.142, 0, 0, 1.142, 0, 0)">
        <g transform="matrix(0.0564, 0, 0, 0.0564, 0, 0)">
          <path d="M496, 138.4L496, 138.4C496, 145.6 490.4, 152 483.2, 152L12.8, 152C5.6, 152 0, 145.6 0, 139.2L0, 139.2" fill="#FFB115" fill-opacity="1" class="Yellow" />
        </g>
      </g>
    </g>
  </g>
  <g id="Layer_1" transform="translate(0, 0)" style="enable-background:new 0 0 496.8 496.8">
    <g transform="matrix(0.875, 0, 0, 0.875, 0, 0)">
      <g transform="matrix(1.142, 0, 0, 1.142, 0, 0)">
        <g transform="matrix(0.0564, 0, 0, 0.0564, 0, 0)">
          <path d="M496, 196C496, 202.4 490.4, 208 484, 208L12, 208C5.6, 208 0, 202.4 0, 196L0, 196C0, 189.6 5.6, 184 12, 184L484, 184C490.4, 184 496, 189.6 496, 196L496, 196z" fill="#FFB115" fill-opacity="1" class="Yellow" />
        </g>
      </g>
    </g>
  </g>
  <g id="Layer_1" transform="translate(0, 0)" style="enable-background:new 0 0 496.8 496.8">
    <g transform="matrix(0.875, 0, 0, 0.875, 0, 0)">
      <g transform="matrix(1.142, 0, 0, 1.142, 0, 0)">
        <g transform="matrix(0.0564, 0, 0, 0.0564, 0, 0)">
          <path d="M496, 194.4L496, 194.4C496, 201.6 490.4, 208 483.2, 208L12.8, 208C5.6, 208 0, 201.6 0, 194.4L0, 194.4" fill="#FFB115" fill-opacity="1" class="Yellow" />
        </g>
      </g>
    </g>
  </g>
  <g id="Layer_1" transform="translate(0, 0)" style="enable-background:new 0 0 496.8 496.8">
    <g transform="matrix(0.875, 0, 0, 0.875, 0, 0)">
      <g transform="matrix(1.142, 0, 0, 1.142, 0, 0)">
        <g transform="matrix(0.0564, 0, 0, 0.0564, 0, 0)">
          <path d="M496, 300C496, 306.4 490.4, 312 484, 312L12, 312C5.6, 312 0, 306.4 0, 300L0, 300C0, 293.6 5.6, 288 12, 288L484, 288C490.4, 288 496, 293.6 496, 300L496, 300z" fill="#FFB115" fill-opacity="1" class="Yellow" />
        </g>
      </g>
    </g>
  </g>
  <g id="Layer_1" transform="translate(0, 0)" style="enable-background:new 0 0 496.8 496.8">
    <g transform="matrix(0.875, 0, 0, 0.875, 0, 0)">
      <g transform="matrix(1.142, 0, 0, 1.142, 0, 0)">
        <g transform="matrix(0.0564, 0, 0, 0.0564, 0, 0)">
          <path d="M496, 301.6L496, 301.6C496, 308.8 490.4, 312 483.2, 312L12.8, 312C5.6, 312 0, 307.2 0, 300L0, 300" fill="#FFB115" fill-opacity="1" class="Yellow" />
        </g>
      </g>
    </g>
  </g>
  <g id="Layer_1" transform="translate(0, 0)" style="enable-background:new 0 0 496.8 496.8">
    <g transform="matrix(0.875, 0, 0, 0.875, 0, 0)">
      <g transform="matrix(1.142, 0, 0, 1.142, 0, 0)">
        <g transform="matrix(0.0564, 0, 0, 0.0564, 0, 0)">
          <path d="M496, 252C496, 258.4 490.4, 264 484, 264L12, 264C5.6, 264 0, 258.4 0, 252L0, 252C0, 245.6 5.6, 240 12, 240L484, 240C490.4, 240 496, 245.6 496, 252L496, 252z" fill="#FFB115" fill-opacity="1" class="Yellow" />
        </g>
      </g>
    </g>
  </g>
  <g id="Layer_1" transform="translate(0, 0)" style="enable-background:new 0 0 496.8 496.8">
    <g transform="matrix(0.875, 0, 0, 0.875, 0, 0)">
      <g transform="matrix(1.142, 0, 0, 1.142, 0, 0)">
        <g transform="matrix(0.0564, 0, 0, 0.0564, 0, 0)">
          <path d="M496, 253.6L496, 253.6C496, 260.8 490.4, 264 483.2, 264L12.8, 264C5.6, 264 0, 259.2 0, 252L0, 252" fill="#FFB115" fill-opacity="1" class="Yellow" />
        </g>
      </g>
    </g>
  </g>
  <g id="Layer_1" transform="translate(0, 0)" style="enable-background:new 0 0 496.8 496.8">
    <g transform="matrix(0.875, 0, 0, 0.875, 0, 0)">
      <g transform="matrix(1.142, 0, 0, 1.142, 0, 0)">
        <g transform="matrix(0.0564, 0, 0, 0.0564, 0, 0)">
          <path d="M12.8, 368C5.6, 368 0, 363.2 0, 356L0, 356C0, 348.8 5.6, 344 12.8, 344L484, 344C491.2, 344 496.8, 348.8 496.8, 356L496.8, 356C496.8, 363.2 491.2, 368 484, 368L12.8, 368z" fill="#FFB115" fill-opacity="1" class="Yellow" />
        </g>
      </g>
    </g>
  </g>
  <g id="Layer_1" transform="translate(0, 0)" style="enable-background:new 0 0 496.8 496.8">
    <g transform="matrix(0.875, 0, 0, 0.875, 0, 0)">
      <g transform="matrix(1.142, 0, 0, 1.142, 0, 0)">
        <g transform="matrix(0.0564, 0, 0, 0.0564, 0, 0)">
          <path d="M496, 356.8L496, 356.8C496, 364 490.4, 368 483.2, 368L12.8, 368C5.6, 368 0, 363.2 0, 356L0, 356" fill="#FFB115" fill-opacity="1" class="Yellow" />
        </g>
      </g>
    </g>
  </g>
  <g id="Layer_1" transform="translate(0, 0)" style="enable-background:new 0 0 496.8 496.8">
    <g transform="matrix(0.875, 0, 0, 0.875, 0, 0)">
      <g transform="matrix(1.142, 0, 0, 1.142, 0, 0)">
        <g transform="matrix(0.0564, 0, 0, 0.0564, 0, 0)">
          <path d="M408, 381.6C408, 396 396, 408 381.6, 408L122.4, 408C108, 408 96, 396 96, 381.6L96, 122.4C96, 108 108, 96 122.4, 96L381.6, 96C396, 96 408, 108 408, 122.4L408, 381.6z" fill="#727272" fill-opacity="1" class="Black" />
        </g>
      </g>
    </g>
  </g>
  <g id="Layer_1" transform="translate(0, 0)" style="enable-background:new 0 0 496.8 496.8">
    <g transform="matrix(0.875, 0, 0, 0.875, 0, 0)">
      <g transform="matrix(1.142, 0, 0, 1.142, 0, 0)">
        <g transform="matrix(0.0564, 0, 0, 0.0564, 0, 0)">
          <path d="M96, 122.4C96, 108 108, 96 122.4, 96L381.6, 96C396, 96 408, 108 408, 122.4L408, 381.6C408, 396 396, 408 381.6, 408" fill="#727272" fill-opacity="1" class="Black" />
        </g>
      </g>
    </g>
  </g>
  <g id="Layer_1" transform="translate(0, 0)" style="enable-background:new 0 0 496.8 496.8">
    <g transform="matrix(0.875, 0, 0, 0.875, 0, 0)">
      <g transform="matrix(1.142, 0, 0, 1.142, 0, 0)">
        <g transform="matrix(0.0564, 0, 0, 0.0564, 0, 0)">
          <path d="M352, 335.2C352, 344.8 344.8, 352 335.2, 352L168.8, 352C159.2, 352 152, 344.8 152, 335.2L152, 168.8C152, 159.2 159.2, 152 168.8, 152L335.2, 152C344.8, 152 352, 159.2 352, 168.8L352, 335.2z" fill="#1177D7" fill-opacity="1" class="Blue" />
        </g>
      </g>
    </g>
  </g>
  <g id="Layer_1" transform="translate(0, 0)" style="enable-background:new 0 0 496.8 496.8">
    <g transform="matrix(0.875, 0, 0, 0.875, 0, 0)">
      <g transform="matrix(1.142, 0, 0, 1.142, 0, 0)">
        <g transform="matrix(0.0564, 0, 0, 0.0564, 0, 0)">
          <path d="M152, 168.8C152, 159.2 159.2, 152 168.8, 152L335.2, 152C344.8, 152 352, 159.2 352, 168.8L352, 335.2C352, 344.8 344.8, 352 335.2, 352" fill="#1177D7" fill-opacity="1" class="Blue" />
        </g>
      </g>
    </g>
  </g>
  <g id="Layer_1" transform="translate(0, 0)" style="enable-background:new 0 0 496.8 496.8">
    <g transform="matrix(0.875, 0, 0, 0.875, 0, 0)">
      <g transform="matrix(1.142, 0, 0, 1.142, 0, 0)">
        <g transform="matrix(0.0564, 0, 0, 0.0564, 0, 0)">
          <path d="M317.6, 256L312, 256L312, 197.6C312, 195.2 307.2, 192 304.8, 192L291.2, 192C289.6, 192 288.8, 193.6 288, 194.4L248, 252C244.8, 236 232.8, 226.4 216, 226.4C210.4, 226.4 204.8, 228 200, 230.4C204.8, 220 214.4, 212.8 226.4, 211.2C229.6, 210.4 232.8, 210.4 235.2, 210.4C236, 210.4 237.6, 210.4 238.4, 209.6C239.2, 208.8 240, 208 240, 206.4L240, 196C240, 193.6 237.6, 192 236, 192C232.8, 192 229.6, 192 225.6, 192.8C212.8, 194.4 201.6, 200 192.8, 208C181.6, 219.2 175.2, 235.2 175.2, 253.6C175.2, 280 190.4, 298.4 212.8, 298.4C232, 298.4 243.2, 286.4 247.2, 271.2L248, 272L288, 272L288, 292.8C288, 295.2 290.4, 296 292.8, 296L304.8, 296C307.2, 296 312, 295.2 312, 292.8L312, 272L318.4, 272C320.8, 272 320, 268.8 320, 267.2L320, 258.4C320, 256 319.2, 256 317.6, 256zM268.8, 256L288, 227.2C288, 226.4 288, 224.8 288, 224L288, 224L288, 256L268.8, 256zM228, 261.6C228, 272.8 222.4, 280.8 213.6, 280.8C198.4, 280.8 196.8, 262.4 196.8, 257.6C196.8, 256 196.8, 255.2 197.6, 253.6C200.8, 248 206.4, 244 212.8, 244C222.4, 243.2 228, 250.4 228, 261.6z" fill="#FFB115" fill-opacity="1" class="Yellow" />
        </g>
      </g>
    </g>
  </g>
  <g id="Layer_1" transform="translate(0, 0)" style="enable-background:new 0 0 496.8 496.8">
    <g transform="matrix(0.875, 0, 0, 0.875, 0, 0)">
      <g transform="matrix(1.142, 0, 0, 1.142, 0, 0)">
        <g transform="matrix(0.0564, 0, 0, 0.0564, 0, 0)">
          <g>
            <path d="M317.6, 256L312, 256L312, 197.6C312, 195.2 307.2, 192 304.8, 192L291.2, 192C289.6, 192 288.8, 193.6 288, 194.4L248, 252C244.8, 236 232.8, 226.4 216, 226.4C213.6, 226.4 212, 227.2 209.6, 228L253.6, 272.8L288, 272.8L288, 293.6C288, 296 290.4, 296.8 292.8, 296.8L307.2, 296.8C309.6, 296.8 312, 296 312, 293.6L312, 272L318.4, 272C320.8, 272 320, 268.8 320, 267.2L320, 258.4C320, 256 319.2, 256 317.6, 256zM288, 224.8L288, 256L268.8, 256L288, 227.2L288, 224.8L288, 224.8z" fill="#FFB115" fill-opacity="1" class="Yellow" />
          </g>
        </g>
      </g>
    </g>
  </g>
  <g id="Layer_1" transform="translate(0, 0)" style="enable-background:new 0 0 496.8 496.8">
    <g transform="matrix(0.875, 0, 0, 0.875, 0, 0)">
      <g transform="matrix(1.142, 0, 0, 1.142, 0, 0)">
        <g transform="matrix(0.0564, 0, 0, 0.0564, 0, 0)">
          <g>
            <path d="M235.2, 210.4C236, 210.4 237.6, 210.4 238.4, 209.6C239.2, 208.8 240, 208 240, 206.4L240, 196C240, 193.6 237.6, 192 236, 192C232.8, 192 229.6, 192 225.6, 192.8C212.8, 194.4 201.6, 200 192.8, 208L192, 208.8L205.6, 222.4C211.2, 216.8 218.4, 212.8 226.4, 211.2C229.6, 210.4 232.8, 210.4 235.2, 210.4z" fill="#FFB115" fill-opacity="1" class="Yellow" />
          </g>
        </g>
      </g>
    </g>
  </g>
</svg>