<?xml version='1.0' encoding='UTF-8'?>
<svg viewBox="-2.0001 -2.3558 32 32" xmlns="http://www.w3.org/2000/svg" >
  <g transform="translate(-11.9711, -12.3268)">
    <g transform="matrix(0.2029, 0, 0, 0.2029, 0, 0)">
      <g>
        <path d="M21.995, 11.758L12.501, 22.164L21.995, 22.164zM9.936, 9.023L9.936, 20.296L20.22, 9.023zM6.648, 0L9.936, 0L9.936, 6.036L22.943, 6.036L28.281, 0.186L30.814, 2.093L25.285, 8.153L25.285, 22.164L32, 22.164L32, 25.151L25.351, 25.151L25.351, 31.187L22.065, 31.187L22.065, 25.151L6.648, 25.151L6.648, 9.023L0, 9.023L0, 6.036L6.648, 6.036z" fill="#727272" fill-opacity="1" id="path1" class="Black" transform="rotate(0, 128, 128) translate(59, 60.753) scale(4.3125)" />
      </g>
    </g>
  </g>
</svg>