<?xml version='1.0' encoding='UTF-8'?>
<svg viewBox="-2.0025 -2.0025 32 32" xmlns="http://www.w3.org/2000/svg" >
  <g transform="translate(-0.0021, -0.0021)">
    <g transform="matrix(0.0546875037252903, 0, 0, 0.0546875037252903, 0, 0)">
      <path d="M128, 32C128, 14.3 113.7, 0 96, 0C78.3, 0 64, 14.3 64, 32L64, 64L32, 64C14.3, 64 0, 78.3 0, 96C0, 113.7 14.3, 128 32, 128L64, 128L64, 384C64, 419.3 92.7, 448 128, 448L352, 448L352, 384L128, 384L128, 32zM384, 480C384, 497.7 398.3, 512 416, 512C433.7, 512 448, 497.7 448, 480L448, 448L480, 448C497.7, 448 512, 433.7 512, 416C512, 398.3 497.7, 384 480, 384L448, 384L448, 128C448, 92.7 419.3, 64 384, 64L160, 64L160, 128L384, 128L384, 480z" />
    </g>
  </g>
</svg>