<?xml version='1.0' encoding='UTF-8'?>
<svg viewBox="-2.0025 -4.8025 32 32" xmlns="http://www.w3.org/2000/svg" >
  <g transform="translate(-0.0006, -0.0018)">
    <g transform="matrix(0.0437470972537994, 0, 0, 0.0437470972537994, 0, 0)">
      <path d="M352, 124.5L300.1, 111.5C293.6, 109.9 288.8, 104.4 288.1, 97.7C287.4, 91 290.9, 84.6 296.8, 81.6L337.6, 61.2L294.4, 28.8C288.9, 24.7 286.6, 17.5 288.8, 10.9C291, 4.3 297.1, 0 304, 0L416, 0L448, 0L464, 0C494.2, 0 522.7, 14.2 540.8, 38.4L598.4, 115.2C604.6, 123.5 608, 133.6 608, 144C608, 170.5 586.5, 192 560, 192L538.5, 192C521.5, 192 505.2, 185.3 493.2, 173.3L480, 160L448, 160L448, 181.5C448, 206.3 460.8, 229.4 481.8, 242.6L588.4, 309.2C620.5, 329.3 640, 364.4 640, 402.3C640, 462.9 590.9, 512 530.2, 512L496, 512L432, 512L32.3, 512C29, 512 25.7, 511.6 22.7, 510.6C13.5, 507.8 6, 501 2.4, 492.1C1, 488.7 0.2, 485.2 0, 481.4C-0.2, 477.7 0.3, 474.1 1.3, 470.7C4.1, 461.5 10.9, 454 19.9, 450.3C22.9, 449.1 26.1, 448.3 29.4, 448.1L433.3, 412C441.6, 411.3 448, 404.3 448, 395.9C448, 391.6 446.3, 387.5 443.3, 384.5L398.9, 340.1C368.9, 310.1 352, 269.4 352, 227L352, 181.5L352, 124.5zM512, 72.3C512, 72.2 512, 72.1 512, 72C512, 71.9 512, 71.8 512, 71.7L512, 72.3zM510.7, 79.7L464.3, 68.1C464.1, 69.4 464, 70.7 464, 72C464, 85.3 474.7, 96 488, 96C498.6, 96 507.5, 89.2 510.7, 79.7zM130.9, 116.5C147.2, 102 171.3, 100.3 189.4, 112.4L320, 199.4L320, 226.9C320, 259.7 328.4, 291.7 344, 319.9L112, 319.9C105.3, 319.9 99.3, 315.7 97, 309.5C94.7, 303.3 96.5, 296.2 101.6, 291.8L171, 232.3L18.4, 255.8C11.4, 256.9 4.5, 253.2 1.5, 246.8C-1.5, 240.4 0, 232.7 5.3, 228L130.9, 116.5z" />
    </g>
  </g>
</svg>