<?xml version='1.0' encoding='UTF-8'?>
<svg viewBox="-2 -3.7325 32 32" xmlns="http://www.w3.org/2000/svg" >
  <g id="Capa_1" transform="translate(-3.81469726917771E-07, -1.73250183105469)" style="enable-background:new 0 0 297 297">
    <g transform="matrix(0.0942760929465294, 0, 0, 0.0942760929465294, 0, 0)">
      <g>
        <path d="M83.877, 203.144C78.342, 203.144 73.85, 207.626 73.85, 213.171C73.85, 218.705 78.342, 223.197 83.877, 223.197C89.412, 223.197 93.903, 218.705 93.903, 213.171C93.903, 207.626 89.412, 203.144 83.877, 203.144z" />
      </g>
    </g>
  </g>
  <g id="Capa_1" transform="translate(-4.00543212819571E-07, -1.73250183105469)" style="enable-background:new 0 0 297 297">
    <g transform="matrix(0.0942760929465294, 0, 0, 0.0942760929465294, 0, 0)">
      <g>
        <path d="M46.947, 203.144C41.412, 203.144 36.92, 207.626 36.92, 213.171C36.92, 218.705 41.412, 223.197 46.947, 223.197C52.492, 223.197 56.973, 218.705 56.973, 213.171C56.974, 207.626 52.492, 203.144 46.947, 203.144z" />
      </g>
    </g>
  </g>
  <g id="Capa_1" transform="translate(-3.05175781534217E-07, -1.73250183105469)" style="enable-background:new 0 0 297 297">
    <g transform="matrix(0.0942760929465294, 0, 0, 0.0942760929465294, 0, 0)">
      <g>
        <path d="M120.807, 203.144C115.261, 203.144 110.78, 207.626 110.78, 213.171C110.78, 218.705 115.261, 223.197 120.807, 223.197C126.341, 223.197 130.833, 218.705 130.833, 213.171C130.833, 207.626 126.341, 203.144 120.807, 203.144z" />
      </g>
    </g>
  </g>
  <g id="Capa_1" transform="translate(-7.62939453835543E-07, -1.73250183105469)" style="enable-background:new 0 0 297 297">
    <g transform="matrix(0.0942760929465294, 0, 0, 0.0942760929465294, 0, 0)">
      <g>
        <path d="M157.727, 203.144C152.191, 203.144 147.7, 207.626 147.7, 213.171C147.7, 218.705 152.191, 223.197 157.727, 223.197C163.271, 223.197 167.753, 218.705 167.753, 213.171C167.753, 207.626 163.27, 203.144 157.727, 203.144z" />
      </g>
    </g>
  </g>
  <g id="Capa_1" transform="translate(0, -1.73250183105469)" style="enable-background:new 0 0 297 297">
    <g transform="matrix(0.0942760929465294, 0, 0, 0.0942760929465294, 0, 0)">
      <g>
        <path d="M10.027, 203.144C7.389, 203.144 4.802, 204.207 2.928, 206.082C1.073, 207.947 0, 210.523 0, 213.172C0, 215.809 1.073, 218.396 2.929, 220.26C4.803, 222.125 7.39, 223.198 10.028, 223.198C12.666, 223.198 15.253, 222.125 17.117, 220.26C18.982, 218.396 20.055, 215.809 20.055, 213.172C20.055, 210.524 18.983, 207.947 17.117, 206.082C15.252, 204.207 12.665, 203.144 10.027, 203.144z" />
      </g>
    </g>
  </g>
  <g id="Capa_1" transform="translate(0, -1.73250061035156)" style="enable-background:new 0 0 297 297">
    <g transform="matrix(0.0942760929465294, 0, 0, 0.0942760929465294, 0, 0)">
      <g>
        <path d="M10.027, 129.235C4.482, 129.235 0, 133.727 0, 139.262C0, 144.797 4.482, 149.289 10.027, 149.289C15.562, 149.289 20.053, 144.797 20.053, 139.262C20.054, 133.727 15.563, 129.235 10.027, 129.235z" />
      </g>
    </g>
  </g>
  <g id="Capa_1" transform="translate(0, -1.73250122070312)" style="enable-background:new 0 0 297 297">
    <g transform="matrix(0.0942760929465294, 0, 0, 0.0942760929465294, 0, 0)">
      <g>
        <path d="M10.027, 92.275C4.482, 92.275 0, 96.767 0, 102.302C0, 107.848 4.482, 112.329 10.027, 112.329C15.562, 112.329 20.053, 107.848 20.053, 102.302C20.054, 96.767 15.563, 92.275 10.027, 92.275z" />
      </g>
    </g>
  </g>
  <g id="Capa_1" transform="translate(0, -1.73250010490418)" style="enable-background:new 0 0 297 297">
    <g transform="matrix(0.0942760929465294, 0, 0, 0.0942760929465294, 0, 0)">
      <g>
        <path d="M10.027, 55.326C4.482, 55.326 0, 59.817 0, 65.352C0, 70.888 4.482, 75.38 10.027, 75.38C15.562, 75.38 20.053, 70.888 20.053, 65.353C20.054, 59.817 15.563, 55.326 10.027, 55.326z" />
      </g>
    </g>
  </g>
  <g id="Capa_1" transform="translate(0, -1.73250053405762)" style="enable-background:new 0 0 297 297">
    <g transform="matrix(0.0942760929465294, 0, 0, 0.0942760929465294, 0, 0)">
      <g>
        <path d="M10.027, 166.185C4.482, 166.185 0, 170.677 0, 176.211C0, 181.757 4.482, 186.238 10.027, 186.238C15.562, 186.238 20.053, 181.756 20.053, 176.211C20.054, 170.677 15.563, 166.185 10.027, 166.185z" />
      </g>
    </g>
  </g>
  <g id="Capa_1" transform="translate(0, -1.7325)" style="enable-background:new 0 0 297 297">
    <g transform="matrix(0.0942760929465294, 0, 0, 0.0942760929465294, 0, 0)">
      <g>
        <path d="M10.027, 18.376C7.389, 18.376 4.802, 19.439 2.928, 21.304C1.073, 23.169 0, 25.756 0, 28.402C0, 31.04 1.073, 33.627 2.929, 35.492C4.803, 37.357 7.39, 38.43 10.028, 38.43C12.666, 38.43 15.242, 37.358 17.117, 35.492C18.982, 33.617 20.055, 31.04 20.055, 28.402C20.055, 25.756 18.983, 23.178 17.117, 21.303C15.252, 19.439 12.665, 18.376 10.027, 18.376z" />
      </g>
    </g>
  </g>
  <g id="Capa_1" transform="translate(-7.62939453835543E-07, -1.7325)" style="enable-background:new 0 0 297 297">
    <g transform="matrix(0.0942760929465294, 0, 0, 0.0942760929465294, 0, 0)">
      <g>
        <path d="M157.727, 38.43C163.271, 38.43 167.753, 33.939 167.753, 28.403C167.753, 22.858 163.271, 18.377 157.727, 18.377C152.191, 18.377 147.7, 22.858 147.7, 28.403C147.699, 33.938 152.19, 38.43 157.727, 38.43z" />
      </g>
    </g>
  </g>
  <g id="Capa_1" transform="translate(-6.86645506675632E-07, -1.7325)" style="enable-background:new 0 0 297 297">
    <g transform="matrix(0.0942760929465294, 0, 0, 0.0942760929465294, 0, 0)">
      <g>
        <path d="M194.656, 38.43C200.19, 38.43 204.682, 33.939 204.682, 28.403C204.682, 22.858 200.19, 18.377 194.656, 18.377C189.12, 18.377 184.629, 22.858 184.629, 28.403C184.629, 33.938 189.12, 38.43 194.656, 38.43z" />
      </g>
    </g>
  </g>
  <g id="Capa_1" transform="translate(-3.81469726917771E-07, -1.7325)" style="enable-background:new 0 0 297 297">
    <g transform="matrix(0.0942760929465294, 0, 0, 0.0942760929465294, 0, 0)">
      <g>
        <path d="M83.877, 18.376C78.342, 18.376 73.85, 22.857 73.85, 28.402C73.85, 33.938 78.342, 38.429 83.877, 38.429C89.412, 38.429 93.903, 33.938 93.903, 28.402C93.903, 22.857 89.412, 18.376 83.877, 18.376z" />
      </g>
    </g>
  </g>
  <g id="Capa_1" transform="translate(-4.00543212819571E-07, -1.7325)" style="enable-background:new 0 0 297 297">
    <g transform="matrix(0.0942760929465294, 0, 0, 0.0942760929465294, 0, 0)">
      <g>
        <path d="M46.947, 18.376C41.412, 18.376 36.92, 22.857 36.92, 28.402C36.92, 33.938 41.412, 38.429 46.947, 38.429C52.492, 38.429 56.973, 33.938 56.973, 28.402C56.974, 22.857 52.492, 18.376 46.947, 18.376z" />
      </g>
    </g>
  </g>
  <g id="Capa_1" transform="translate(-3.05175781534217E-07, -1.7325)" style="enable-background:new 0 0 297 297">
    <g transform="matrix(0.0942760929465294, 0, 0, 0.0942760929465294, 0, 0)">
      <g>
        <path d="M120.807, 18.376C115.261, 18.376 110.78, 22.857 110.78, 28.402C110.78, 33.938 115.261, 38.429 120.807, 38.429C126.341, 38.429 130.833, 33.938 130.833, 28.402C130.833, 22.857 126.341, 18.376 120.807, 18.376z" />
      </g>
    </g>
  </g>
  <g id="Capa_1" transform="translate(-6.10351563068434E-07, -1.7325)" style="enable-background:new 0 0 297 297">
    <g transform="matrix(0.0942760929465294, 0, 0, 0.0942760929465294, 0, 0)">
      <g>
        <path d="M231.586, 38.43C234.223, 38.43 236.81, 37.358 238.674, 35.492C240.539, 33.627 241.613, 31.04 241.613, 28.402C241.613, 25.756 240.54, 23.169 238.674, 21.303C236.81, 19.439 234.223, 18.375 231.586, 18.375C228.938, 18.375 226.36, 19.438 224.496, 21.303C222.631, 23.178 221.558, 25.755 221.558, 28.402C221.558, 31.04 222.63, 33.617 224.496, 35.492C226.36, 37.357 228.947, 38.43 231.586, 38.43z" />
      </g>
    </g>
  </g>
  <g id="Capa_1" transform="translate(-6.10351563068434E-07, -1.73250122070312)" style="enable-background:new 0 0 297 297">
    <g transform="matrix(0.0942760929465294, 0, 0, 0.0942760929465294, 0, 0)">
      <g>
        <path d="M231.586, 112.329C237.12, 112.329 241.612, 107.848 241.612, 102.302C241.612, 96.767 237.12, 92.276 231.586, 92.276C226.04, 92.276 221.559, 96.767 221.559, 102.302C221.559, 107.848 226.04, 112.329 231.586, 112.329z" />
      </g>
    </g>
  </g>
  <g id="Capa_1" transform="translate(-6.10351563068434E-07, -1.73250010490418)" style="enable-background:new 0 0 297 297">
    <g transform="matrix(0.0942760929465294, 0, 0, 0.0942760929465294, 0, 0)">
      <g>
        <path d="M231.586, 75.38C237.12, 75.38 241.612, 70.888 241.612, 65.353C241.612, 59.818 237.12, 55.327 231.586, 55.327C226.04, 55.327 221.559, 59.818 221.559, 65.353C221.559, 70.888 226.04, 75.38 231.586, 75.38z" />
      </g>
    </g>
  </g>
  <g id="Capa_1" transform="translate(-6.10351563068434E-07, -1.73250061035156)" style="enable-background:new 0 0 297 297">
    <g transform="matrix(0.0942760929465294, 0, 0, 0.0942760929465294, 0, 0)">
      <g>
        <path d="M231.586, 149.289C237.12, 149.289 241.612, 144.797 241.612, 139.262C241.612, 133.717 237.12, 129.236 231.586, 129.236C226.04, 129.236 221.559, 133.717 221.559, 139.262C221.559, 144.797 226.04, 149.289 231.586, 149.289z" />
      </g>
    </g>
  </g>
  <g id="Capa_1" transform="translate(-1.22070312436051E-06, -1.73250072479248)" style="enable-background:new 0 0 297 297">
    <g transform="matrix(0.0942760929465294, 0, 0, 0.0942760929465294, 0, 0)">
      <g>
        <path d="M290.418, 183.386L172.876, 140.383C169.224, 139.049 165.125, 139.944 162.365, 142.686C159.605, 145.428 158.679, 149.518 159.992, 153.181L202.541, 271.979C203.945, 275.9 207.626, 278.543 211.791, 278.623C211.855, 278.624 211.918, 278.625 211.981, 278.625C216.07, 278.625 219.757, 276.14 221.285, 272.335L237.246, 232.596L270.806, 266.519C272.767, 268.5 275.35, 269.494 277.934, 269.494C280.483, 269.494 283.032, 268.528 284.987, 266.596C288.924, 262.7 288.958, 256.353 285.063, 252.415L251.294, 218.281L290.779, 202.082C294.607, 200.512 297.078, 196.749 296.998, 192.611C296.919, 188.472 294.305, 184.809 290.418, 183.386zM229.827, 205.409C227.321, 206.437 225.338, 208.435 224.328, 210.949L212.517, 240.358L186.089, 166.571L259.251, 193.338L229.827, 205.409z" />
      </g>
    </g>
  </g>
</svg>