<?xml version="1.0" encoding="UTF-8" standalone="no"?>
<svg
   viewBox="-2.005 -2.005 32 32"
   version="1.1"
   id="svg2"
   sodipodi:docname="dropper.svg"
   inkscape:version="1.4 (e7c3feb100, 2024-10-09)"
   xmlns:inkscape="http://www.inkscape.org/namespaces/inkscape"
   xmlns:sodipodi="http://sodipodi.sourceforge.net/DTD/sodipodi-0.dtd"
   xmlns="http://www.w3.org/2000/svg"
   xmlns:svg="http://www.w3.org/2000/svg">
  <defs
     id="defs2" />
  <sodipodi:namedview
     id="namedview2"
     pagecolor="#ffffff"
     bordercolor="#000000"
     borderopacity="0.25"
     inkscape:showpageshadow="2"
     inkscape:pageopacity="0.0"
     inkscape:pagecheckerboard="0"
     inkscape:deskcolor="#d1d1d1"
     inkscape:zoom="25.21875"
     inkscape:cx="16"
     inkscape:cy="16"
     inkscape:window-width="1920"
     inkscape:window-height="969"
     inkscape:window-x="0"
     inkscape:window-y="0"
     inkscape:window-maximized="1"
     inkscape:current-layer="svg2"
     showgrid="true">
    <inkscape:grid
       id="grid1"
       units="px"
       originx="0"
       originy="0"
       spacingx="1"
       spacingy="1"
       empcolor="#0099e5"
       empopacity="0.30196078"
       color="#0099e5"
       opacity="0.14901961"
       empspacing="5"
       enabled="true"
       visible="true" />
  </sodipodi:namedview>
  <g
     transform="translate(-0.0054, -0.006)"
     id="g2"
     style="fill:#727272;fill-opacity:1">
    <g
       transform="matrix(0.0546829737722874, 0, 0, 0.0546829737722874, 0, 0)"
       id="g1"
       style="fill:#727272;fill-opacity:1">
      <path
         d="M341.6, 29.2L240.1, 130.8L230.7, 121.4C218.2, 108.9 197.9, 108.9 185.4, 121.4C172.9, 133.9 172.9, 154.2 185.4, 166.7L345.4, 326.7C357.9, 339.2 378.2, 339.2 390.7, 326.7C403.2, 314.2 403.2, 293.9 390.7, 281.4L381.3, 272L482.8, 170.4C521.8, 131.4 521.8, 68.2 482.8, 29.3C443.8, -9.6 380.6, -9.7 341.7, 29.3zM55.4, 323.3C40.4, 338.3 32, 358.7 32, 379.9L32, 422.3L5.4, 462.2C-3.1, 474.9 -1.4, 491.8 9.4, 502.6C20.2, 513.4 37.1, 515.1 49.8, 506.6L89.7, 480L132.1, 480C153.3, 480 173.7, 471.6 188.7, 456.6L309.4, 335.9L264.1, 290.6L143.4, 411.3C140.4, 414.3 136.3, 416 132.1, 416L96, 416L96, 379.9C96, 375.7 97.7, 371.6 100.7, 368.6L221.4, 247.9L176.1, 202.6L55.4, 323.3z"
         id="path1"
         style="fill:#727272;fill-opacity:1" />
    </g>
  </g>
</svg>
