<?xml version="1.0" encoding="UTF-8" standalone="no"?>
<svg
   viewBox="-2.0025 -3.775 32 32"
   version="1.1"
   id="svg2"
   sodipodi:docname="eraser-gray.svg"
   inkscape:version="1.4 (e7c3feb100, 2024-10-09)"
   xmlns:inkscape="http://www.inkscape.org/namespaces/inkscape"
   xmlns:sodipodi="http://sodipodi.sourceforge.net/DTD/sodipodi-0.dtd"
   xmlns="http://www.w3.org/2000/svg"
   xmlns:svg="http://www.w3.org/2000/svg">
  <defs
     id="defs2" />
  <sodipodi:namedview
     id="namedview2"
     pagecolor="#ffffff"
     bordercolor="#000000"
     borderopacity="0.25"
     inkscape:showpageshadow="2"
     inkscape:pageopacity="0.0"
     inkscape:pagecheckerboard="0"
     inkscape:deskcolor="#d1d1d1"
     inkscape:zoom="25.21875"
     inkscape:cx="16"
     inkscape:cy="16"
     inkscape:window-width="1920"
     inkscape:window-height="969"
     inkscape:window-x="0"
     inkscape:window-y="0"
     inkscape:window-maximized="1"
     inkscape:current-layer="svg2" />
  <g
     transform="translate(-2.144, -2.1437)"
     id="g2"
     style="fill:#727272;fill-opacity:1">
    <g
       transform="matrix(0.0554079748690128, 0, 0, 0.0554079748690128, 0, 0)"
       id="g1"
       style="fill:#727272;fill-opacity:1">
      <path
         d="M290.7, 57.4L57.4, 290.7C32.4, 315.7 32.4, 356.2 57.4, 381.2L137.4, 461.2C149.4, 473.2 165.7, 479.9 182.7, 479.9L288, 480L297.4, 480L512, 480C529.7, 480 544, 465.7 544, 448C544, 430.3 529.7, 416 512, 416L387.9, 416L518.6, 285.3C543.6, 260.3 543.6, 219.8 518.6, 194.8L381.3, 57.4C356.3, 32.4 315.8, 32.4 290.8, 57.4zM297.4, 416L288, 416L182.6, 416L102.6, 336L227.3, 211.3L364.7, 348.7L297.4, 416z"
         id="path1"
         style="fill:#727272;fill-opacity:1" />
    </g>
  </g>
</svg>
