<?xml version="1.0" encoding="UTF-8" standalone="no"?>
<svg
   viewBox="-2 -3.5025 32 32"
   version="1.1"
   id="svg2"
   sodipodi:docname="Fill.svg"
   inkscape:version="1.4 (86a8ad7, 2024-10-11)"
   xmlns:inkscape="http://www.inkscape.org/namespaces/inkscape"
   xmlns:sodipodi="http://sodipodi.sourceforge.net/DTD/sodipodi-0.dtd"
   xmlns="http://www.w3.org/2000/svg"
   xmlns:svg="http://www.w3.org/2000/svg">
  <defs
     id="defs2" />
  <sodipodi:namedview
     id="namedview2"
     pagecolor="#ffffff"
     bordercolor="#000000"
     borderopacity="0.25"
     inkscape:showpageshadow="2"
     inkscape:pageopacity="0.0"
     inkscape:pagecheckerboard="0"
     inkscape:deskcolor="#d1d1d1"
     inkscape:zoom="25.21875"
     inkscape:cx="16"
     inkscape:cy="16"
     inkscape:window-width="1920"
     inkscape:window-height="1009"
     inkscape:window-x="-8"
     inkscape:window-y="-8"
     inkscape:window-maximized="1"
     inkscape:current-layer="svg2" />
  <g
     transform="translate(-0.1208, -0.0013)"
     id="g2"
     style="stroke:#727272;stroke-opacity:1;fill:#727272;fill-opacity:1">
    <g
       transform="matrix(0.0488209053874016, 0, 0, 0.0488209053874016, 0, 0)"
       id="g1"
       style="stroke:#727272;stroke-opacity:1;fill:#727272;fill-opacity:1">
      <path
         d="M41.4, 9.4C53.9, -3.1 74.1, -3.1 86.6, 9.4L168, 90.7L221.1, 37.6C249.2, 9.5 294.8, 9.5 322.9, 37.6L474.3, 189.1C502.4, 217.2 502.4, 262.8 474.3, 290.9L283.9, 481.4C246.4, 518.9 185.6, 518.9 148.1, 481.4L30.6, 363.9C-6.9, 326.4 -6.9, 265.6 30.6, 228.1L122.7, 136L41.4, 54.6C28.9, 42.1 28.9, 21.8 41.4, 9.3zM217.4, 230.7L168, 181.3L75.9, 273.4C71.7, 277.6 68.9, 282.7 67.5, 288L386.7, 288L429, 245.7C432.1, 242.6 432.1, 237.5 429, 234.4L277.7, 82.9C274.6, 79.8 269.5, 79.8 266.4, 82.9L213.3, 136L262.7, 185.4C275.2, 197.9 275.2, 218.2 262.7, 230.7C250.2, 243.2 229.9, 243.2 217.4, 230.7zM512, 512C476.7, 512 448, 483.3 448, 448C448, 422.8 480.6, 368.4 499.2, 339.3C505.2, 329.9 518.7, 329.9 524.7, 339.3C543.4, 368.4 576, 422.8 576, 448C576, 483.3 547.3, 512 512, 512z"
         id="path1"
         style="stroke:#727272;stroke-opacity:1;fill:#727272;fill-opacity:1" />
    </g>
  </g>
</svg>
