<?xml version='1.0' encoding='UTF-8'?>
<svg viewBox="-4 -6 32 32" xmlns="http://www.w3.org/2000/svg" >
  <g id="Layer_1" transform="translate(-4, -6)" style="enable-background:new 0 0 32 32">
    <g id="FolderClose">
      <g>
        <path d="M27, 10L14, 10L14, 7C14, 6.5 13.5, 6 13, 6L5, 6C4.5, 6 4, 6.5 4, 7L4, 25C4, 25.5 4.5, 26 5, 26L27, 26C27.5, 26 28, 25.5 28, 25L28, 11C28, 10.5 27.5, 10 27, 10z" fill="#FFB115" class="Yellow" />
      </g>
    </g>
  </g>
  <g id="Layer_1" transform="translate(-4, -6)" style="enable-background:new 0 0 32 32">
    <g id="FolderClose">
      <g>
        <path d="M27, 10L14, 10L14, 7C14, 6.5 13.5, 6 13, 6L5, 6C4.5, 6 4, 6.5 4, 7L4, 25C4, 25.5 4.5, 26 5, 26L27, 26C27.5, 26 28, 25.5 28, 25L28, 11C28, 10.5 27.5, 10 27, 10z" fill="#FFB115" class="Yellow" />
      </g>
    </g>
  </g>
</svg>