<?xml version='1.0' encoding='UTF-8'?>
<svg viewBox="-2.0025 -2.0025 32 32" xmlns="http://www.w3.org/2000/svg" >
  <defs id="defs3249" tag="staticElement_id15845492">
    <linearGradient x1="24.104px" y1="15.181px" x2="24.104px" y2="34.225px" gradientunits="userspaceonuse" spreadmethod="pad" gradientTransform="matrix(0.70965, 0, 0, 0.70537, -8.945, -8.2363)" id="linearGradient2401">
      <stop offset="0%" id="stop2266" style="stop-color:#d7e866" />
      <stop offset="100%" id="stop2268" style="stop-color:#8cab2a" />
    </linearGradient>
    <linearGradient x1="8px" y1="0%" x2="8px" y2="16.004px" gradientunits="userspaceonuse" spreadmethod="pad" id="linearGradient3190">
      <stop offset="0%" id="stop3182" style="stop-color:#fff" />
      <stop offset="100%" id="stop3184" style="stop-color:#fff;stop-opacity:0" />
    </linearGradient>
  </defs>
  <g id="svg3247" transform="translate(-0.0024, -0.0024)">
    <g transform="matrix(1.75000143051147, 0, 0, 1.75000143051147, 0, 0)">
      <g id="layer1">
        <path d="M5.5, 5.5L5.5, 0.5L10.5, 0.5L10.5, 5.5L15.5, 5.5L15.5, 10.5L10.5, 10.5L10.5, 15.5L5.5, 15.5L5.5, 10.5L0.5, 10.5L0.5, 5.5L5.5, 5.5z" fill="url(#linearGradient2401)" id="path2262" stroke="#699536" stroke-linejoin="round" fill-rule="evenodd" />
      </g>
    </g>
  </g>
  <g id="svg3247" transform="translate(-0.00239992141723633, -0.00239992141723633)">
    <g transform="matrix(1.75000143051147, 0, 0, 1.75000143051147, 0, 0)">
      <g id="layer1">
        <path d="M6.5, 1.5L6.5, 5.5C6.49519, 6.05028 6.05028, 6.49519 5.5, 6.5L1.5, 6.5L1.5, 9.5L5.5, 9.5C6.05028, 9.50481 6.49519, 9.94972 6.5, 10.5L6.5, 14.5L9.5, 14.5L9.5, 10.5C9.50481, 9.94972 9.94972, 9.50481 10.5, 9.5L14.5, 9.5L14.5, 6.5L10.5, 6.5C9.9497, 6.4952 9.5048, 6.0503 9.5, 5.5L9.5, 1.5L6.5, 1.5z" fill="none" opacity="0.4" id="path3188" stroke="url(#linearGradient3190)" />
      </g>
    </g>
  </g>
</svg>