<?xml version='1.0' encoding='UTF-8'?>
<svg viewBox="-2 -6.2025 32 32" xmlns="http://www.w3.org/2000/svg" >
  <g id="Layer_1" transform="translate(-0.0001, -4.2016)" style="enable-background:new 0 0 512 512">
    <g transform="matrix(0.8749, 0, 0, 0.8749, 0, 0)">
      <g transform="matrix(1.1426, 0, 0, 1.1426, 0, 0)">
        <g transform="matrix(0.0547, 0, 0, 0.0547, 0, 0)">
          <g>
            <path d="M85.333, 409.6L8.533, 409.6C3.413, 409.6 0, 406.187 0, 401.067C0, 395.947 3.413, 392.534 8.533, 392.534L85.333, 392.534C90.453, 392.534 93.866, 395.947 93.866, 401.067C93.866, 406.187 90.453, 409.6 85.333, 409.6" fill="#D11C1C" fill-opacity="1" class="Red" />
          </g>
        </g>
      </g>
    </g>
  </g>
  <g id="Layer_1" transform="translate(-0.0001, -4.2016)" style="enable-background:new 0 0 512 512">
    <g transform="matrix(0.8749, 0, 0, 0.8749, 0, 0)">
      <g transform="matrix(1.1426, 0, 0, 1.1426, 0, 0)">
        <g transform="matrix(0.0547, 0, 0, 0.0547, 0, 0)">
          <g>
            <path d="M358.4, 409.6L153.6, 409.6C148.48, 409.6 145.067, 406.187 145.067, 401.067C145.067, 395.947 148.48, 392.534 153.6, 392.534L358.4, 392.534C363.52, 392.534 366.933, 395.947 366.933, 401.067C366.933, 406.187 363.52, 409.6 358.4, 409.6" fill="#D11C1C" fill-opacity="1" class="Red" />
          </g>
        </g>
      </g>
    </g>
  </g>
  <g id="Layer_1" transform="translate(-0.0001, -4.2016)" style="enable-background:new 0 0 512 512">
    <g transform="matrix(0.8749, 0, 0, 0.8749, 0, 0)">
      <g transform="matrix(1.1426, 0, 0, 1.1426, 0, 0)">
        <g transform="matrix(0.0547, 0, 0, 0.0547, 0, 0)">
          <g>
            <path d="M503.467, 409.6L426.667, 409.6C421.547, 409.6 418.134, 406.187 418.134, 401.067C418.134, 395.947 421.547, 392.534 426.667, 392.534L503.467, 392.534C508.587, 392.534 512, 395.947 512, 401.067C512, 406.187 508.587, 409.6 503.467, 409.6" fill="#D11C1C" fill-opacity="1" class="Red" />
          </g>
        </g>
      </g>
    </g>
  </g>
  <g id="Layer_1" transform="translate(-0.0001, -4.2016)" style="enable-background:new 0 0 512 512">
    <g transform="matrix(0.8749, 0, 0, 0.8749, 0, 0)">
      <g transform="matrix(1.1426, 0, 0, 1.1426, 0, 0)">
        <g transform="matrix(0.0547, 0, 0, 0.0547, 0, 0)">
          <g>
            <path d="M119.467, 375.467C114.347, 375.467 110.934, 372.054 110.934, 366.934L110.934, 298.667C110.934, 293.547 114.347, 290.134 119.467, 290.134C124.587, 290.134 128, 293.547 128, 298.667L128, 366.934C128, 372.053 124.587, 375.467 119.467, 375.467" fill="#D11C1C" fill-opacity="1" class="Red" />
          </g>
        </g>
      </g>
    </g>
  </g>
  <g id="Layer_1" transform="translate(-0.0001, -4.2016)" style="enable-background:new 0 0 512 512">
    <g transform="matrix(0.8749, 0, 0, 0.8749, 0, 0)">
      <g transform="matrix(1.1426, 0, 0, 1.1426, 0, 0)">
        <g transform="matrix(0.0547, 0, 0, 0.0547, 0, 0)">
          <g>
            <path d="M392.533, 375.467C387.413, 375.467 384, 372.054 384, 366.934L384, 298.667C384, 293.547 387.413, 290.134 392.533, 290.134C397.653, 290.134 401.066, 293.547 401.066, 298.667L401.066, 366.934C401.067, 372.053 397.653, 375.467 392.533, 375.467" fill="#D11C1C" fill-opacity="1" class="Red" />
          </g>
        </g>
      </g>
    </g>
  </g>
  <g id="Layer_1" transform="translate(-0.0001, -4.2016)" style="enable-background:new 0 0 512 512">
    <g transform="matrix(0.8749, 0, 0, 0.8749, 0, 0)">
      <g transform="matrix(1.1426, 0, 0, 1.1426, 0, 0)">
        <g transform="matrix(0.0547, 0, 0, 0.0547, 0, 0)">
          <path d="M216.747, 247.467L22.187, 247.467C14.507, 247.467 8.534, 241.494 8.534, 233.814L8.534, 90.453C8.534, 82.773 14.507, 76.8 22.187, 76.8L216.747, 76.8C224.427, 76.8 230.4, 82.773 230.4, 90.453L230.4, 233.813C230.4, 241.493 224.427, 247.467 216.747, 247.467" fill="#FFFFFF" fill-opacity="1" class="White" />
        </g>
      </g>
    </g>
  </g>
  <g id="Layer_1" transform="translate(-0.0001, -4.2016)" style="enable-background:new 0 0 512 512">
    <g transform="matrix(0.8749, 0, 0, 0.8749, 0, 0)">
      <g transform="matrix(1.1426, 0, 0, 1.1426, 0, 0)">
        <g transform="matrix(0.0547, 0, 0, 0.0547, 0, 0)">
          <path d="M42.667, 201.387L42.667, 122.88C42.667, 116.053 47.787, 110.933 54.614, 110.933L184.32, 110.933C191.147, 110.933 196.267, 116.053 196.267, 122.88L196.267, 201.387C196.267, 208.214 191.147, 213.334 184.32, 213.334L54.613, 213.334C47.787, 213.333 42.667, 208.213 42.667, 201.387" fill="#727272" fill-opacity="1" class="Black" />
        </g>
      </g>
    </g>
  </g>
  <g id="Layer_1" transform="translate(-0.0001, -4.2016)" style="enable-background:new 0 0 512 512">
    <g transform="matrix(0.8749, 0, 0, 0.8749, 0, 0)">
      <g transform="matrix(1.1426, 0, 0, 1.1426, 0, 0)">
        <g transform="matrix(0.0547, 0, 0, 0.0547, 0, 0)">
          <path d="M159.573, 298.667L79.36, 298.667C73.387, 298.667 68.267, 293.547 68.267, 287.574L68.267, 247.467L170.667, 247.467L170.667, 287.574C170.667, 293.547 165.547, 298.667 159.573, 298.667" fill="#1177D7" fill-opacity="1" class="Blue" />
        </g>
      </g>
    </g>
  </g>
  <g id="Layer_1" transform="translate(-0.0001, -4.2016)" style="enable-background:new 0 0 512 512">
    <g transform="matrix(0.8749, 0, 0, 0.8749, 0, 0)">
      <g transform="matrix(1.1426, 0, 0, 1.1426, 0, 0)">
        <g transform="matrix(0.0547, 0, 0, 0.0547, 0, 0)">
          <path d="M489.813, 247.467L295.253, 247.467C287.573, 247.467 281.6, 241.494 281.6, 233.814L281.6, 90.453C281.6, 82.773 287.573, 76.8 295.253, 76.8L489.813, 76.8C497.493, 76.8 503.466, 82.773 503.466, 90.453L503.466, 233.813C503.467, 241.493 497.493, 247.467 489.813, 247.467" fill="#FFFFFF" fill-opacity="1" class="White" />
        </g>
      </g>
    </g>
  </g>
  <g id="Layer_1" transform="translate(-0.0001, -4.2016)" style="enable-background:new 0 0 512 512">
    <g transform="matrix(0.8749, 0, 0, 0.8749, 0, 0)">
      <g transform="matrix(1.1426, 0, 0, 1.1426, 0, 0)">
        <g transform="matrix(0.0547, 0, 0, 0.0547, 0, 0)">
          <path d="M315.733, 201.387L315.733, 122.88C315.733, 116.053 320.853, 110.933 327.68, 110.933L457.387, 110.933C464.214, 110.933 469.334, 116.053 469.334, 122.88L469.334, 201.387C469.334, 208.214 464.214, 213.334 457.387, 213.334L327.68, 213.334C320.853, 213.333 315.733, 208.213 315.733, 201.387" fill="#727272" fill-opacity="1" class="Black" />
        </g>
      </g>
    </g>
  </g>
  <g id="Layer_1" transform="translate(-0.0001, -4.2016)" style="enable-background:new 0 0 512 512">
    <g transform="matrix(0.8749, 0, 0, 0.8749, 0, 0)">
      <g transform="matrix(1.1426, 0, 0, 1.1426, 0, 0)">
        <g transform="matrix(0.0547, 0, 0, 0.0547, 0, 0)">
          <path d="M432.64, 298.667L351.573, 298.667C345.6, 298.667 340.48, 293.547 340.48, 287.574L340.48, 247.467L442.88, 247.467L442.88, 287.574C443.733, 293.547 438.613, 298.667 432.64, 298.667" fill="#1177D7" fill-opacity="1" class="Blue" />
        </g>
      </g>
    </g>
  </g>
  <g id="Layer_1" transform="translate(-0.0001, -4.2016)" style="enable-background:new 0 0 512 512">
    <g transform="matrix(0.8749, 0, 0, 0.8749, 0, 0)">
      <g transform="matrix(1.1426, 0, 0, 1.1426, 0, 0)">
        <g transform="matrix(0.0547, 0, 0, 0.0547, 0, 0)">
          <g>
            <path d="M153.6, 401.067C153.6, 419.84 138.24, 435.2 119.467, 435.2C100.694, 435.2 85.334, 419.84 85.334, 401.067C85.334, 382.294 100.694, 366.934 119.467, 366.934C138.24, 366.934 153.6, 382.293 153.6, 401.067" fill="#FFB115" fill-opacity="1" class="Yellow" />
          </g>
        </g>
      </g>
    </g>
  </g>
  <g id="Layer_1" transform="translate(-0.0001, -4.2016)" style="enable-background:new 0 0 512 512">
    <g transform="matrix(0.8749, 0, 0, 0.8749, 0, 0)">
      <g transform="matrix(1.1426, 0, 0, 1.1426, 0, 0)">
        <g transform="matrix(0.0547, 0, 0, 0.0547, 0, 0)">
          <g>
            <path d="M426.667, 401.067C426.667, 419.84 411.307, 435.2 392.534, 435.2C373.761, 435.2 358.4, 419.84 358.4, 401.067C358.4, 382.294 373.76, 366.934 392.533, 366.934C411.306, 366.934 426.667, 382.293 426.667, 401.067" fill="#FFB115" fill-opacity="1" class="Yellow" />
          </g>
        </g>
      </g>
    </g>
  </g>
</svg>