<?xml version="1.0" encoding="UTF-8" standalone="no"?>
<svg
   viewBox="-2 -5.1125 32 32"
   version="1.1"
   id="svg2"
   sodipodi:docname="open-gray.svg"
   inkscape:version="1.4 (e7c3feb100, 2024-10-09)"
   xmlns:inkscape="http://www.inkscape.org/namespaces/inkscape"
   xmlns:sodipodi="http://sodipodi.sourceforge.net/DTD/sodipodi-0.dtd"
   xmlns="http://www.w3.org/2000/svg"
   xmlns:svg="http://www.w3.org/2000/svg">
  <defs
     id="defs2" />
  <sodipodi:namedview
     id="namedview2"
     pagecolor="#ffffff"
     bordercolor="#000000"
     borderopacity="0.25"
     inkscape:showpageshadow="2"
     inkscape:pageopacity="0.0"
     inkscape:pagecheckerboard="0"
     inkscape:deskcolor="#d1d1d1"
     inkscape:zoom="25.21875"
     inkscape:cx="16"
     inkscape:cy="16"
     inkscape:window-width="1920"
     inkscape:window-height="969"
     inkscape:window-x="0"
     inkscape:window-y="0"
     inkscape:window-maximized="1"
     inkscape:current-layer="svg2" />
  <g
     transform="translate(0, -1.5578)"
     id="g2"
     style="fill:#727272;fill-opacity:1">
    <g
       transform="matrix(0.0486142709851265, 0, 0, 0.0486142709851265, 0, 0)"
       id="g1"
       style="fill:#727272;fill-opacity:1">
      <path
         d="M384, 480L432, 480C443.4, 480 453.9, 474 459.6, 464.1L571.6, 272.1C577.4, 262.2 577.4, 250 571.7, 240C566, 230 555.5, 224 544, 224L144, 224C132.6, 224 122.1, 230 116.4, 239.9L48, 357.1L48, 96C48, 87.2 55.2, 80 64, 80L181.5, 80C185.7, 80 189.8, 81.7 192.8, 84.7L219.3, 111.2C240.3, 132.2 268.8, 144 298.5, 144L416, 144C424.8, 144 432, 151.2 432, 160L432, 192L480, 192L480, 160C480, 124.7 451.3, 96 416, 96L298.5, 96C281.5, 96 265.2, 89.3 253.2, 77.3L226.7, 50.7C214.7, 38.7 198.4, 32 181.4, 32L64, 32C28.7, 32 0, 60.7 0, 96L0, 416C0, 451.3 28.7, 480 64, 480L87.7, 480L384, 480z"
         id="path1"
         style="fill:#727272;fill-opacity:1" />
    </g>
  </g>
</svg>
