<svg height="217" preserveAspectRatio="xMidYMid" viewBox="0 0 201 217" width="201" xmlns="http://www.w3.org/2000/svg"><g fill-rule="evenodd"><g fill="#ff3a2f"><path d="m78.795 199.177h16.042c3.094 0 5.602 1.116 5.602 2.491 0 1.376-2.508 2.491-5.602 2.491h-.746c-3.093 0-5.601 1.115-5.601 2.492 0 1.376 2.508 2.491 5.601 2.491h34.486c3.092 0 5.6 1.116 5.6 2.49 0 1.377-2.508 2.492-5.6 2.492h-41.444-45.549c-3.093 0-5.601-1.115-5.601-2.492 0-1.374 2.508-2.49 5.601-2.49h9.571c3.093 0 5.601-1.115 5.601-2.491 0-1.377-2.508-2.492-5.601-2.492h-45.551c-3.093 0-5.6-1.115-5.6-2.491 0-1.375 2.507-2.491 5.6-2.491h10.766z"/><path d="m178.087 216.279c3.53 0 6.394-1.273 6.394-2.843 0-1.571-2.864-2.845-6.394-2.845h-19.597c-3.531 0-6.394 1.274-6.394 2.845 0 1.57 2.863 2.843 6.394 2.843z"/><path d="m175.677 183.866h7.365c1.421 0 2.571.633 2.571 1.413 0 .781-1.15 1.414-2.571 1.414h-.342c-1.421 0-2.572.632-2.572 1.414 0 .78 1.151 1.412 2.572 1.412h15.834c1.42 0 2.573.632 2.573 1.414 0 .78-1.153 1.413-2.573 1.413h-19.03-38.896c-1.42 0-2.571-.633-2.571-1.413 0-.782 1.151-1.414 2.571-1.414h4.395c1.421 0 2.571-.632 2.571-1.412 0-.782-1.15-1.414-2.571-1.414h-20.915c-1.42 0-2.573-.633-2.573-1.414 0-.78 1.153-1.413 2.573-1.413h4.942z"/></g><path d="m75.475 137.51s69.83-128.535 69.83-128.535c.063-.119.056-.25.118-.369.181-.403.278-.801.374-1.224.082-.37.178-.72.187-1.099.012-.389-.05-.756-.112-1.143-.062-.396-.112-.781-.259-1.158-.122-.345-.319-.645-.504-.961-.22-.377-.44-.743-.745-1.071-.096-.092-.128-.219-.223-.311-.199-.192-.464-.27-.689-.433-.237-.169-.4-.406-.662-.547-.133-.068-.266-.061-.397-.12-.37-.17-.756-.253-1.152-.346-.396-.09-.783-.191-1.182-.202-.375-.016-.727.051-1.105.108-.412.06-.814.114-1.205.255-.342.122-.638.311-.957.494-.383.224-.752.442-1.088.749-.099.087-.22.122-.32.221 0 0-99.72 102.964-99.72 102.964-14.407 6.451-37.006 25.733-26.898 56.841 6.543 20.108 5.762 24.26 5.452 24.948-.25.238-1.268.703-2.016 1.043-1.471.678-3.053 1.426-4.647 2.514 0 0-4.394 3.438-4.394 3.438s1.272 4.279 1.272 4.279c.42 1.432 1.998 4.781 7.465 4.931 13.465.37 54.941-15.045 63.577-65.266z" fill="#142a3b"/><path d="m68.081 126.524s68.016-125.196 68.016-125.196c.229-.163.451-.337.695-.48.319-.183.615-.372.957-.494.391-.141.793-.195 1.205-.256.377-.056.73-.123 1.105-.107.399.011.786.112 1.182.202.396.093.782.176 1.151.348.132.057.265.05.398.118.262.141.425.378.663.547.224.163.489.241.69.433.093.092.125.219.221.312.305.327.525.693.745 1.07.185.316.382.616.504.962.147.376.197.761.259 1.157.062.387.124.754.113 1.143-.01.379-.106.729-.188 1.099-.096.422-.193.821-.374 1.224-.062.119-.055.25-.118.369 0 0-69.83 128.535-69.83 128.535-8.636 50.221-50.112 65.636-63.577 65.266-5.467-.151-7.045-3.498-7.465-4.93 0 0-1.272-4.28-1.272-4.28s2.325-1.819 2.325-1.819c14.33-.313 54.146-16.088 62.595-65.223z" fill="#020403" opacity=".35"/><path d="m76.951 134.794s-1.476 2.716-1.476 2.716c-8.636 50.221-50.112 65.636-63.577 65.266-5.467-.151-7.045-3.499-7.465-4.931 0 0-1.272-4.279-1.272-4.279s4.395-3.436 4.395-3.436c1.593-1.09 3.175-1.838 4.646-2.516.748-.34 1.766-.805 2.015-1.043.311-.688 1.092-4.84-5.45-24.947-9.421-28.989 9.558-47.696 23.846-55.333 0 0 44.338 28.503 44.338 28.503z" fill="#ff3a2f"/><path d="m55.455 141.401c1.08-4.569-.395-9.39-3.81-12.643 0 0-21.876-20.829-21.876-20.829.962-.591 1.914-1.141 2.844-1.638 0 0 44.339 28.503 44.339 28.503s-1.477 2.716-1.477 2.716c-8.636 50.221-50.112 65.636-63.577 65.266-4.458-.124-6.309-2.36-7.077-3.962 15.33-2.09 41.118-17.113 50.634-57.413z" fill="#020403" opacity=".35"/><path d="m11.322 143.982c0 4.213 3.449 7.63 7.702 7.63 4.254 0 7.702-3.417 7.702-7.63 0-4.214-3.448-7.629-7.702-7.629-4.253 0-7.702 3.415-7.702 7.629z" fill="#fff"/></g></svg>