<?xml version='1.0' encoding='UTF-8'?>
<svg viewBox="-2 -2.855 32 32" xmlns="http://www.w3.org/2000/svg" >
  <g id="Layer_1" transform="translate(0, 0.0196)" style="enable-background:new 0 0 32 32">
    <g transform="matrix(0.875683128833771, 0, 0, 0.875683128833771, 0, 0)">
      <path d="M31.1, 8.3C30, 7.6 28.6, 8.1 28.2, 9.2L26.3, 13.3C26.1, 13.7 25.7, 13.9 25.3, 13.9L25.3, 13.9C24.6, 13.9 24.1, 13.3 24.3, 12.6L26, 4.4C26.2, 3.3 25.6, 2.3 24.5, 2C23.4, 1.8 22.4, 2.4 22.1, 3.5L20.2, 11.1C20.1, 11.6 19.7, 11.9 19.2, 11.9L19.1, 11.9C18.5, 11.9 18, 11.4 18, 10.8L18, 2.1C18, 1.1 17.3, 0.2 16.4, 0C15.1, -0.2 14, 0.8 14, 2L14, 10.9C14, 11.5 13.5, 12 12.9, 12L12.8, 12C12.3, 12 11.9, 11.7 11.8, 11.2L10, 3.6C9.7, 2.4 8.4, 1.7 7.3, 2.2C6.3, 2.5 5.9, 3.6 6.1, 4.6L8.6, 15.9C8.8, 16.7 7.9, 17.4 7.1, 17L3.1, 14.4C2.3, 13.9 1.3, 14 0.6, 14.7C-0.2, 15.5 -0.2, 16.8 0.6, 17.6L10.9, 28C12.1, 29.3 13.9, 30 15.8, 30L20, 30C22.9, 30 24.7, 28 25.9, 25.2L31.8, 10.9C32.2, 10 31.9, 8.9 31.1, 8.3z" fill="#727272" class="Black" />
    </g>
  </g>
</svg>