<?xml version='1.0' encoding='UTF-8'?>
<svg viewBox="-3.695 -2 31.9978 32" xmlns="http://www.w3.org/2000/svg" >
  <g id="Layer_1" transform="translate(-1.6960998664856, -4.95910644549014E-07)" style="enable-background:new 0 0 512 512">
    <g transform="matrix(0.874931335449219, 0, 0, 0.874931335449219, 0, 0)">
      <g transform="matrix(1.1426, 0, 0, 1.1426, 0, 0)">
        <g transform="matrix(0.0547, 0, 0, 0.0547, 0, 0)">
          <path d="M289.62, 124.276C290.279, 124.35 290.937, 124.445 291.587, 124.575C291.795, 124.617 291.997, 124.673 292.201, 124.721C292.656, 124.825 293.106, 124.938 293.552, 125.069C293.828, 125.15 294.101, 125.237 294.371, 125.328C294.767, 125.46 295.156, 125.604 295.544, 125.756C295.784, 125.851 296.03, 125.941 296.269, 126.045C296.852, 126.298 297.428, 126.573 297.991, 126.874C298.165, 126.969 298.334, 127.074 298.506, 127.172C298.926, 127.412 299.345, 127.662 299.753, 127.931C299.952, 128.061 300.144, 128.193 300.336, 128.33C300.725, 128.602 301.106, 128.887 301.478, 129.183C301.641, 129.313 301.808, 129.439 301.968, 129.572C302.477, 130 302.973, 130.446 303.45, 130.92C303.459, 130.926 303.467, 130.934 303.475, 130.942L341.318, 168.785L341.318, 62.061L293.42, 62.061C290.221, 71.094 281.628, 77.576 271.5, 77.576L147.38, 77.576C137.252, 77.576 128.659, 71.094 125.46, 62.061L77.56, 62.061L77.56, 403.394L124.105, 403.394L124.105, 147.394C124.105, 134.541 134.525, 124.121 147.378, 124.121L287.014, 124.121C287.132, 124.121 287.247, 124.137 287.366, 124.14C287.914, 124.148 288.458, 124.176 289.003, 124.222C289.209, 124.239 289.415, 124.253 289.62, 124.276z" fill="#FFFFFF" fill-opacity="1" class="White" />
        </g>
      </g>
    </g>
  </g>
  <g id="Layer_1" transform="translate(-1.69610064849853, 2.38418579323607E-08)" style="enable-background:new 0 0 512 512">
    <g transform="matrix(0.874931335449219, 0, 0, 0.874931335449219, 0, 0)">
      <g transform="matrix(1.1426, 0, 0, 1.1426, 0, 0)">
        <g transform="matrix(0.0547, 0, 0, 0.0547, 0, 0)">
          <path d="M246.874, 31.03L271.5, 31.03C278.386, 31.03 284.551, 34.037 288.812, 38.788C292.506, 42.907 294.773, 48.334 294.773, 54.303C294.773, 57.027 294.281, 59.631 293.42, 62.061L341.318, 62.061L341.318, 168.785L364.591, 192.056L387.864, 215.329L387.864, 38.788C387.864, 25.935 377.444, 15.515 364.591, 15.515L246.874, 15.515C247.735, 17.945 248.227, 20.548 248.227, 23.273C248.227, 25.998 247.735, 28.601 246.874, 31.03z" fill="#FFB115" fill-opacity="1" class="Yellow" />
        </g>
      </g>
    </g>
  </g>
  <g id="Layer_1" transform="translate(-1.6961, 2.38418579323607E-08)" style="enable-background:new 0 0 512 512">
    <g transform="matrix(0.874931335449219, 0, 0, 0.874931335449219, 0, 0)">
      <g transform="matrix(1.1426, 0, 0, 1.1426, 0, 0)">
        <g transform="matrix(0.0547, 0, 0, 0.0547, 0, 0)">
          <path d="M124.106, 403.394L77.56, 403.394L77.56, 62.061L125.458, 62.061C124.597, 59.631 124.105, 57.028 124.105, 54.303C124.105, 48.334 126.372, 42.907 130.066, 38.788C134.326, 34.037 140.494, 31.03 147.378, 31.03L172.004, 31.03C171.143, 28.6 170.651, 25.997 170.651, 23.272C170.651, 20.547 171.143, 17.944 172.004, 15.514L54.288, 15.514C41.435, 15.514 31.015, 25.934 31.015, 38.787L31.015, 426.666C31.015, 439.519 41.435, 449.939 54.288, 449.939L124.106, 449.939L124.106, 426.666L124.106, 403.394L124.106, 403.394z" fill="#FFB115" fill-opacity="1" class="Yellow" />
        </g>
      </g>
    </g>
  </g>
  <g id="Layer_1" transform="translate(-1.69610026702881, -5.72204589488479E-07)" style="enable-background:new 0 0 512 512">
    <g transform="matrix(0.874931335449219, 0, 0, 0.874931335449219, 0, 0)">
      <g transform="matrix(1.1426, 0, 0, 1.1426, 0, 0)">
        <g transform="matrix(0.0547, 0, 0, 0.0547, 0, 0)">
          <path d="M147.378, 512L457.681, 512C470.534, 512 480.954, 501.58 480.954, 488.727L480.954, 318.661C480.633, 331.233 470.363, 341.333 457.712, 341.333C457.701, 341.333 457.689, 341.333 457.681, 341.333L434.408, 341.333L287.015, 341.333C274.341, 341.333 264.053, 331.195 263.77, 318.589C263.765, 318.412 263.742, 318.238 263.742, 318.06L263.742, 170.667L263.742, 147.394C263.742, 137.981 269.411, 129.494 278.109, 125.893C281.103, 124.653 284.251, 124.092 287.367, 124.14C287.249, 124.137 287.133, 124.121 287.015, 124.121L147.378, 124.121C134.525, 124.121 124.105, 134.541 124.105, 147.394L124.105, 403.394L124.105, 426.667L124.105, 449.94L124.105, 488.728C124.106, 501.58 134.526, 512 147.378, 512z" fill="Transparent" fill-opacity="1" class="Transparent" />
        </g>
      </g>
    </g>
  </g>
  <g id="Layer_1" transform="translate(-1.69610026702881, 0)" style="enable-background:new 0 0 512 512">
    <g transform="matrix(0.874931335449219, 0, 0, 0.874931335449219, 0, 0)">
      <g transform="matrix(1.1426, 0, 0, 1.1426, 0, 0)">
        <g transform="matrix(0.0547, 0, 0, 0.0547, 0, 0)">
          <path d="M172.004, 31.03L147.378, 31.03C140.492, 31.03 134.327, 34.037 130.066, 38.788C126.372, 42.907 124.105, 48.334 124.105, 54.303C124.105, 57.027 124.597, 59.631 125.458, 62.061C128.657, 71.094 137.25, 77.576 147.378, 77.576L271.5, 77.576C281.628, 77.576 290.221, 71.094 293.42, 62.061C294.281, 59.631 294.773, 57.028 294.773, 54.303C294.773, 48.334 292.506, 42.907 288.812, 38.788C284.552, 34.037 278.384, 31.03 271.5, 31.03L246.874, 31.03C247.735, 28.6 248.227, 25.997 248.227, 23.272C248.227, 20.547 247.735, 17.944 246.874, 15.514C243.675, 6.482 235.082, 0 224.954, 0L193.924, 0C183.796, 0 175.203, 6.482 172.004, 15.515C171.143, 17.945 170.651, 20.548 170.651, 23.273C170.651, 25.998 171.145, 28.601 172.004, 31.03z" fill="#727272" fill-opacity="1" class="Black" />
        </g>
      </g>
    </g>
  </g>
  <g id="Layer_1" transform="translate(-1.69610099182129, -9.91821289098027E-07)" style="enable-background:new 0 0 512 512">
    <g transform="matrix(0.874931335449219, 0, 0, 0.874931335449219, 0, 0)">
      <g transform="matrix(1.1426, 0, 0, 1.1426, 0, 0)">
        <g transform="matrix(0.0547, 0, 0, 0.0547, 0, 0)">
          <path d="M341.318, 168.785L303.477, 130.942L303.472, 130.939C303.466, 130.933 303.458, 130.928 303.452, 130.922C302.976, 130.446 302.479, 130.002 301.97, 129.574C301.809, 129.441 301.643, 129.315 301.48, 129.185C301.108, 128.889 300.727, 128.602 300.338, 128.332C300.146, 128.197 299.953, 128.064 299.755, 127.933C299.347, 127.666 298.93, 127.415 298.508, 127.174C298.336, 127.076 298.167, 126.971 297.993, 126.876C297.43, 126.575 296.854, 126.3 296.271, 126.047C296.034, 125.943 295.787, 125.855 295.546, 125.758C295.158, 125.604 294.769, 125.46 294.373, 125.33C294.101, 125.24 293.83, 125.152 293.554, 125.071C293.107, 124.941 292.657, 124.827 292.203, 124.723C291.998, 124.676 291.797, 124.619 291.589, 124.577C290.939, 124.447 290.281, 124.35 289.622, 124.278C289.417, 124.255 289.211, 124.242 289.006, 124.224C288.461, 124.177 287.917, 124.151 287.369, 124.142C284.254, 124.094 281.106, 124.656 278.111, 125.895C269.415, 129.498 263.744, 137.983 263.744, 147.396L263.744, 170.669L263.744, 318.063C263.744, 318.241 263.767, 318.415 263.772, 318.592C264.054, 331.197 274.342, 341.334 287.017, 341.334L434.411, 341.334L457.684, 341.334C457.692, 341.334 457.704, 341.334 457.715, 341.334C470.366, 341.334 480.636, 331.234 480.957, 318.662C480.963, 318.46 480.988, 318.265 480.988, 318.062C480.988, 312.464 478.991, 307.346 475.697, 303.33C475.666, 303.293 475.638, 303.256 475.607, 303.218C475.176, 302.698 474.72, 302.2 474.245, 301.719C474.181, 301.655 474.121, 301.59 474.056, 301.527C473.848, 301.322 473.656, 301.1 473.442, 300.903L387.868, 215.329L364.595, 192.056L341.318, 168.785z" fill="Transparent" fill-opacity="1" class="Transparent" />
        </g>
      </g>
    </g>
  </g>
  <g id="Layer_1" transform="translate(-1.6960998664856, -4.95910644549014E-07)" style="enable-background:new 0 0 512 512">
    <g transform="matrix(0.874931335449219, 0, 0, 0.874931335449219, 0, 0)">
      <g transform="matrix(1.1426, 0, 0, 1.1426, 0, 0)">
        <g transform="matrix(0.0547, 0, 0, 0.0547, 0, 0)">
          <path d="M289.62, 124.276C290.279, 124.35 290.937, 124.445 291.587, 124.575C291.795, 124.617 291.997, 124.673 292.201, 124.721C292.656, 124.825 293.106, 124.938 293.552, 125.069C293.828, 125.15 294.101, 125.237 294.371, 125.328C294.767, 125.46 295.156, 125.604 295.544, 125.756C295.784, 125.851 296.03, 125.941 296.269, 126.045C296.852, 126.298 297.428, 126.573 297.991, 126.874C298.165, 126.969 298.334, 127.074 298.506, 127.172C298.926, 127.412 299.345, 127.662 299.753, 127.931C299.952, 128.061 300.144, 128.193 300.336, 128.33C300.725, 128.602 301.106, 128.887 301.478, 129.183C301.641, 129.313 301.808, 129.439 301.968, 129.572C302.477, 130 302.973, 130.446 303.45, 130.92C303.459, 130.926 303.467, 130.934 303.475, 130.942L341.318, 168.785L341.318, 62.061L293.42, 62.061C290.221, 71.094 281.628, 77.576 271.5, 77.576L147.38, 77.576C137.252, 77.576 128.659, 71.094 125.46, 62.061L77.56, 62.061L77.56, 403.394L124.105, 403.394L124.105, 147.394C124.105, 134.541 134.525, 124.121 147.378, 124.121L287.014, 124.121C287.132, 124.121 287.247, 124.137 287.366, 124.14C287.914, 124.148 288.458, 124.176 289.003, 124.222C289.209, 124.239 289.415, 124.253 289.62, 124.276z" fill="#FFFFFF" fill-opacity="1" class="White" />
        </g>
      </g>
    </g>
  </g>
  <g id="Layer_1" transform="translate(-1.69610026702881, 0)" style="enable-background:new 0 0 512 512">
    <g transform="matrix(0.874931335449219, 0, 0, 0.874931335449219, 0, 0)">
      <g transform="matrix(1.1426, 0, 0, 1.1426, 0, 0)">
        <g transform="matrix(0.0547, 0, 0, 0.0547, 0, 0)">
          <path d="M193.924, 0C183.796, 0 175.203, 6.482 172.004, 15.515C171.143, 17.945 170.651, 20.548 170.651, 23.273C170.651, 25.998 171.143, 28.601 172.004, 31.031L147.378, 31.031C140.492, 31.031 134.327, 34.038 130.066, 38.789C126.372, 42.908 124.105, 48.335 124.105, 54.304C124.105, 57.028 124.597, 59.632 125.458, 62.062C128.657, 71.095 137.25, 77.577 147.378, 77.577L209.454, 77.577L209.454, 0L193.924, 0z" fill="Transparent" fill-opacity="1" class="Transparent" />
        </g>
      </g>
    </g>
  </g>
  <g id="Capa_1" transform="translate(4.30500065002441, 8)" style="enable-background:new 0 0 60 60">
    <g transform="matrix(0.5, 0, 0, 0.5, 0, 0)">
      <g transform="matrix(1.1428, 0, 0, 1.1428, 0, 0)">
        <g transform="matrix(0.4667, 0, 0, 0.4667, 0, 0)">
          <g>
            <path d="M38.914, 0L6.5, 0L6.5, 60L53.5, 60L53.5, 14.586L38.914, 0zM39.5, 3.414L50.086, 14L39.5, 14L39.5, 3.414zM8.5, 58L8.5, 2L37.5, 2L37.5, 16L51.5, 16L51.5, 58L8.5, 58z" fill="#727272" fill-opacity="1" class="Black" />
          </g>
        </g>
      </g>
    </g>
  </g>
  <g id="Capa_1" transform="translate(4.30500053405762, 7.9999995803833)" style="enable-background:new 0 0 60 60">
    <g transform="matrix(0.5, 0, 0, 0.5, 0, 0)">
      <g transform="matrix(1.1428, 0, 0, 1.1428, 0, 0)">
        <g transform="matrix(0.4667, 0, 0, 0.4667, 0, 0)">
          <g>
            <path d="M16.5, 17L25.5, 17C26.052, 17 26.5, 16.553 26.5, 16C26.5, 15.447 26.052, 15 25.5, 15L16.5, 15C15.948, 15 15.5, 15.447 15.5, 16C15.5, 16.553 15.948, 17 16.5, 17z" fill="#727272" fill-opacity="1" class="Black" />
          </g>
        </g>
      </g>
    </g>
  </g>
  <g id="Capa_1" transform="translate(4.30500053405762, 8.00000030517578)" style="enable-background:new 0 0 60 60">
    <g transform="matrix(0.5, 0, 0, 0.5, 0, 0)">
      <g transform="matrix(1.1428, 0, 0, 1.1428, 0, 0)">
        <g transform="matrix(0.4667, 0, 0, 0.4667, 0, 0)">
          <g>
            <path d="M33.5, 37L16.5, 37C15.948, 37 15.5, 37.447 15.5, 38C15.5, 38.553 15.948, 39 16.5, 39L33.5, 39C34.052, 39 34.5, 38.553 34.5, 38C34.5, 37.447 34.052, 37 33.5, 37z" fill="#727272" fill-opacity="1" class="Black" />
          </g>
        </g>
      </g>
    </g>
  </g>
  <g id="Capa_1" transform="translate(4.30499908447266, 7.99999862670898)" style="enable-background:new 0 0 60 60">
    <g transform="matrix(0.5, 0, 0, 0.5, 0, 0)">
      <g transform="matrix(1.1428, 0, 0, 1.1428, 0, 0)">
        <g transform="matrix(0.4667, 0, 0, 0.4667, 0, 0)">
          <g>
            <path d="M43.5, 30L36.5, 30C35.948, 30 35.5, 30.447 35.5, 31C35.5, 31.553 35.948, 32 36.5, 32L43.5, 32C44.052, 32 44.5, 31.553 44.5, 31C44.5, 30.447 44.052, 30 43.5, 30z" fill="#727272" fill-opacity="1" class="Black" />
          </g>
        </g>
      </g>
    </g>
  </g>
  <g id="Capa_1" transform="translate(4.30500053405762, 8.00000022888184)" style="enable-background:new 0 0 60 60">
    <g transform="matrix(0.5, 0, 0, 0.5, 0, 0)">
      <g transform="matrix(1.1428, 0, 0, 1.1428, 0, 0)">
        <g transform="matrix(0.4667, 0, 0, 0.4667, 0, 0)">
          <g>
            <path d="M16.5, 25L21.5, 25C22.052, 25 22.5, 24.553 22.5, 24C22.5, 23.447 22.052, 23 21.5, 23L16.5, 23C15.948, 23 15.5, 23.447 15.5, 24C15.5, 24.553 15.948, 25 16.5, 25z" fill="#727272" fill-opacity="1" class="Black" />
          </g>
        </g>
      </g>
    </g>
  </g>
  <g id="Capa_1" transform="translate(4.30499862670898, 8.00000022888184)" style="enable-background:new 0 0 60 60">
    <g transform="matrix(0.5, 0, 0, 0.5, 0, 0)">
      <g transform="matrix(1.1428, 0, 0, 1.1428, 0, 0)">
        <g transform="matrix(0.4667, 0, 0, 0.4667, 0, 0)">
          <g>
            <path d="M31.5, 25L38.5, 25C39.052, 25 39.5, 24.553 39.5, 24C39.5, 23.447 39.052, 23 38.5, 23L31.5, 23C30.948, 23 30.5, 23.447 30.5, 24C30.5, 24.553 30.948, 25 31.5, 25z" fill="#727272" fill-opacity="1" class="Black" />
          </g>
        </g>
      </g>
    </g>
  </g>
  <g id="Capa_1" transform="translate(4.30500007629395, 8.00000076293945)" style="enable-background:new 0 0 60 60">
    <g transform="matrix(0.5, 0, 0, 0.5, 0, 0)">
      <g transform="matrix(1.1428, 0, 0, 1.1428, 0, 0)">
        <g transform="matrix(0.4667, 0, 0, 0.4667, 0, 0)">
          <g>
            <path d="M25.5, 24C25.5, 24.26 25.61, 24.52 25.79, 24.71C25.98, 24.89 26.24, 25 26.5, 25C26.76, 25 27.02, 24.89 27.21, 24.71C27.39, 24.52 27.5, 24.26 27.5, 24C27.5, 23.739 27.39, 23.479 27.21, 23.29C26.84, 22.92 26.17, 22.92 25.79, 23.29C25.61, 23.479 25.5, 23.739 25.5, 24z" fill="#727272" fill-opacity="1" class="Black" />
          </g>
        </g>
      </g>
    </g>
  </g>
  <g id="Capa_1" transform="translate(4.30500003814697, 7.99999862670898)" style="enable-background:new 0 0 60 60">
    <g transform="matrix(0.5, 0, 0, 0.5, 0, 0)">
      <g transform="matrix(1.1428, 0, 0, 1.1428, 0, 0)">
        <g transform="matrix(0.4667, 0, 0, 0.4667, 0, 0)">
          <g>
            <path d="M21.5, 30C20.948, 30 20.5, 30.447 20.5, 31C20.5, 31.553 20.948, 32 21.5, 32L31.5, 32C32.052, 32 32.5, 31.553 32.5, 31C32.5, 30.447 32.052, 30 31.5, 30L21.5, 30z" fill="#727272" fill-opacity="1" class="Black" />
          </g>
        </g>
      </g>
    </g>
  </g>
  <g id="Capa_1" transform="translate(4.30500053405762, 7.9999991607666)" style="enable-background:new 0 0 60 60">
    <g transform="matrix(0.5, 0, 0, 0.5, 0, 0)">
      <g transform="matrix(1.1428, 0, 0, 1.1428, 0, 0)">
        <g transform="matrix(0.4667, 0, 0, 0.4667, 0, 0)">
          <g>
            <path d="M16.5, 32C16.76, 32 17.02, 31.89 17.21, 31.71C17.39, 31.52 17.5, 31.26 17.5, 31C17.5, 30.739 17.39, 30.479 17.21, 30.29C16.84, 29.92 16.16, 29.92 15.79, 30.29C15.61, 30.479 15.5, 30.729 15.5, 31C15.5, 31.26 15.61, 31.52 15.79, 31.71C15.98, 31.89 16.24, 32 16.5, 32z" fill="#727272" fill-opacity="1" class="Black" />
          </g>
        </g>
      </g>
    </g>
  </g>
  <g id="Capa_1" transform="translate(4.30499908447266, 8.00000061035156)" style="enable-background:new 0 0 60 60">
    <g transform="matrix(0.5, 0, 0, 0.5, 0, 0)">
      <g transform="matrix(1.1428, 0, 0, 1.1428, 0, 0)">
        <g transform="matrix(0.4667, 0, 0, 0.4667, 0, 0)">
          <g>
            <path d="M43.5, 44L36.5, 44C35.948, 44 35.5, 44.447 35.5, 45C35.5, 45.553 35.948, 46 36.5, 46L43.5, 46C44.052, 46 44.5, 45.553 44.5, 45C44.5, 44.447 44.052, 44 43.5, 44z" fill="#727272" fill-opacity="1" class="Black" />
          </g>
        </g>
      </g>
    </g>
  </g>
  <g id="Capa_1" transform="translate(4.30500003814697, 8.00000061035156)" style="enable-background:new 0 0 60 60">
    <g transform="matrix(0.5, 0, 0, 0.5, 0, 0)">
      <g transform="matrix(1.1428, 0, 0, 1.1428, 0, 0)">
        <g transform="matrix(0.4667, 0, 0, 0.4667, 0, 0)">
          <g>
            <path d="M31.5, 44L21.5, 44C20.948, 44 20.5, 44.447 20.5, 45C20.5, 45.553 20.948, 46 21.5, 46L31.5, 46C32.052, 46 32.5, 45.553 32.5, 45C32.5, 44.447 32.052, 44 31.5, 44z" fill="#727272" fill-opacity="1" class="Black" />
          </g>
        </g>
      </g>
    </g>
  </g>
  <g id="Capa_1" transform="translate(4.30500053405762, 7.99999923706055)" style="enable-background:new 0 0 60 60">
    <g transform="matrix(0.5, 0, 0, 0.5, 0, 0)">
      <g transform="matrix(1.1428, 0, 0, 1.1428, 0, 0)">
        <g transform="matrix(0.4667, 0, 0, 0.4667, 0, 0)">
          <g>
            <path d="M15.79, 44.29C15.61, 44.47 15.5, 44.729 15.5, 45C15.5, 45.27 15.6, 45.52 15.79, 45.71C15.98, 45.89 16.24, 46 16.5, 46C16.77, 46 17.02, 45.89 17.21, 45.71C17.39, 45.52 17.5, 45.26 17.5, 45C17.5, 44.729 17.39, 44.479 17.21, 44.3C16.84, 43.92 16.17, 43.92 15.79, 44.29z" fill="#727272" fill-opacity="1" class="Black" />
          </g>
        </g>
      </g>
    </g>
  </g>
  <g id="Capa_1" transform="translate(4.30499938964844, 8.00000076293945)" style="enable-background:new 0 0 60 60">
    <g transform="matrix(0.5, 0, 0, 0.5, 0, 0)">
      <g transform="matrix(1.1428, 0, 0, 1.1428, 0, 0)">
        <g transform="matrix(0.4667, 0, 0, 0.4667, 0, 0)">
          <g>
            <path d="M42.79, 23.29C42.61, 23.479 42.5, 23.739 42.5, 24C42.5, 24.26 42.61, 24.52 42.79, 24.71C42.98, 24.89 43.24, 25 43.5, 25C43.76, 25 44.02, 24.89 44.21, 24.71C44.4, 24.52 44.5, 24.26 44.5, 24C44.5, 23.739 44.4, 23.479 44.21, 23.29C43.83, 22.92 43.17, 22.92 42.79, 23.29z" fill="#727272" fill-opacity="1" class="Black" />
          </g>
        </g>
      </g>
    </g>
  </g>
  <g id="Capa_1" transform="translate(4.30499893188477, 7.99999946594238)" style="enable-background:new 0 0 60 60">
    <g transform="matrix(0.5, 0, 0, 0.5, 0, 0)">
      <g transform="matrix(1.1428, 0, 0, 1.1428, 0, 0)">
        <g transform="matrix(0.4667, 0, 0, 0.4667, 0, 0)">
          <g>
            <path d="M39.21, 38.71C39.39, 38.52 39.5, 38.26 39.5, 38C39.5, 37.739 39.39, 37.479 39.21, 37.29C38.83, 36.92 38.16, 36.92 37.79, 37.29C37.61, 37.479 37.5, 37.739 37.5, 38C37.5, 38.26 37.61, 38.52 37.79, 38.71C37.98, 38.899 38.23, 39 38.5, 39C38.77, 39 39.02, 38.89 39.21, 38.71z" fill="#727272" fill-opacity="1" class="Black" />
          </g>
        </g>
      </g>
    </g>
  </g>
  <g id="Capa_1" transform="translate(4.30499938964844, 7.99999946594238)" style="enable-background:new 0 0 60 60">
    <g transform="matrix(0.5, 0, 0, 0.5, 0, 0)">
      <g transform="matrix(1.1428, 0, 0, 1.1428, 0, 0)">
        <g transform="matrix(0.4667, 0, 0, 0.4667, 0, 0)">
          <g>
            <path d="M42.79, 37.29C42.61, 37.479 42.5, 37.739 42.5, 38C42.5, 38.26 42.61, 38.52 42.79, 38.71C42.98, 38.89 43.23, 39 43.5, 39C43.77, 39 44.02, 38.89 44.21, 38.71C44.39, 38.52 44.5, 38.26 44.5, 38C44.5, 37.739 44.39, 37.479 44.21, 37.29C43.84, 36.92 43.16, 36.92 42.79, 37.29z" fill="#727272" fill-opacity="1" class="Black" />
          </g>
        </g>
      </g>
    </g>
  </g>
</svg>