<?xml version="1.0" encoding="UTF-8" standalone="no"?>
<svg
   viewBox="-2.0025 -2.0025 32 32"
   version="1.1"
   id="svg2"
   sodipodi:docname="pen-gray.svg"
   inkscape:version="1.4 (e7c3feb100, 2024-10-09)"
   xmlns:inkscape="http://www.inkscape.org/namespaces/inkscape"
   xmlns:sodipodi="http://sodipodi.sourceforge.net/DTD/sodipodi-0.dtd"
   xmlns="http://www.w3.org/2000/svg"
   xmlns:svg="http://www.w3.org/2000/svg">
  <defs
     id="defs2" />
  <sodipodi:namedview
     id="namedview2"
     pagecolor="#ffffff"
     bordercolor="#000000"
     borderopacity="0.25"
     inkscape:showpageshadow="2"
     inkscape:pageopacity="0.0"
     inkscape:pagecheckerboard="0"
     inkscape:deskcolor="#d1d1d1"
     inkscape:zoom="25.21875"
     inkscape:cx="16"
     inkscape:cy="16"
     inkscape:window-width="1920"
     inkscape:window-height="969"
     inkscape:window-x="0"
     inkscape:window-y="0"
     inkscape:window-maximized="1"
     inkscape:current-layer="svg2" />
  <g
     transform="translate(-0.0019, -0.0326)"
     id="g2"
     style="fill:#727272;fill-opacity:1">
    <g
       transform="matrix(0.0547428466379642, 0, 0, 0.0547428466379642, 0, 0)"
       id="g1"
       style="fill:#727272;fill-opacity:1">
      <path
         d="M362.7, 19.3L314.3, 67.7L444.3, 197.7L492.7, 149.3C517.7, 124.3 517.7, 83.8 492.7, 58.8L453.3, 19.3C428.3, -5.7 387.8, -5.7 362.8, 19.3zM291.7, 90.3L58.6, 323.5C48.2, 333.9 40.6, 346.8 36.4, 360.9L1, 481.2C-1.5, 489.7 0.8, 498.8 7, 505C13.2, 511.2 22.3, 513.5 30.7, 511.1L151, 475.7C165.1, 471.5 178, 463.9 188.4, 453.5L421.7, 220.3L291.7, 90.3z"
         id="path1"
         style="fill:#727272;fill-opacity:1" />
    </g>
  </g>
</svg>
