<?xml version='1.0' encoding='UTF-8'?>
<svg viewBox="-6.0475 -2 32 32" xmlns="http://www.w3.org/2000/svg" >
  <g id="Layer_1" transform="translate(-4.04650068664551, -9.99380111694759E-05)" style="enable-background:new 0 0 401.6 401.6">
    <g transform="matrix(0.874940931797028, 0, 0, 0.874940931797028, 0, 0)">
      <g transform="matrix(1.1432, 0, 0, 1.1432, 0, 0)">
        <g transform="matrix(0.0697, 0, 0, 0.0697, 0, 0)">
          <g transform="translate(30, 15)">
            <g>
              <path d="M95.072, 41L80.672, -1.8C79.872, -4.2 81.872, -7 84.672, -7L257.472, -7C260.272, -7 262.272, -4.2 261.072, -1.8L247.072, 41" fill="#727272" fill-opacity="1" class="Black" />
            </g>
          </g>
        </g>
      </g>
    </g>
  </g>
  <g id="Layer_1" transform="translate(-4.04649982833862, -0.000100267028808609)" style="enable-background:new 0 0 401.6 401.6">
    <g transform="matrix(0.874940931797028, 0, 0, 0.874940931797028, 0, 0)">
      <g transform="matrix(1.1432, 0, 0, 1.1432, 0, 0)">
        <g transform="matrix(0.0697, 0, 0, 0.0697, 0, 0)">
          <g transform="translate(30, 15)">
            <g>
              <path d="M77.472, 169L95.072, 41L247.072, 41L264.672, 169C266.272, 179.4 269.872, 189.4 275.072, 198.6L303.872, 246.6C308.672, 254.6 303.072, 264.6 293.472, 264.6L48.272, 264.6C39.072, 264.6 33.072, 254.6 37.872, 246.6L66.672, 198.6C72.272, 189.8 75.872, 179.8 77.472, 169L77.472, 169z" fill="#727272" fill-opacity="1" class="Black" />
            </g>
          </g>
        </g>
      </g>
    </g>
  </g>
  <g id="Layer_1" transform="translate(-4.04650080108643, -9.99380111694759E-05)" style="enable-background:new 0 0 401.6 401.6">
    <g transform="matrix(0.874940931797028, 0, 0, 0.874940931797028, 0, 0)">
      <g transform="matrix(1.1432, 0, 0, 1.1432, 0, 0)">
        <g transform="matrix(0.0697, 0, 0, 0.0697, 0, 0)">
          <g transform="translate(30, 15)">
            <path d="M203.472, 201C200.272, 188.2 197.872, 167 197.872, 153.8L197.872, 41L209.872, -7L261.872, -7L244.672, 41L257.872, 165.4C259.472, 175.8 263.072, 185.8 268.272, 195L297.072, 243C301.872, 251 296.272, 261 286.672, 261L241.872, 261C228.672, 261 215.472, 250.6 212.272, 237.8L203.472, 201L203.472, 201z" fill="#727272" fill-opacity="1" class="Black" />
          </g>
        </g>
      </g>
    </g>
  </g>
  <g id="Layer_1" transform="translate(-4.04649943695068, -0.000100906372068721)" style="enable-background:new 0 0 401.6 401.6">
    <g transform="matrix(0.874940931797028, 0, 0, 0.874940931797028, 0, 0)">
      <g transform="matrix(1.1432, 0, 0, 1.1432, 0, 0)">
        <g transform="matrix(0.0697, 0, 0, 0.0697, 0, 0)">
          <g transform="translate(30, 15)">
            <g>
              <path d="M145.872, 265L169.872, 385L193.872, 265" fill="#727272" fill-opacity="1" class="Black" />
            </g>
          </g>
        </g>
      </g>
    </g>
  </g>
  <g id="Layer_1" transform="translate(-4.04650091552734, -0.000101983642579739)" style="enable-background:new 0 0 401.6 401.6">
    <g transform="matrix(0.874940931797028, 0, 0, 0.874940931797028, 0, 0)">
      <g transform="matrix(1.1432, 0, 0, 1.1432, 0, 0)">
        <g transform="matrix(0.0697, 0, 0, 0.0697, 0, 0)">
          <g transform="translate(30, 15)">
            <g>
              <path d="M177.872, 386.6L161.872, 386.6L137.872, 266.6C137.072, 262.2 139.872, 258.2 144.272, 257C148.672, 256.2 152.672, 259 153.872, 263.4L169.872, 344.2L185.872, 263.4C186.672, 259 191.072, 256.2 195.472, 257C199.872, 257.8 202.672, 262.2 201.872, 266.6L177.872, 386.6z" fill="#727272" fill-opacity="1" class="Black" />
            </g>
          </g>
        </g>
      </g>
    </g>
  </g>
  <g id="Layer_1" transform="translate(-4.04650003814697, -0.0001)" style="enable-background:new 0 0 401.6 401.6">
    <g transform="matrix(0.874940931797028, 0, 0, 0.874940931797028, 0, 0)">
      <g transform="matrix(1.1432, 0, 0, 1.1432, 0, 0)">
        <g transform="matrix(0.0697, 0, 0, 0.0697, 0, 0)">
          <g transform="translate(30, 15)">
            <g>
              <path d="M95.072, 49C91.872, 49 88.672, 47 87.472, 43.4L73.072, 0.6C71.872, -3 72.672, -6.6 74.672, -9.8C77.072, -13 80.672, -15 84.672, -15L257.472, -15C261.472, -15 265.472, -13 267.872, -9.4C269.472, -6.2 269.872, -2.2 268.672, 1L254.672, 43.4C253.472, 47.8 248.672, 49.8 244.672, 48.6C240.672, 47.4 238.272, 42.6 239.472, 38.6L251.872, 1L89.872, 1L102.272, 38.6C103.872, 42.6 101.472, 47.4 97.072, 48.6C96.672, 49 95.872, 49 95.072, 49z" fill="#727272" fill-opacity="1" class="Black" />
            </g>
          </g>
        </g>
      </g>
    </g>
  </g>
  <g id="Layer_1" transform="translate(-4.0465, -0.000100152587890534)" style="enable-background:new 0 0 401.6 401.6">
    <g transform="matrix(0.874940931797028, 0, 0, 0.874940931797028, 0, 0)">
      <g transform="matrix(1.1432, 0, 0, 1.1432, 0, 0)">
        <g transform="matrix(0.0697, 0, 0, 0.0697, 0, 0)">
          <g transform="translate(30, 15)">
            <g>
              <path d="M293.472, 272.6L48.272, 272.6C41.072, 272.6 34.272, 268.6 30.672, 262.2C27.072, 255.8 27.072, 248.6 31.072, 242.2L59.872, 194.2C65.072, 186.2 68.272, 177.4 69.472, 167.4L88.272, 33L253.872, 33L272.272, 167.8C273.872, 177 276.672, 185.8 281.872, 194.6L310.672, 242.6C314.272, 249 314.672, 256.2 311.072, 262.6C307.472, 269 301.072, 272.6 293.472, 272.6zM101.872, 49L85.072, 170.2C83.472, 182.2 79.072, 193.4 73.072, 203L44.272, 251C43.472, 252.6 43.872, 254.2 44.272, 254.6C44.672, 255.4 45.872, 256.6 47.872, 256.6L293.072, 256.6C295.472, 256.6 296.272, 255.4 296.672, 254.6C297.072, 253.8 297.472, 252.6 296.672, 250.6L267.872, 202.6C261.872, 192.2 258.272, 181.4 256.272, 170.2L240.272, 49L101.872, 49zM77.472, 169L77.472, 169L77.472, 169z" fill="#727272" fill-opacity="1" class="Black" />
            </g>
          </g>
        </g>
      </g>
    </g>
  </g>
  <g id="Layer_1" transform="translate(-4.0465008392334, -0.00010114440918052)" style="enable-background:new 0 0 401.6 401.6">
    <g transform="matrix(0.874940931797028, 0, 0, 0.874940931797028, 0, 0)">
      <g transform="matrix(1.1432, 0, 0, 1.1432, 0, 0)">
        <g transform="matrix(0.0697, 0, 0, 0.0697, 0, 0)">
          <g transform="translate(30, 15)">
            <g>
              <path d="M135.072, 193L123.072, 193C118.672, 193 115.072, 189.4 115.072, 185C115.072, 180.6 118.672, 177 123.072, 177L135.072, 177C139.472, 177 143.072, 180.6 143.072, 185C143.072, 189.4 139.472, 193 135.072, 193z" fill="#727272" fill-opacity="1" class="Black" />
            </g>
          </g>
        </g>
      </g>
    </g>
  </g>
  <g id="Layer_1" transform="translate(-4.04650003814697, -0.00010114440918052)" style="enable-background:new 0 0 401.6 401.6">
    <g transform="matrix(0.874940931797028, 0, 0, 0.874940931797028, 0, 0)">
      <g transform="matrix(1.1432, 0, 0, 1.1432, 0, 0)">
        <g transform="matrix(0.0697, 0, 0, 0.0697, 0, 0)">
          <g transform="translate(30, 15)">
            <g>
              <path d="M267.072, 193L171.072, 193C166.672, 193 163.072, 189.4 163.072, 185C163.072, 180.6 166.672, 177 171.072, 177L267.072, 177C271.472, 177 275.072, 180.6 275.072, 185C275.072, 189.4 271.472, 193 267.072, 193z" fill="#727272" fill-opacity="1" class="Black" />
            </g>
          </g>
        </g>
      </g>
    </g>
  </g>
</svg>