<?xml version='1.0' encoding='UTF-8'?>
<svg viewBox="-2 -6.0001 32 32" xmlns="http://www.w3.org/2000/svg" >
  <g id="Layer_1" transform="translate(0, -4.00010667572021)" style="enable-background:new 0 0 374 374">
    <g transform="matrix(0.074866309762001, 0, 0, 0.074866309762001, 0, 0)">
      <g>
        <rect x="0" y="53.43" width="374" height="267.139" rx="0" ry="0" fill="#C3C6C8" />
      </g>
    </g>
  </g>
  <g id="Layer_1" transform="translate(-1.02615356656344E-07, -4.00010667572021)" style="enable-background:new 0 0 374 374">
    <g transform="matrix(0.074866309762001, 0, 0, 0.074866309762001, 0, 0)">
      <g>
        <g>
          <g>
            <rect x="26.715" y="80.144" width="53.43" height="53.428" rx="0" ry="0" fill="#005FAD" />
          </g>
        </g>
      </g>
    </g>
  </g>
  <g id="Layer_1" transform="translate(-6.82067871515812E-07, -4.00010667572021)" style="enable-background:new 0 0 374 374">
    <g transform="matrix(0.074866309762001, 0, 0, 0.074866309762001, 0, 0)">
      <g>
        <g>
          <g>
            <rect x="80.145" y="80.144" width="53.428" height="53.428" rx="0" ry="0" fill="#0071CE" />
          </g>
        </g>
      </g>
    </g>
  </g>
  <g id="Layer_1" transform="translate(0, -4.00010667572021)" style="enable-background:new 0 0 374 374">
    <g transform="matrix(0.074866309762001, 0, 0, 0.074866309762001, 0, 0)">
      <g>
        <g>
          <g>
            <rect x="133.572" y="80.144" width="53.428" height="53.428" rx="0" ry="0" fill="#5E96DC" />
          </g>
        </g>
      </g>
    </g>
  </g>
  <g id="Layer_1" transform="translate(-1.02615356656344E-07, -4.00010681152344)" style="enable-background:new 0 0 374 374">
    <g transform="matrix(0.074866309762001, 0, 0, 0.074866309762001, 0, 0)">
      <g>
        <g>
          <g>
            <rect x="26.715" y="133.572" width="53.43" height="53.429" rx="0" ry="0" fill="#4F7FBA" />
          </g>
        </g>
      </g>
    </g>
  </g>
  <g id="Layer_1" transform="translate(-6.82067871515812E-07, -4.00010681152344)" style="enable-background:new 0 0 374 374">
    <g transform="matrix(0.074866309762001, 0, 0, 0.074866309762001, 0, 0)">
      <g>
        <g>
          <g>
            <rect x="80.145" y="133.572" width="53.428" height="53.429" rx="0" ry="0" fill="#005FAD" />
          </g>
        </g>
      </g>
    </g>
  </g>
  <g id="Layer_1" transform="translate(-6.82067871515812E-07, -4.00010667572021)" style="enable-background:new 0 0 374 374">
    <g transform="matrix(0.074866309762001, 0, 0, 0.074866309762001, 0, 0)">
      <g>
        <g>
          <g>
            <rect x="80.145" y="187.001" width="53.428" height="53.429" rx="0" ry="0" fill="#5E96DC" />
          </g>
        </g>
      </g>
    </g>
  </g>
  <g id="Layer_1" transform="translate(0, -4.00010681152344)" style="enable-background:new 0 0 374 374">
    <g transform="matrix(0.074866309762001, 0, 0, 0.074866309762001, 0, 0)">
      <g>
        <g>
          <g>
            <rect x="133.572" y="133.572" width="53.428" height="53.429" rx="0" ry="0" fill="#0071CE" />
          </g>
        </g>
      </g>
    </g>
  </g>
  <g id="Layer_1" transform="translate(0, -4.00010667572021)" style="enable-background:new 0 0 374 374">
    <g transform="matrix(0.074866309762001, 0, 0, 0.074866309762001, 0, 0)">
      <g>
        <g>
          <g>
            <rect x="187" y="80.144" width="53.428" height="53.428" rx="0" ry="0" fill="#0071CE" />
          </g>
        </g>
      </g>
    </g>
  </g>
  <g id="Layer_1" transform="translate(0, -4.00010667572021)" style="enable-background:new 0 0 374 374">
    <g transform="matrix(0.074866309762001, 0, 0, 0.074866309762001, 0, 0)">
      <g>
        <g>
          <g>
            <rect x="240.428" y="80.144" width="53.43" height="53.428" rx="0" ry="0" fill="#005FAD" />
          </g>
        </g>
      </g>
    </g>
  </g>
  <g id="Layer_1" transform="translate(0, -4.00010667572021)" style="enable-background:new 0 0 374 374">
    <g transform="matrix(0.074866309762001, 0, 0, 0.074866309762001, 0, 0)">
      <g>
        <g>
          <g>
            <rect x="293.857" y="80.144" width="53.428" height="53.428" rx="0" ry="0" fill="#0071CE" />
          </g>
        </g>
      </g>
    </g>
  </g>
  <g id="Layer_1" transform="translate(0, -4.00010681152344)" style="enable-background:new 0 0 374 374">
    <g transform="matrix(0.074866309762001, 0, 0, 0.074866309762001, 0, 0)">
      <g>
        <g>
          <g>
            <rect x="240.428" y="133.572" width="53.43" height="53.429" rx="0" ry="0" fill="#4F7FBA" />
          </g>
        </g>
      </g>
    </g>
  </g>
  <g id="Layer_1" transform="translate(0, -4.00010681152344)" style="enable-background:new 0 0 374 374">
    <g transform="matrix(0.074866309762001, 0, 0, 0.074866309762001, 0, 0)">
      <g>
        <g>
          <g>
            <rect x="293.857" y="133.572" width="53.428" height="53.429" rx="0" ry="0" fill="#005FAD" />
          </g>
        </g>
      </g>
    </g>
  </g>
  <g id="Layer_1" transform="translate(0, -4.00010667572021)" style="enable-background:new 0 0 374 374">
    <g transform="matrix(0.074866309762001, 0, 0, 0.074866309762001, 0, 0)">
      <g>
        <g>
          <g>
            <rect x="293.857" y="187.001" width="53.428" height="53.429" rx="0" ry="0" fill="#5E96DC" />
          </g>
        </g>
      </g>
    </g>
  </g>
  <g id="Layer_1" transform="translate(-1.02615356656344E-07, -4.00010667572021)" style="enable-background:new 0 0 374 374">
    <g transform="matrix(0.074866309762001, 0, 0, 0.074866309762001, 0, 0)">
      <g>
        <g>
          <rect x="26.715" y="187.001" width="53.43" height="53.429" rx="0" ry="0" fill="#00BD5E" />
        </g>
      </g>
    </g>
  </g>
  <g id="Layer_1" transform="translate(-1.02615356656344E-07, -4.00010681152344)" style="enable-background:new 0 0 374 374">
    <g transform="matrix(0.074866309762001, 0, 0, 0.074866309762001, 0, 0)">
      <g>
        <g>
          <rect x="26.715" y="240.429" width="53.43" height="53.428" rx="0" ry="0" fill="#00BD5E" />
        </g>
      </g>
    </g>
  </g>
  <g id="Layer_1" transform="translate(-6.82067871515812E-07, -4.00010681152344)" style="enable-background:new 0 0 374 374">
    <g transform="matrix(0.074866309762001, 0, 0, 0.074866309762001, 0, 0)">
      <g>
        <g>
          <rect x="80.145" y="240.429" width="53.428" height="53.428" rx="0" ry="0" fill="#009638" />
        </g>
      </g>
    </g>
  </g>
  <g id="Layer_1" transform="translate(0, -4.00010681152344)" style="enable-background:new 0 0 374 374">
    <g transform="matrix(0.074866309762001, 0, 0, 0.074866309762001, 0, 0)">
      <g>
        <g>
          <rect x="133.572" y="240.429" width="53.428" height="53.428" rx="0" ry="0" fill="#009638" />
        </g>
      </g>
    </g>
  </g>
  <g id="Layer_1" transform="translate(0, -4.00010681152344)" style="enable-background:new 0 0 374 374">
    <g transform="matrix(0.074866309762001, 0, 0, 0.074866309762001, 0, 0)">
      <g>
        <g>
          <rect x="187" y="240.429" width="53.428" height="53.428" rx="0" ry="0" fill="#00BD5E" />
        </g>
      </g>
    </g>
  </g>
  <g id="Layer_1" transform="translate(0, -4.00010681152344)" style="enable-background:new 0 0 374 374">
    <g transform="matrix(0.074866309762001, 0, 0, 0.074866309762001, 0, 0)">
      <g>
        <g>
          <rect x="240.428" y="240.429" width="53.43" height="53.428" rx="0" ry="0" fill="#00BD5E" />
        </g>
      </g>
    </g>
  </g>
  <g id="Layer_1" transform="translate(0, -4.00010681152344)" style="enable-background:new 0 0 374 374">
    <g transform="matrix(0.074866309762001, 0, 0, 0.074866309762001, 0, 0)">
      <g>
        <g>
          <rect x="293.857" y="240.429" width="53.428" height="53.428" rx="0" ry="0" fill="#009638" />
        </g>
      </g>
    </g>
  </g>
  <g id="Layer_1" transform="translate(0, -4.00010667572021)" style="enable-background:new 0 0 374 374">
    <g transform="matrix(0.074866309762001, 0, 0, 0.074866309762001, 0, 0)">
      <g>
        <g>
          <rect x="133.572" y="187.001" width="53.428" height="53.429" rx="0" ry="0" fill="#00BD5E" />
        </g>
      </g>
    </g>
  </g>
  <g id="Layer_1" transform="translate(0, -4.00010667572021)" style="enable-background:new 0 0 374 374">
    <g transform="matrix(0.074866309762001, 0, 0, 0.074866309762001, 0, 0)">
      <g>
        <g>
          <rect x="187" y="187.001" width="53.428" height="53.429" rx="0" ry="0" fill="#009638" />
        </g>
      </g>
    </g>
  </g>
  <g id="Layer_1" transform="translate(0, -4.00010681152344)" style="enable-background:new 0 0 374 374">
    <g transform="matrix(0.074866309762001, 0, 0, 0.074866309762001, 0, 0)">
      <g>
        <g>
          <rect x="187" y="133.572" width="53.428" height="53.429" rx="0" ry="0" fill="#00BD5E" />
        </g>
      </g>
    </g>
  </g>
  <g id="Layer_1" transform="translate(0, -4.00010667572021)" style="enable-background:new 0 0 374 374">
    <g transform="matrix(0.074866309762001, 0, 0, 0.074866309762001, 0, 0)">
      <g>
        <g>
          <rect x="240.428" y="187.001" width="53.43" height="53.429" rx="0" ry="0" fill="#00BD5E" />
        </g>
      </g>
    </g>
  </g>
</svg>