<?xml version="1.0" encoding="UTF-8" standalone="no"?>
<svg
   viewBox="-2 -7.42 32 32"
   version="1.1"
   id="svg110"
   sodipodi:docname="plug.svg"
   inkscape:export-filename="plug.png"
   inkscape:export-xdpi="96"
   inkscape:export-ydpi="96"
   inkscape:version="1.4 (e7c3feb100, 2024-10-09)"
   xmlns:inkscape="http://www.inkscape.org/namespaces/inkscape"
   xmlns:sodipodi="http://sodipodi.sourceforge.net/DTD/sodipodi-0.dtd"
   xmlns="http://www.w3.org/2000/svg"
   xmlns:svg="http://www.w3.org/2000/svg">
  <defs
     id="defs110" />
  <sodipodi:namedview
     id="namedview110"
     pagecolor="#ffffff"
     bordercolor="#000000"
     borderopacity="0.25"
     inkscape:showpageshadow="2"
     inkscape:pageopacity="0.0"
     inkscape:pagecheckerboard="0"
     inkscape:deskcolor="#d1d1d1"
     inkscape:zoom="17.655572"
     inkscape:cx="13.79168"
     inkscape:cy="19.908729"
     inkscape:window-width="1920"
     inkscape:window-height="969"
     inkscape:window-x="0"
     inkscape:window-y="0"
     inkscape:window-maximized="1"
     inkscape:current-layer="svg110" />
  <g
     id="Layer_1"
     transform="translate(0, -5.42)"
     style="enable-background:new 0 0 496 496">
    <g
       transform="matrix(0.875, 0, 0, 0.875, 0, 0)"
       id="g3">
      <g
         transform="matrix(1.1418, 0, 0, 1.1418, 0, 0)"
         id="g2">
        <g
           transform="matrix(0.0565, 0, 0, 0.0565, 0, 0)"
           id="g1">
          <path
             d="M496, 378.4C496, 392 484.8, 400 472, 400L24, 400C10.4, 400 0, 391.2 0, 378.4L0, 117.6C0, 104.8 11.2, 96 24, 96L472, 96C485.6, 96 496, 104.8 496, 117.6L496, 378.4z"
             fill="#FFB115"
             fill-opacity="1"
             class="Yellow"
             id="path1" />
        </g>
      </g>
    </g>
  </g>
  <g
     id="g8"
     transform="translate(0, -5.42)"
     style="enable-background:new 0 0 496 496">
    <g
       transform="matrix(0.875, 0, 0, 0.875, 0, 0)"
       id="g7">
      <g
         transform="matrix(1.1418, 0, 0, 1.1418, 0, 0)"
         id="g6">
        <g
           transform="matrix(0.0565, 0, 0, 0.0565, 0, 0)"
           id="g5">
          <g
             id="g4">
            <path
               d="M0, 119.2C0, 105.6 11.2, 96 24, 96L472, 96C485.6, 96 496, 104.8 496, 117.6L496, 377.6C496, 391.2 484.8, 399.2 472, 399.2"
               fill="#FFB115"
               fill-opacity="1"
               class="Yellow"
               id="path3" />
          </g>
        </g>
      </g>
    </g>
  </g>
  <g
     id="g13"
     transform="translate(0, -5.42)"
     style="enable-background:new 0 0 496 496">
    <g
       transform="matrix(0.875, 0, 0, 0.875, 0, 0)"
       id="g12">
      <g
         transform="matrix(1.1418, 0, 0, 1.1418, 0, 0)"
         id="g11">
        <g
           transform="matrix(0.0565, 0, 0, 0.0565, 0, 0)"
           id="g10">
          <g
             id="g9">
            <path
               d="M394.4, 360C394.4, 373.6 383.2, 384 369.6, 384L126.4, 384C112.8, 384 101.6, 373.6 101.6, 360L76.8, 185.6C76.8, 172 88, 160 101.6, 160L395.2, 160C408.8, 160 420, 172 420, 185.6L394.4, 360z"
               fill="#727272"
               fill-opacity="1"
               class="Black"
               id="path8" />
          </g>
        </g>
      </g>
    </g>
  </g>
  <g
     id="g18"
     transform="translate(0, -5.42)"
     style="enable-background:new 0 0 496 496">
    <g
       transform="matrix(0.875, 0, 0, 0.875, 0, 0)"
       id="g17">
      <g
         transform="matrix(1.1418, 0, 0, 1.1418, 0, 0)"
         id="g16">
        <g
           transform="matrix(0.0565, 0, 0, 0.0565, 0, 0)"
           id="g15">
          <g
             id="g14">
            <path
               d="M464, 279.2C464, 292 452, 304 439.2, 304L56.8, 304C44, 304 32, 292 32, 279.2L32, 247.2C32, 234.4 44, 224 56.8, 224L438.4, 224C451.2, 224 463.2, 234.4 463.2, 247.2L463.2, 279.2L464, 279.2z"
               fill="#727272"
               fill-opacity="1"
               class="Black"
               id="path13" />
          </g>
        </g>
      </g>
    </g>
  </g>
  <g
     id="g23"
     transform="translate(0, -5.42)"
     style="enable-background:new 0 0 496 496">
    <g
       transform="matrix(0.875, 0, 0, 0.875, 0, 0)"
       id="g22">
      <g
         transform="matrix(1.1418, 0, 0, 1.1418, 0, 0)"
         id="g21">
        <g
           transform="matrix(0.0565, 0, 0, 0.0565, 0, 0)"
           id="g20">
          <g
             id="g19">
            <path
               d="M394.4, 335.2C394.4, 348.8 383.2, 360 369.6, 360L126.4, 360C112.8, 360 101.6, 348.8 101.6, 335.2L76.8, 161.6C76.8, 148 88, 136.8 101.6, 136.8L395.2, 136.8C408.8, 136.8 420, 148 420, 161.6L394.4, 335.2z"
               fill="#FFFFFF"
               fill-opacity="1"
               class="White"
               id="path18" />
          </g>
        </g>
      </g>
    </g>
  </g>
  <g
     id="g28"
     transform="translate(0, -5.42)"
     style="enable-background:new 0 0 496 496">
    <g
       transform="matrix(0.875, 0, 0, 0.875, 0, 0)"
       id="g27">
      <g
         transform="matrix(1.1418, 0, 0, 1.1418, 0, 0)"
         id="g26">
        <g
           transform="matrix(0.0565, 0, 0, 0.0565, 0, 0)"
           id="g25">
          <g
             id="g24">
            <path
               d="M464, 264C464, 276.8 452, 288 439.2, 288L56.8, 288C44, 288 32, 276.8 32, 264L32, 232C32, 219.2 44, 208 56.8, 208L438.4, 208C451.2, 208 463.2, 219.2 463.2, 232L463.2, 264L464, 264z"
               fill="#FFFFFF"
               fill-opacity="1"
               class="White"
               id="path23" />
          </g>
        </g>
      </g>
    </g>
  </g>
  <g
     id="g32"
     transform="translate(0, -5.42)"
     style="enable-background:new 0 0 496 496">
    <g
       transform="matrix(0.875, 0, 0, 0.875, 0, 0)"
       id="g31">
      <g
         transform="matrix(1.1418, 0, 0, 1.1418, 0, 0)"
         id="g30">
        <g
           transform="matrix(0.0565, 0, 0, 0.0565, 0, 0)"
           id="g29">
          <path
             d="M360.8, 326.4C360.8, 336.8 352, 344 341.6, 344L154.4, 344C144, 344 135.2, 337.6 135.2, 326.4L116, 193.6C116, 183.2 124.8, 175.2 135.2, 175.2L360.8, 175.2C371.2, 175.2 380, 182.4 380, 193.6L360.8, 326.4z"
             fill="#727272"
             fill-opacity="1"
             class="Black"
             id="path28" />
        </g>
      </g>
    </g>
  </g>
  <g
     id="g36"
     transform="translate(0, -5.42)"
     style="enable-background:new 0 0 496 496">
    <g
       transform="matrix(0.875, 0, 0, 0.875, 0, 0)"
       id="g35">
      <g
         transform="matrix(1.1418, 0, 0, 1.1418, 0, 0)"
         id="g34">
        <g
           transform="matrix(0.0565, 0, 0, 0.0565, 0, 0)"
           id="g33">
          <path
             d="M360.8, 316C360.8, 326.4 352, 336 341.6, 336L154.4, 336C144, 336 135.2, 326.4 135.2, 316L116, 180.8C116, 170.4 124.8, 160 135.2, 160L360.8, 160C371.2, 160 380, 170.4 380, 180.8L360.8, 316z"
             fill="#1177D7"
             fill-opacity="1"
             class="Blue"
             id="path32" />
        </g>
      </g>
    </g>
  </g>
  <g
     id="g40"
     transform="translate(0, -5.42)"
     style="enable-background:new 0 0 496 496">
    <g
       transform="matrix(0.875, 0, 0, 0.875, 0, 0)"
       id="g39">
      <g
         transform="matrix(1.1418, 0, 0, 1.1418, 0, 0)"
         id="g38">
        <g
           transform="matrix(0.0565, 0, 0, 0.0565, 0, 0)"
           id="g37">
          <path
             d="M136, 160L360.8, 160C371.2, 160 380, 169.6 380, 180L360.8, 313.6"
             fill="#1177D7"
             fill-opacity="1"
             class="Blue"
             id="path36" />
        </g>
      </g>
    </g>
  </g>
  <g
     id="g45"
     transform="translate(0, -5.42)"
     style="enable-background:new 0 0 496 496">
    <g
       transform="matrix(0.875, 0, 0, 0.875, 0, 0)"
       id="g44">
      <g
         transform="matrix(1.1418, 0, 0, 1.1418, 0, 0)"
         id="g43">
        <g
           transform="matrix(0.0565, 0, 0, 0.0565, 0, 0)"
           id="g42">
          <g
             id="g41">
            <path
               d="M53.6, 240C49.6, 244.8 50.4, 252 55.2, 256.8C60, 261.6 67.2, 261.6 72, 258.4L53.6, 240z"
               fill="#727272"
               fill-opacity="1"
               class="Black"
               id="path40" />
          </g>
        </g>
      </g>
    </g>
  </g>
  <g
     id="g50"
     transform="translate(0, -5.42)"
     style="enable-background:new 0 0 496 496">
    <g
       transform="matrix(0.875, 0, 0, 0.875, 0, 0)"
       id="g49">
      <g
         transform="matrix(1.1418, 0, 0, 1.1418, 0, 0)"
         id="g48">
        <g
           transform="matrix(0.0565, 0, 0, 0.0565, 0, 0)"
           id="g47">
          <g
             id="g46">
            <path
               d="M56, 237.6L73.6, 255.2C77.6, 250.4 76.8, 243.2 72, 238.4C68.8, 234.4 61.6, 233.6 56, 237.6z"
               fill="#727272"
               fill-opacity="1"
               class="Black"
               id="path45" />
          </g>
        </g>
      </g>
    </g>
  </g>
  <g
     id="g55"
     transform="translate(0, -5.42)"
     style="enable-background:new 0 0 496 496">
    <g
       transform="matrix(0.875, 0, 0, 0.875, 0, 0)"
       id="g54">
      <g
         transform="matrix(1.1418, 0, 0, 1.1418, 0, 0)"
         id="g53">
        <g
           transform="matrix(0.0565, 0, 0, 0.0565, 0, 0)"
           id="g52">
          <g
             id="g51">
            <path
               d="M419.2, 248C420, 256 425.6, 259.2 432, 259.2C438.4, 259.2 444, 256 444.8, 248L419.2, 248z"
               fill="#727272"
               fill-opacity="1"
               class="Black"
               id="path50" />
          </g>
        </g>
      </g>
    </g>
  </g>
  <g
     id="g60"
     transform="translate(0, -5.42)"
     style="enable-background:new 0 0 496 496">
    <g
       transform="matrix(0.875, 0, 0, 0.875, 0, 0)"
       id="g59">
      <g
         transform="matrix(1.1418, 0, 0, 1.1418, 0, 0)"
         id="g58">
        <g
           transform="matrix(0.0565, 0, 0, 0.0565, 0, 0)"
           id="g57">
          <g
             id="g56">
            <path
               d="M419.2, 244.8L444.8, 244.8C444, 236.8 438.4, 233.6 432, 233.6C425.6, 233.6 420, 236.8 419.2, 244.8z"
               fill="#727272"
               fill-opacity="1"
               class="Black"
               id="path55" />
          </g>
        </g>
      </g>
    </g>
  </g>
  <g
     id="g65"
     transform="translate(0, -5.42)"
     style="enable-background:new 0 0 496 496">
    <g
       transform="matrix(0.875, 0, 0, 0.875, 0, 0)"
       id="g64">
      <g
         transform="matrix(1.1418, 0, 0, 1.1418, 0, 0)"
         id="g63">
        <g
           transform="matrix(0.0565, 0, 0, 0.0565, 0, 0)"
           id="g62">
          <g
             id="g61">
            <circle
               cx="173.6"
               cy="228"
               r="12"
               fill="#727272"
               fill-opacity="1"
               class="Black"
               id="circle60" />
          </g>
        </g>
      </g>
    </g>
  </g>
  <g
     id="g70"
     transform="translate(0, -5.42)"
     style="enable-background:new 0 0 496 496">
    <g
       transform="matrix(0.875, 0, 0, 0.875, 0, 0)"
       id="g69">
      <g
         transform="matrix(1.1418, 0, 0, 1.1418, 0, 0)"
         id="g68">
        <g
           transform="matrix(0.0565, 0, 0, 0.0565, 0, 0)"
           id="g67">
          <g
             id="g66">
            <circle
               cx="248"
               cy="228"
               r="12"
               fill="#727272"
               fill-opacity="1"
               class="Black"
               id="circle65" />
          </g>
        </g>
      </g>
    </g>
  </g>
  <g
     id="g75"
     transform="translate(0, -5.42)"
     style="enable-background:new 0 0 496 496">
    <g
       transform="matrix(0.875, 0, 0, 0.875, 0, 0)"
       id="g74">
      <g
         transform="matrix(1.1418, 0, 0, 1.1418, 0, 0)"
         id="g73">
        <g
           transform="matrix(0.0565, 0, 0, 0.0565, 0, 0)"
           id="g72">
          <g
             id="g71">
            <circle
               cx="322.4"
               cy="228"
               r="12"
               fill="#727272"
               fill-opacity="1"
               class="Black"
               id="circle70" />
          </g>
        </g>
      </g>
    </g>
  </g>
  <g
     id="g80"
     transform="translate(0, -5.42)"
     style="enable-background:new 0 0 496 496">
    <g
       transform="matrix(0.875, 0, 0, 0.875, 0, 0)"
       id="g79">
      <g
         transform="matrix(1.1418, 0, 0, 1.1418, 0, 0)"
         id="g78">
        <g
           transform="matrix(0.0565, 0, 0, 0.0565, 0, 0)"
           id="g77">
          <g
             id="g76">
            <circle
               cx="211.2"
               cy="284.8"
               r="12"
               fill="#727272"
               fill-opacity="1"
               class="Black"
               id="circle75" />
          </g>
        </g>
      </g>
    </g>
  </g>
  <g
     id="g85"
     transform="translate(0, -5.42)"
     style="enable-background:new 0 0 496 496">
    <g
       transform="matrix(0.875, 0, 0, 0.875, 0, 0)"
       id="g84">
      <g
         transform="matrix(1.1418, 0, 0, 1.1418, 0, 0)"
         id="g83">
        <g
           transform="matrix(0.0565, 0, 0, 0.0565, 0, 0)"
           id="g82">
          <g
             id="g81">
            <circle
               cx="284.8"
               cy="284.8"
               r="12"
               fill="#727272"
               fill-opacity="1"
               class="Black"
               id="circle80" />
          </g>
        </g>
      </g>
    </g>
  </g>
  <g
     id="g90"
     transform="translate(0, -5.42)"
     style="enable-background:new 0 0 496 496">
    <g
       transform="matrix(0.875, 0, 0, 0.875, 0, 0)"
       id="g89">
      <g
         transform="matrix(1.1418, 0, 0, 1.1418, 0, 0)"
         id="g88">
        <g
           transform="matrix(0.0565, 0, 0, 0.0565, 0, 0)"
           id="g87">
          <g
             id="g86">
            <circle
               cx="173.6"
               cy="220.8"
               r="12"
               fill="#FFFFFF"
               fill-opacity="1"
               class="White"
               id="circle85" />
          </g>
        </g>
      </g>
    </g>
  </g>
  <g
     id="g95"
     transform="translate(0, -5.42)"
     style="enable-background:new 0 0 496 496">
    <g
       transform="matrix(0.875, 0, 0, 0.875, 0, 0)"
       id="g94">
      <g
         transform="matrix(1.1418, 0, 0, 1.1418, 0, 0)"
         id="g93">
        <g
           transform="matrix(0.0565, 0, 0, 0.0565, 0, 0)"
           id="g92">
          <g
             id="g91">
            <circle
               cx="248"
               cy="220.8"
               r="12"
               fill="#FFFFFF"
               fill-opacity="1"
               class="White"
               id="circle90" />
          </g>
        </g>
      </g>
    </g>
  </g>
  <g
     id="g100"
     transform="translate(0, -5.42)"
     style="enable-background:new 0 0 496 496">
    <g
       transform="matrix(0.875, 0, 0, 0.875, 0, 0)"
       id="g99">
      <g
         transform="matrix(1.1418, 0, 0, 1.1418, 0, 0)"
         id="g98">
        <g
           transform="matrix(0.0565, 0, 0, 0.0565, 0, 0)"
           id="g97">
          <g
             id="g96">
            <circle
               cx="322.4"
               cy="220.8"
               r="12"
               fill="#FFFFFF"
               fill-opacity="1"
               class="White"
               id="circle95" />
          </g>
        </g>
      </g>
    </g>
  </g>
  <g
     id="g105"
     transform="translate(0, -5.42)"
     style="enable-background:new 0 0 496 496">
    <g
       transform="matrix(0.875, 0, 0, 0.875, 0, 0)"
       id="g104">
      <g
         transform="matrix(1.1418, 0, 0, 1.1418, 0, 0)"
         id="g103">
        <g
           transform="matrix(0.0565, 0, 0, 0.0565, 0, 0)"
           id="g102">
          <g
             id="g101">
            <circle
               cx="211.2"
               cy="278.4"
               r="12"
               fill="#FFFFFF"
               fill-opacity="1"
               class="White"
               id="circle100" />
          </g>
        </g>
      </g>
    </g>
  </g>
  <g
     id="g110"
     transform="translate(0, -5.42)"
     style="enable-background:new 0 0 496 496">
    <g
       transform="matrix(0.875, 0, 0, 0.875, 0, 0)"
       id="g109">
      <g
         transform="matrix(1.1418, 0, 0, 1.1418, 0, 0)"
         id="g108">
        <g
           transform="matrix(0.0565, 0, 0, 0.0565, 0, 0)"
           id="g107">
          <g
             id="g106">
            <circle
               cx="284.8"
               cy="278.4"
               r="12"
               fill="#FFFFFF"
               fill-opacity="1"
               class="White"
               id="circle105" />
          </g>
        </g>
      </g>
    </g>
  </g>
</svg>
