<?xml version='1.0' encoding='UTF-8'?>
<svg viewBox="-2.0004 -2 32 32" xmlns="http://www.w3.org/2000/svg" >
  <g id="Layer_1" transform="translate(-0.0004, 0)" style="enable-background:new 0 0 383.4 383.4">
    <g transform="matrix(0.875, 0, 0, 0.875, 0, 0)">
      <g transform="matrix(1.1433, 0, 0, 1.1433, 0, 0)">
        <g transform="matrix(0.073, 0, 0, 0.073, 0, 0)">
          <g>
            <g id="XMLID_22_">
              <g>
                <rect x="65.185" y="258.1" width="61.33" height="26" rx="0" ry="0" fill="#FFB115" fill-opacity="1" class="Yellow" />
              </g>
            </g>
          </g>
        </g>
      </g>
    </g>
  </g>
  <g id="Layer_1" transform="translate(-0.0004, 0)" style="enable-background:new 0 0 383.4 383.4">
    <g transform="matrix(0.875, 0, 0, 0.875, 0, 0)">
      <g transform="matrix(1.1433, 0, 0, 1.1433, 0, 0)">
        <g transform="matrix(0.073, 0, 0, 0.073, 0, 0)">
          <g>
            <g id="XMLID_22_">
              <g>
                <rect x="256.885" y="258.1" width="61.33" height="26" rx="0" ry="0" fill="#D11C1C" fill-opacity="1" class="Red" />
              </g>
            </g>
          </g>
        </g>
      </g>
    </g>
  </g>
  <g id="Layer_1" transform="translate(-0.0004, 0)" style="enable-background:new 0 0 383.4 383.4">
    <g transform="matrix(0.875, 0, 0, 0.875, 0, 0)">
      <g transform="matrix(1.1433, 0, 0, 1.1433, 0, 0)">
        <g transform="matrix(0.073, 0, 0, 0.073, 0, 0)">
          <g>
            <g id="XMLID_22_">
              <g>
                <rect x="256.885" y="66.4" width="61.33" height="26" rx="0" ry="0" fill="#FFB115" fill-opacity="1" class="Yellow" />
              </g>
            </g>
          </g>
        </g>
      </g>
    </g>
  </g>
  <g id="Layer_1" transform="translate(-0.0004, 0)" style="enable-background:new 0 0 383.4 383.4">
    <g transform="matrix(0.875, 0, 0, 0.875, 0, 0)">
      <g transform="matrix(1.1433, 0, 0, 1.1433, 0, 0)">
        <g transform="matrix(0.073, 0, 0, 0.073, 0, 0)">
          <g>
            <g id="XMLID_22_">
              <g>
                <path d="M383.395, 191.7L383.395, 383.4L191.705, 383.4L191.705, 191.7L383.395, 191.7zM356.395, 356.4L356.395, 218.7L218.705, 218.7L218.705, 356.4L356.395, 356.4z" fill="#FFB115" fill-opacity="1" class="Yellow" />
              </g>
            </g>
          </g>
        </g>
      </g>
    </g>
  </g>
  <g id="Layer_1" transform="translate(-0.0004, 0)" style="enable-background:new 0 0 383.4 383.4">
    <g transform="matrix(0.875, 0, 0, 0.875, 0, 0)">
      <g transform="matrix(1.1433, 0, 0, 1.1433, 0, 0)">
        <g transform="matrix(0.073, 0, 0, 0.073, 0, 0)">
          <g>
            <g id="XMLID_22_">
              <g>
                <path d="M383.395, 0L383.395, 191.7L191.705, 191.7L191.705, 0L383.395, 0zM356.395, 164.7L356.395, 27L218.705, 27L218.705, 164.7L356.395, 164.7z" fill="#039C23" fill-opacity="1" class="Green" />
              </g>
            </g>
          </g>
        </g>
      </g>
    </g>
  </g>
  <g id="Layer_1" transform="translate(-0.0004, 0)" style="enable-background:new 0 0 383.4 383.4">
    <g transform="matrix(0.875, 0, 0, 0.875, 0, 0)">
      <g transform="matrix(1.1433, 0, 0, 1.1433, 0, 0)">
        <g transform="matrix(0.073, 0, 0, 0.073, 0, 0)">
          <g>
            <g id="XMLID_22_">
              <g>
                <path d="M356.395, 218.7L356.395, 356.4L218.705, 356.4L218.705, 218.7L356.395, 218.7zM318.215, 284.1L318.215, 258.1L256.885, 258.1L256.885, 284.1L318.215, 284.1z" fill="#FFB115" fill-opacity="1" class="Yellow" />
              </g>
            </g>
          </g>
        </g>
      </g>
    </g>
  </g>
  <g id="Layer_1" transform="translate(-0.0004, 0)" style="enable-background:new 0 0 383.4 383.4">
    <g transform="matrix(0.875, 0, 0, 0.875, 0, 0)">
      <g transform="matrix(1.1433, 0, 0, 1.1433, 0, 0)">
        <g transform="matrix(0.073, 0, 0, 0.073, 0, 0)">
          <g>
            <g id="XMLID_22_">
              <g>
                <path d="M356.395, 27L356.395, 164.7L218.705, 164.7L218.705, 27C218.705, 27 356.395, 27 356.395, 27zM318.215, 92.4L318.215, 66.4L256.885, 66.4L256.885, 92.4L318.215, 92.4z" fill="#039C23" fill-opacity="1" class="Green" />
              </g>
            </g>
          </g>
        </g>
      </g>
    </g>
  </g>
  <g id="Layer_1" transform="translate(-0.0004, 0)" style="enable-background:new 0 0 383.4 383.4">
    <g transform="matrix(0.875, 0, 0, 0.875, 0, 0)">
      <g transform="matrix(1.1433, 0, 0, 1.1433, 0, 0)">
        <g transform="matrix(0.073, 0, 0, 0.073, 0, 0)">
          <g>
            <g id="XMLID_22_">
              <g>
                <path d="M191.705, 191.7L191.705, 383.4L0.005, 383.4L0.005, 191.7L191.705, 191.7zM164.705, 356.4L164.705, 218.7L27.005, 218.7L27.005, 356.4L164.705, 356.4z" fill="#1177D7" fill-opacity="1" class="Blue" />
              </g>
            </g>
          </g>
        </g>
      </g>
    </g>
  </g>
  <g id="Layer_1" transform="translate(-0.0004, 0)" style="enable-background:new 0 0 383.4 383.4">
    <g transform="matrix(0.875, 0, 0, 0.875, 0, 0)">
      <g transform="matrix(1.1433, 0, 0, 1.1433, 0, 0)">
        <g transform="matrix(0.073, 0, 0, 0.073, 0, 0)">
          <g>
            <g id="XMLID_22_">
              <g>
                <path d="M191.705, 0L191.705, 191.7L0.005, 191.7L0.005, 0L191.705, 0zM164.705, 164.7L164.705, 27L27.005, 27L27.005, 164.7L164.705, 164.7z" fill="#D11C1C" fill-opacity="1" class="Red" />
              </g>
            </g>
          </g>
        </g>
      </g>
    </g>
  </g>
  <g id="Layer_1" transform="translate(-0.0004, 0)" style="enable-background:new 0 0 383.4 383.4">
    <g transform="matrix(0.875, 0, 0, 0.875, 0, 0)">
      <g transform="matrix(1.1433, 0, 0, 1.1433, 0, 0)">
        <g transform="matrix(0.073, 0, 0, 0.073, 0, 0)">
          <g>
            <g id="XMLID_22_">
              <g>
                <path d="M164.705, 218.7L164.705, 356.4L27.005, 356.4L27.005, 218.7L164.705, 218.7zM126.515, 284.1L126.515, 258.1L65.185, 258.1L65.185, 284.1L126.515, 284.1z" fill="#1177D7" fill-opacity="1" class="Blue" />
              </g>
            </g>
          </g>
        </g>
      </g>
    </g>
  </g>
  <g id="Layer_1" transform="translate(-0.0004, 0)" style="enable-background:new 0 0 383.4 383.4">
    <g transform="matrix(0.875, 0, 0, 0.875, 0, 0)">
      <g transform="matrix(1.1433, 0, 0, 1.1433, 0, 0)">
        <g transform="matrix(0.073, 0, 0, 0.073, 0, 0)">
          <g>
            <g id="XMLID_22_">
              <g>
                <path d="M164.705, 27L164.705, 164.7L27.005, 164.7L27.005, 27C27.005, 27 164.705, 27 164.705, 27zM126.515, 92.4L126.515, 66.4L65.185, 66.4L65.185, 92.4L126.515, 92.4z" fill="#D11C1C" fill-opacity="1" class="Red" />
              </g>
            </g>
          </g>
        </g>
      </g>
    </g>
  </g>
  <g id="Layer_1" transform="translate(-0.0004, 0)" style="enable-background:new 0 0 383.4 383.4">
    <g transform="matrix(0.875, 0, 0, 0.875, 0, 0)">
      <g transform="matrix(1.1433, 0, 0, 1.1433, 0, 0)">
        <g transform="matrix(0.073, 0, 0, 0.073, 0, 0)">
          <g>
            <g id="XMLID_22_">
              <g>
                <rect x="65.185" y="66.4" width="61.33" height="26" rx="0" ry="0" fill="#FFB115" fill-opacity="1" class="Yellow" />
              </g>
            </g>
          </g>
        </g>
      </g>
    </g>
  </g>
  <g id="Layer_1" transform="translate(-0.0004, 0)" style="enable-background:new 0 0 383.4 383.4">
    <g transform="matrix(0.875, 0, 0, 0.875, 0, 0)">
      <g transform="matrix(1.1433, 0, 0, 1.1433, 0, 0)">
        <g transform="matrix(0.073, 0, 0, 0.073, 0, 0)">
          <g>
            <rect x="65.186" y="302.599" width="61.333" height="15" rx="0" ry="0" fill="#727272" fill-opacity="1" class="Black" />
          </g>
        </g>
      </g>
    </g>
  </g>
  <g id="Layer_1" transform="translate(-0.0004, 0)" style="enable-background:new 0 0 383.4 383.4">
    <g transform="matrix(0.875, 0, 0, 0.875, 0, 0)">
      <g transform="matrix(1.1433, 0, 0, 1.1433, 0, 0)">
        <g transform="matrix(0.073, 0, 0, 0.073, 0, 0)">
          <g>
            <rect x="256.883" y="302.599" width="61.334" height="15" rx="0" ry="0" fill="#727272" fill-opacity="1" class="Black" />
          </g>
        </g>
      </g>
    </g>
  </g>
  <g id="Layer_1" transform="translate(-0.0004, 0)" style="enable-background:new 0 0 383.4 383.4">
    <g transform="matrix(0.875, 0, 0, 0.875, 0, 0)">
      <g transform="matrix(1.1433, 0, 0, 1.1433, 0, 0)">
        <g transform="matrix(0.073, 0, 0, 0.073, 0, 0)">
          <g>
            <rect x="65.186" y="110.902" width="61.333" height="15" rx="0" ry="0" fill="#727272" fill-opacity="1" class="Black" />
          </g>
        </g>
      </g>
    </g>
  </g>
  <g id="Layer_1" transform="translate(-0.0004, 0)" style="enable-background:new 0 0 383.4 383.4">
    <g transform="matrix(0.875, 0, 0, 0.875, 0, 0)">
      <g transform="matrix(1.1433, 0, 0, 1.1433, 0, 0)">
        <g transform="matrix(0.073, 0, 0, 0.073, 0, 0)">
          <g>
            <rect x="256.883" y="110.902" width="61.334" height="15" rx="0" ry="0" fill="#727272" fill-opacity="1" class="Black" />
          </g>
        </g>
      </g>
    </g>
  </g>
</svg>