<?xml version='1.0' encoding='UTF-8'?>
<svg viewBox="-2 -2 32 32" xmlns="http://www.w3.org/2000/svg" >
  <g id="Layer_1" transform="translate(-2, -2)">
    <g transform="matrix(2, 0, 0, 2, 0, 0)">
      <rect x="8" y="1" width="3" height="3" rx="0" ry="0" fill="#787878" />
    </g>
  </g>
  <g id="Layer_1" transform="translate(-2, -2)">
    <g transform="matrix(2, 0, 0, 2, 0, 0)">
      <g>
        <g>
          <path d="M13, 1L12, 1L12, 5L4, 5L4, 1L1, 1L1, 15L15, 15L15, 3L13, 1zM12, 13L4, 13L4, 8L12, 8L12, 13z" fill="#787878" />
        </g>
      </g>
    </g>
  </g>
  <g id="Layer_1" transform="translate(-2, -2)">
    <g transform="matrix(2, 0, 0, 2, 0, 0)">
      <g>
        <g>
          <path d="M13, 1L12, 1L12, 5L4, 5L4, 1L1, 1L1, 15L15, 15L15, 3L13, 1zM12, 13L4, 13L4, 8L12, 8L12, 13z" fill="#787878" />
        </g>
      </g>
    </g>
  </g>
  <g id="Layer_1" transform="translate(-2, -2)">
    <g transform="matrix(2, 0, 0, 2, 0, 0)">
      <rect x="5" y="9" width="6" height="1" rx="0" ry="0" fill="#787878" />
    </g>
  </g>
  <g id="Layer_1" transform="translate(-2, -2)">
    <g transform="matrix(2, 0, 0, 2, 0, 0)">
      <rect x="5" y="11" width="6" height="1" rx="0" ry="0" fill="#787878" />
    </g>
  </g>
</svg>