<?xml version="1.0" encoding="UTF-8" standalone="no"?>
<!-- Uploaded to: SVG Repo, www.svgrepo.com, Generator: SVG Repo Mixer Tools -->

<svg
   width="800px"
   height="800px"
   viewBox="0 0 24 24"
   fill="none"
   version="1.1"
   id="svg10"
   sodipodi:docname="serial-port-svgrepo-com.svg"
   inkscape:export-filename="serial-port-svgrepo-com.png"
   inkscape:export-xdpi="3.8399999"
   inkscape:export-ydpi="3.8399999"
   inkscape:version="1.4 (86a8ad7, 2024-10-11)"
   xmlns:inkscape="http://www.inkscape.org/namespaces/inkscape"
   xmlns:sodipodi="http://sodipodi.sourceforge.net/DTD/sodipodi-0.dtd"
   xmlns="http://www.w3.org/2000/svg"
   xmlns:svg="http://www.w3.org/2000/svg">
  <defs
     id="defs10" />
  <sodipodi:namedview
     id="namedview10"
     pagecolor="#ffffff"
     bordercolor="#000000"
     borderopacity="0.25"
     inkscape:showpageshadow="2"
     inkscape:pageopacity="0.0"
     inkscape:pagecheckerboard="0"
     inkscape:deskcolor="#d1d1d1"
     inkscape:zoom="0.97875"
     inkscape:cx="400"
     inkscape:cy="400"
     inkscape:window-width="1920"
     inkscape:window-height="1001"
     inkscape:window-x="-9"
     inkscape:window-y="-9"
     inkscape:window-maximized="1"
     inkscape:current-layer="svg10" />
  <path
     d="M6.99998 11.5C7.4142 11.5 7.74998 11.1642 7.74998 10.75C7.74998 10.3358 7.4142 10 6.99998 10C6.58577 10 6.24998 10.3358 6.24998 10.75C6.24998 11.1642 6.58577 11.5 6.99998 11.5Z"
     fill="#212121"
     id="path1" />
  <path
     d="M10.25 10.75C10.25 11.1642 9.9142 11.5 9.49998 11.5C9.08577 11.5 8.74998 11.1642 8.74998 10.75C8.74998 10.3358 9.08577 10 9.49998 10C9.9142 10 10.25 10.3358 10.25 10.75Z"
     fill="#212121"
     id="path2" />
  <path
     d="M8.24998 14C8.6642 14 8.99998 13.6642 8.99998 13.25C8.99998 12.8358 8.6642 12.5 8.24998 12.5C7.83577 12.5 7.49998 12.8358 7.49998 13.25C7.49998 13.6642 7.83577 14 8.24998 14Z"
     fill="#212121"
     id="path3" />
  <path
     d="M11.5 13.25C11.5 13.6642 11.1642 14 10.75 14C10.3358 14 9.99998 13.6642 9.99998 13.25C9.99998 12.8358 10.3358 12.5 10.75 12.5C11.1642 12.5 11.5 12.8358 11.5 13.25Z"
     fill="#212121"
     id="path4" />
  <path
     d="M13.25 14C13.6642 14 14 13.6642 14 13.25C14 12.8358 13.6642 12.5 13.25 12.5C12.8358 12.5 12.5 12.8358 12.5 13.25C12.5 13.6642 12.8358 14 13.25 14Z"
     fill="#212121"
     id="path5" />
  <path
     d="M16.5 13.25C16.5 13.6642 16.1642 14 15.75 14C15.3358 14 15 13.6642 15 13.25C15 12.8358 15.3358 12.5 15.75 12.5C16.1642 12.5 16.5 12.8358 16.5 13.25Z"
     fill="#212121"
     id="path6" />
  <path
     d="M12 11.5C12.4142 11.5 12.75 11.1642 12.75 10.75C12.75 10.3358 12.4142 10 12 10C11.5858 10 11.25 10.3358 11.25 10.75C11.25 11.1642 11.5858 11.5 12 11.5Z"
     fill="#212121"
     id="path7" />
  <path
     d="M15.25 10.75C15.25 11.1642 14.9142 11.5 14.5 11.5C14.0858 11.5 13.75 11.1642 13.75 10.75C13.75 10.3358 14.0858 10 14.5 10C14.9142 10 15.25 10.3358 15.25 10.75Z"
     fill="#212121"
     id="path8" />
  <path
     d="M17 11.5C17.4142 11.5 17.75 11.1642 17.75 10.75C17.75 10.3358 17.4142 10 17 10C16.5858 10 16.25 10.3358 16.25 10.75C16.25 11.1642 16.5858 11.5 17 11.5Z"
     fill="#212121"
     id="path9" />
  <path
     d="M4.90701 6.99933C3.13073 6.99933 1.82042 8.65816 2.23177 10.3862L3.30329 14.8875C3.5982 16.1263 4.70507 17.0007 5.97854 17.0007H18.0172C19.2901 17.0007 20.3966 16.1271 20.6921 14.889L21.7664 10.3877C22.1789 8.65932 20.8685 6.99933 19.0915 6.99933H4.90701ZM3.69099 10.0388C3.50402 9.25334 4.09961 8.49933 4.90701 8.49933H19.0915C19.8992 8.49933 20.4949 9.25387 20.3074 10.0395L19.2331 14.5408C19.0988 15.1036 18.5958 15.5007 18.0172 15.5007H5.97854C5.39969 15.5007 4.89657 15.1032 4.76252 14.5401L3.69099 10.0388Z"
     fill="#212121"
     id="path10" />
</svg>
