<?xml version="1.0" encoding="UTF-8" standalone="no"?>
<svg
   viewBox="-2.0025 -2.0025 32 32"
   version="1.1"
   id="svg2"
   sodipodi:docname="spray-gray.svg"
   inkscape:version="1.4 (86a8ad7, 2024-10-11)"
   xmlns:inkscape="http://www.inkscape.org/namespaces/inkscape"
   xmlns:sodipodi="http://sodipodi.sourceforge.net/DTD/sodipodi-0.dtd"
   xmlns="http://www.w3.org/2000/svg"
   xmlns:svg="http://www.w3.org/2000/svg">
  <defs
     id="defs2" />
  <sodipodi:namedview
     id="namedview2"
     pagecolor="#ffffff"
     bordercolor="#000000"
     borderopacity="0.25"
     inkscape:showpageshadow="2"
     inkscape:pageopacity="0.0"
     inkscape:pagecheckerboard="0"
     inkscape:deskcolor="#d1d1d1"
     inkscape:zoom="24.3125"
     inkscape:cx="15.979434"
     inkscape:cy="16"
     inkscape:window-width="1920"
     inkscape:window-height="996"
     inkscape:window-x="-9"
     inkscape:window-y="-9"
     inkscape:window-maximized="1"
     inkscape:current-layer="svg2" />
  <g
     transform="translate(-0.002, -0.0021)"
     id="g2"
     style="fill:#727272;fill-opacity:1">
    <g
       transform="matrix(0.0546867102384567, 0, 0, 0.0546867102384567, 0, 0)"
       id="g1"
       style="fill:#727272;fill-opacity:1">
      <path
         d="M128, 0L192, 0C209.7, 0 224, 14.3 224, 32L224, 128L96, 128L96, 32C96, 14.3 110.3, 0 128, 0zM0, 256C0, 203 43, 160 96, 160L224, 160C277, 160 320, 203 320, 256L320, 464C320, 490.5 298.5, 512 272, 512L48, 512C21.5, 512 0, 490.5 0, 464L0, 256zM240, 336A80 80 0 1 0 80, 336A80 80 0 1 0 240, 336zM256, 64A32 32 0 1 1 320, 64A32 32 0 1 1 256, 64zM384, 32A32 32 0 1 1 384, 96A32 32 0 1 1 384, 32zM448, 64A32 32 0 1 1 512, 64A32 32 0 1 1 448, 64zM480, 128A32 32 0 1 1 480, 192A32 32 0 1 1 480, 128zM448, 256A32 32 0 1 1 512, 256A32 32 0 1 1 448, 256zM384, 128A32 32 0 1 1 384, 192A32 32 0 1 1 384, 128z"
         id="path1"
         style="fill:#727272;fill-opacity:1" />
    </g>
  </g>
</svg>
