<?xml version='1.0' encoding='UTF-8'?>
<svg viewBox="-2 -2 32 32" xmlns="http://www.w3.org/2000/svg" >
  <g transform="translate(0, 0)">
    <g transform="matrix(0.875, 0, 0, 0.875, 0, 0)">
      <g transform="translate(0, 0)">
        <g transform="matrix(1.1429, 0, 0, 1.1429, 0, 0)">
          <g id="Layer_1" transform="translate(-1.8666, -1.8666)" style="enable-background:new 0 0 32 32">
            <g transform="matrix(0.9333, 0, 0, 0.9333, 0, 0)">
              <g id="MoreColors">
                <path d="M32, 15.2C31.5, 7.8 25, 2 17, 2C8.7, 2 2, 8.3 2, 16C2, 24.8 8.7, 32 17, 32C18.7, 32 20, 30.7 20, 29C20, 27.9 19.4, 27 18.6, 26.4C18.2, 26.2 18, 25.8 18, 25.3C18, 24.6 18.6, 24 19.3, 24L19.3, 24L24, 24C28.4, 24 32, 20.4 32, 16C32, 15.7 32, 15.4 32, 15.2zM8, 16C6.9, 16 6, 15.1 6, 14C6, 12.9 6.9, 12 8, 12C9.1, 12 10, 12.9 10, 14C10, 15.1 9.1, 16 8, 16zM15, 12C13.3, 12 12, 10.7 12, 9C12, 7.3 13.3, 6 15, 6C16.7, 6 18, 7.3 18, 9C18, 10.7 16.7, 12 15, 12zM24, 18C21.8, 18 20, 16.2 20, 14C20, 11.8 21.8, 10 24, 10C26.2, 10 28, 11.8 28, 14C28, 16.2 26.2, 18 24, 18z" fill="#727272" class="Black" />
              </g>
            </g>
          </g>
        </g>
      </g>
    </g>
  </g>
</svg>