<?xml version='1.0' encoding='UTF-8'?>
<svg viewBox="-2 -4.3075 32 32" xmlns="http://www.w3.org/2000/svg" >
  <g id="Layer_1" transform="translate(0, -2.3075)" style="enable-background:new 0 0 512 512">
    <g transform="matrix(0.8749, 0, 0, 0.8749, 0, 0)">
      <g transform="matrix(1.1426, 0, 0, 1.1426, 0, 0)">
        <g transform="matrix(0.0547, 0, 0, 0.0547, 0, 0)">
          <g>
            <path d="M468.364, 368L468.364, 391.273C468.364, 396.093 472.272, 400 477.091, 400C481.911, 400 485.818, 396.092 485.818, 391.273L485.818, 368L468.364, 368z" fill="#727272" fill-opacity="1" class="Black" />
          </g>
        </g>
      </g>
    </g>
  </g>
  <g id="Layer_1" transform="translate(0, -2.3075)" style="enable-background:new 0 0 512 512">
    <g transform="matrix(0.8749, 0, 0, 0.8749, 0, 0)">
      <g transform="matrix(1.1426, 0, 0, 1.1426, 0, 0)">
        <g transform="matrix(0.0547, 0, 0, 0.0547, 0, 0)">
          <g>
            <path d="M433.455, 391.273C433.455, 396.093 437.363, 400 442.182, 400C447.002, 400 450.909, 396.092 450.909, 391.273L450.909, 368L433.454, 368L433.454, 391.273z" fill="#727272" fill-opacity="1" class="Black" />
          </g>
        </g>
      </g>
    </g>
  </g>
  <g id="Layer_1" transform="translate(0, -2.3075)" style="enable-background:new 0 0 512 512">
    <g transform="matrix(0.8749, 0, 0, 0.8749, 0, 0)">
      <g transform="matrix(1.1426, 0, 0, 1.1426, 0, 0)">
        <g transform="matrix(0.0547, 0, 0, 0.0547, 0, 0)">
          <g>
            <path d="M398.545, 391.273C398.545, 396.093 402.453, 400 407.272, 400C412.092, 400 415.999, 396.092 415.999, 391.273L415.999, 368L398.544, 368L398.544, 391.273z" fill="#727272" fill-opacity="1" class="Black" />
          </g>
        </g>
      </g>
    </g>
  </g>
  <g id="Layer_1" transform="translate(0, -2.3075)" style="enable-background:new 0 0 512 512">
    <g transform="matrix(0.8749, 0, 0, 0.8749, 0, 0)">
      <g transform="matrix(1.1426, 0, 0, 1.1426, 0, 0)">
        <g transform="matrix(0.0547, 0, 0, 0.0547, 0, 0)">
          <g>
            <rect x="226.909" y="344.727" width="58.182" height="116.364" rx="0" ry="0" fill="#727272" fill-opacity="1" class="Black" />
          </g>
        </g>
      </g>
    </g>
  </g>
  <g id="Layer_1" transform="translate(0, -2.3075)" style="enable-background:new 0 0 512 512">
    <g transform="matrix(0.8749, 0, 0, 0.8749, 0, 0)">
      <g transform="matrix(1.1426, 0, 0, 1.1426, 0, 0)">
        <g transform="matrix(0.0547, 0, 0, 0.0547, 0, 0)">
          <path d="M512, 368C512, 374.4 506.764, 379.636 500.364, 379.636L11.636, 379.636C5.236, 379.636 0, 374.4 0, 368L0, 53.818C0, 47.418 5.236, 42.182 11.636, 42.182L500.363, 42.182C506.763, 42.182 511.999, 47.418 511.999, 53.818L511.999, 368z" fill="#727272" fill-opacity="1" class="Black" />
        </g>
      </g>
    </g>
  </g>
  <g id="Layer_1" transform="translate(0, -2.3075)" style="enable-background:new 0 0 512 512">
    <g transform="matrix(0.8749, 0, 0, 0.8749, 0, 0)">
      <g transform="matrix(1.1426, 0, 0, 1.1426, 0, 0)">
        <g transform="matrix(0.0547, 0, 0, 0.0547, 0, 0)">
          <rect x="34.909" y="77.091" width="442.182" height="267.636" rx="0" ry="0" fill="#FFFFFF" fill-opacity="1" class="White" />
        </g>
      </g>
    </g>
  </g>
  <g id="Layer_1" transform="translate(0, -2.3075)" style="enable-background:new 0 0 512 512">
    <g transform="matrix(0.8749, 0, 0, 0.8749, 0, 0)">
      <g transform="matrix(1.1426, 0, 0, 1.1426, 0, 0)">
        <g transform="matrix(0.0547, 0, 0, 0.0547, 0, 0)">
          <path d="M395.636, 469.818L116.364, 469.818C111.544, 469.818 107.637, 465.91 107.637, 461.091C107.637, 456.271 111.544, 452.364 116.364, 452.364L395.637, 452.364C400.457, 452.364 404.364, 456.272 404.364, 461.091C404.364, 465.911 400.456, 469.818 395.636, 469.818z" fill="#727272" fill-opacity="1" class="Black" />
        </g>
      </g>
    </g>
  </g>
  <g id="Layer_1" transform="translate(6, 1.6925)" style="enable-background:new 0 0 32 32">
    <g transform="matrix(0.5, 0, 0, 0.5, 0, 0)">
      <g id="Window">
        <path d="M30, 10L30, 5C30, 4.5 29.5, 4 29, 4L3, 4C2.5, 4 2, 4.5 2, 5L2, 10L30, 10z" fill="#727272" class="Black" />
      </g>
    </g>
  </g>
  <g id="Layer_1" transform="translate(6, 1.6925)" style="enable-background:new 0 0 32 32">
    <g transform="matrix(0.5, 0, 0, 0.5, 0, 0)">
      <g id="Window">
        <path d="M28, 10L28, 26L4, 26L4, 10L2, 10L2, 27C2, 27.5 2.5, 28 3, 28L29, 28C29.5, 28 30, 27.5 30, 27L30, 10L28, 10z" fill="#727272" class="Black" />
      </g>
    </g>
  </g>
</svg>