<?xml version='1.0' encoding='UTF-8'?>
<svg viewBox="-2.0025 -3.58 32 32" xmlns="http://www.w3.org/2000/svg" >
  <g transform="translate(-0.0024, -1.5694)">
    <g transform="matrix(0.0280036460608244, 0, 0, 0.0280036460608244, 0, 0)">
      <g>
        <path d="M154.5390625, 344C149.2060625, 349.333 145.5390625, 356.667 143.5390625, 366C141.5390625, 375.333 140.5390625, 383.667 140.5390625, 391C140.5390625, 398.333 139.8720625, 402 138.5390625, 402C137.2060625, 403.333 131.5390625, 408.333 121.5390625, 417C111.5390625, 425.667 105.2060625, 431.333 102.5390625, 434C91.8720625, 443.333 82.5390625, 442 74.5390625, 430C74.5390625, 430 4.5390625, 354 4.5390625, 354C-2.1279375, 346 -1.4609375, 338 6.5390625, 330C7.8720625, 328.667 13.8720625, 324 24.5390625, 316C35.2060625, 308 41.8720625, 302.667 44.5390625, 300C48.5390625, 296 57.5390625, 294 71.5390625, 294C85.5390625, 294 97.8720625, 289.333 108.5390625, 280C117.8720625, 270.667 123.8720625, 258 126.5390625, 242C129.2060625, 226 132.5390625, 216 136.5390625, 212C137.8720625, 212 140.8720625, 209.667 145.5390625, 205C150.2060625, 200.333 158.8720625, 193 171.5390625, 183C184.2060625, 173 197.8720625, 162.667 212.5390625, 152C301.8720625, 92 363.8720625, 60 398.5390625, 56C479.8720625, 56 529.2060625, 56.667 546.5390625, 58C554.5390625, 58 551.8720625, 60.667 538.5390625, 66C458.5390625, 100.667 407.8720625, 126 386.5390625, 142C333.2060625, 179.333 321.2060625, 217.333 350.5390625, 256C373.2060625, 286.667 385.8720625, 302.667 388.5390625, 304C393.8720625, 309.333 393.2060625, 314 386.5390625, 318C385.2060625, 319.333 372.5390625, 331 348.5390625, 353C324.5390625, 375 311.8720625, 386.667 310.5390625, 388C301.2060625, 393.333 295.2060625, 394.667 292.5390625, 392C264.5390625, 360 240.8720625, 340 221.5390625, 332C202.2060625, 324 179.8720625, 328 154.5390625, 344C154.5390625, 344 154.5390625, 344 154.5390625, 344M440.5390625, 370C440.5390625, 370 850.5390625, 846 850.5390625, 846C862.5390625, 860.667 861.8720625, 873.333 848.5390625, 884C848.5390625, 884 800.5390625, 926 800.5390625, 926C785.8720625, 935.333 773.2060625, 934 762.5390625, 922C762.5390625, 922 348.5390625, 450 348.5390625, 450C343.2060625, 444.667 343.2060625, 438 348.5390625, 430C348.5390625, 430 420.5390625, 368 420.5390625, 368C428.5390625, 362.667 435.2060625, 363.333 440.5390625, 370C440.5390625, 370 440.5390625, 370 440.5390625, 370M994.5390625, 168C1005.2060625, 237.333 999.8720625, 292.667 978.5390625, 334C945.2060625, 392.667 893.8720625, 413.333 824.5390625, 396C787.2060625, 388 753.8720625, 398.667 724.5390625, 428C724.5390625, 428 642.5390625, 506 642.5390625, 506C642.5390625, 506 574.5390625, 428 574.5390625, 428C574.5390625, 428 642.5390625, 358 642.5390625, 358C658.5390625, 342 668.8720625, 324.333 673.5390625, 305C678.2060625, 285.667 680.2060625, 264 679.5390625, 240C678.8720625, 216 680.5390625, 196.667 684.5390625, 182C692.5390625, 144.667 739.2060625, 107.333 824.5390625, 70C832.5390625, 66 838.5390625, 67 842.5390625, 73C846.5390625, 79 847.2060625, 84 844.5390625, 88C836.5390625, 96 821.2060625, 122.667 798.5390625, 168C789.2060625, 174.667 785.2060625, 186.333 786.5390625, 203C787.8720625, 219.667 801.2060625, 237.333 826.5390625, 256C865.2060625, 282.667 897.2060625, 275.333 922.5390625, 234C926.5390625, 226 935.2060625, 212.333 948.5390625, 193C961.8720625, 173.667 969.2060625, 162.667 970.5390625, 160C973.2060625, 153.333 977.5390625, 150.333 983.5390625, 151C989.5390625, 151.667 993.2060625, 157.333 994.5390625, 168C994.5390625, 168 994.5390625, 168 994.5390625, 168M136.5390625, 852C136.5390625, 852 390.5390625, 604 390.5390625, 604C390.5390625, 604 466.5390625, 690 466.5390625, 690C466.5390625, 690 220.5390625, 932 220.5390625, 932C207.2060625, 945.333 194.5390625, 946.667 182.5390625, 936C182.5390625, 936 136.5390625, 890 136.5390625, 890C121.8720625, 878 121.8720625, 865.333 136.5390625, 852C136.5390625, 852 136.5390625, 852 136.5390625, 852" />
      </g>
    </g>
  </g>
</svg>