<?xml version='1.0' encoding='UTF-8'?>
<svg viewBox="-5.8652 -2 32 32" xmlns="http://www.w3.org/2000/svg" >
  <g id="Capa_1" transform="translate(-3.86087440872192, 0.00867891578823328)" style="enable-background:new 0 0 58 58">
    <g transform="matrix(0.874754309654236, 0, 0, 0.874754309654236, 0, 0)">
      <g transform="matrix(1.1432, 0, 0, 1.1432, 0, 0)">
        <g transform="matrix(0.4826, 0, 0, 0.4826, 0, 0)">
          <path d="M40, 28C38.896, 28 38, 27.104 38, 26L38, 13.601C38, 8.858 33.738, 5 28.5, 5C23.262, 5 19, 8.858 19, 13.601L19, 16.821C19, 17.925 18.104, 18.821 17, 18.821C15.896, 18.821 15, 17.925 15, 16.821L15, 13.601C15, 6.652 21.056, 1 28.5, 1C35.944, 1 42, 6.652 42, 13.601L42, 26C42, 27.104 41.104, 28 40, 28z" fill="#039C23" fill-opacity="1" class="Green" stroke="#4DAE89" stroke-width="2px" stroke-miterlimit="10" stroke-opacity="1" />
        </g>
      </g>
    </g>
  </g>
  <g id="Capa_1" transform="translate(-3.86087425079346, 0.00867850036621043)" style="enable-background:new 0 0 58 58">
    <g transform="matrix(0.874754309654236, 0, 0, 0.874754309654236, 0, 0)">
      <g transform="matrix(1.1432, 0, 0, 1.1432, 0, 0)">
        <g transform="matrix(0.4826, 0, 0, 0.4826, 0, 0)">
          <rect x="8" y="26" width="42" height="32" fill="#1177D7" fill-opacity="1" class="Blue" />
        </g>
      </g>
    </g>
  </g>
  <g id="Capa_1" transform="translate(-3.86087429351807, 0.00867850036621043)" style="enable-background:new 0 0 58 58">
    <g transform="matrix(0.874754309654236, 0, 0, 0.874754309654236, 0, 0)">
      <g transform="matrix(1.1432, 0, 0, 1.1432, 0, 0)">
        <g transform="matrix(0.4826, 0, 0, 0.4826, 0, 0)">
          <rect x="29" y="26" width="21" height="32" fill="#1177D7" fill-opacity="1" class="Blue" />
        </g>
      </g>
    </g>
  </g>
  <g id="Capa_1" transform="translate(-3.86087486114502, 0.0086784576416008)" style="enable-background:new 0 0 58 58">
    <g transform="matrix(0.874754309654236, 0, 0, 0.874754309654236, 0, 0)">
      <g transform="matrix(1.1432, 0, 0, 1.1432, 0, 0)">
        <g transform="matrix(0.4826, 0, 0, 0.4826, 0, 0)">
          <polygon points="42.586,57 49,50.586 49,47 43.414,47 33.414,57 " fill="#FFB115" fill-opacity="1" class="Yellow" />
        </g>
      </g>
    </g>
  </g>
  <g id="Capa_1" transform="translate(-3.86087403869629, 0.0086784576416008)" style="enable-background:new 0 0 58 58">
    <g transform="matrix(0.874754309654236, 0, 0, 0.874754309654236, 0, 0)">
      <g transform="matrix(1.1432, 0, 0, 1.1432, 0, 0)">
        <g transform="matrix(0.4826, 0, 0, 0.4826, 0, 0)">
          <polygon points="9,47 9,54.586 16.586,47 " fill="#1177D7" fill-opacity="1" class="Blue" />
        </g>
      </g>
    </g>
  </g>
  <g id="Capa_1" transform="translate(-3.86087372741699, 0.0086784576416008)" style="enable-background:new 0 0 58 58">
    <g transform="matrix(0.874754309654236, 0, 0, 0.874754309654236, 0, 0)">
      <g transform="matrix(1.1432, 0, 0, 1.1432, 0, 0)">
        <g transform="matrix(0.4826, 0, 0, 0.4826, 0, 0)">
          <polygon points="30.586,57 40.586,47 31.414,47 21.414,57 " fill="#1177D7" fill-opacity="1" class="Blue" />
        </g>
      </g>
    </g>
  </g>
  <g id="Capa_1" transform="translate(-3.86087486572266, 0.00867817993163911)" style="enable-background:new 0 0 58 58">
    <g transform="matrix(0.874754309654236, 0, 0, 0.874754309654236, 0, 0)">
      <g transform="matrix(1.1432, 0, 0, 1.1432, 0, 0)">
        <g transform="matrix(0.4826, 0, 0, 0.4826, 0, 0)">
          <path d="M28.586, 47L19.414, 47L9.707, 56.707C9.512, 56.902 9.256, 57 9, 57L18.586, 57L28.586, 47z" fill="#FFB115" fill-opacity="1" class="Yellow" />
        </g>
      </g>
    </g>
  </g>
  <g id="Capa_1" transform="translate(-3.86087408752442, 0.00867749633789217)" style="enable-background:new 0 0 58 58">
    <g transform="matrix(0.874754309654236, 0, 0, 0.874754309654236, 0, 0)">
      <g transform="matrix(1.1432, 0, 0, 1.1432, 0, 0)">
        <g transform="matrix(0.4826, 0, 0, 0.4826, 0, 0)">
          <polygon points="49,57 49,53.414 45.414,57 " fill="#1177D7" fill-opacity="1" class="Blue" />
        </g>
      </g>
    </g>
  </g>
  <g id="Capa_1" transform="translate(-3.86087372741699, 0.00867855529785189)" style="enable-background:new 0 0 58 58">
    <g transform="matrix(0.874754309654236, 0, 0, 0.874754309654236, 0, 0)">
      <g transform="matrix(1.1432, 0, 0, 1.1432, 0, 0)">
        <g transform="matrix(0.4826, 0, 0, 0.4826, 0, 0)">
          <polygon points="29,49.414 21.414,57 29,57 " fill="#1177D7" fill-opacity="1" class="Blue" />
        </g>
      </g>
    </g>
  </g>
</svg>