<?xml version='1.0' encoding='UTF-8'?>
<svg viewBox="-2 -2 32 32" xmlns="http://www.w3.org/2000/svg" >
  <g id="Capa_1" transform="translate(0, 0)" style="enable-background:new 0 0 54 54">
    <g transform="matrix(0.875, 0, 0, 0.875, 0, 0)">
      <g transform="matrix(1.1429, 0, 0, 1.1429, 0, 0)">
        <g transform="matrix(0.5185, 0, 0, 0.5185, 0, 0)">
          <g>
            <g>
              <path d="M53, 4.783L53, 49.218C53, 51.306 51.306, 53 49.217, 53L4.783, 53C2.694, 53 1, 51.306 1, 49.217L1, 4.783C1, 2.694 2.694, 1 4.783, 1L49.218, 1C51.306, 1 53, 2.694 53, 4.783z" fill="#1177D7" fill-opacity="1" class="Blue" />
            </g>
          </g>
        </g>
      </g>
    </g>
  </g>
  <g id="Capa_1" transform="translate(0, 0)" style="enable-background:new 0 0 54 54">
    <g transform="matrix(0.875, 0, 0, 0.875, 0, 0)">
      <g transform="matrix(1.1429, 0, 0, 1.1429, 0, 0)">
        <g transform="matrix(0.5185, 0, 0, 0.5185, 0, 0)">
          <g>
            <g>
              <path d="M49.217, 54L4.783, 54C2.146, 54 0, 51.854 0, 49.217L0, 4.782C0, 2.146 2.146, 0 4.783, 0L49.218, 0C51.854, 0 54, 2.146 54, 4.783L54, 49.218C54, 51.854 51.854, 54 49.217, 54zM4.783, 2C3.249, 2 2, 3.248 2, 4.782L2, 49.217C2, 50.751 3.249, 52 4.783, 52L49.218, 52C50.751, 52 52, 50.752 52, 49.218L52, 4.783C52, 3.249 50.751, 2 49.217, 2L4.783, 2z" fill="#1177D7" fill-opacity="1" class="Blue" />
            </g>
          </g>
        </g>
      </g>
    </g>
  </g>
  <g id="Capa_1" transform="translate(0, 0)" style="enable-background:new 0 0 54 54">
    <g transform="matrix(0.875, 0, 0, 0.875, 0, 0)">
      <g transform="matrix(1.1429, 0, 0, 1.1429, 0, 0)">
        <g transform="matrix(0.5185, 0, 0, 0.5185, 0, 0)">
          <g>
            <g>
              <path d="M27.841, 14.456L40.016, 35.543C40.389, 36.191 39.922, 37 39.175, 37L14.825, 37C14.078, 37 13.61, 36.191 13.984, 35.544L26.159, 14.457C26.533, 13.809 27.467, 13.809 27.841, 14.456z" fill="#FFFFFF" fill-opacity="1" class="White" />
            </g>
          </g>
        </g>
      </g>
    </g>
  </g>
  <g id="Capa_1" transform="translate(0, 0)" style="enable-background:new 0 0 54 54">
    <g transform="matrix(0.875, 0, 0, 0.875, 0, 0)">
      <g transform="matrix(1.1429, 0, 0, 1.1429, 0, 0)">
        <g transform="matrix(0.5185, 0, 0, 0.5185, 0, 0)">
          <g>
            <g>
              <path d="M39.175, 38L14.825, 38C14.113, 38 13.474, 37.632 13.118, 37.015C12.762, 36.398 12.762, 35.661 13.118, 35.044L25.292, 13.956C25.648, 13.339 26.287, 12.971 26.999, 12.971C27.711, 12.971 28.35, 13.339 28.706, 13.956L40.881, 35.044C41.237, 35.66 41.237, 36.398 40.881, 37.015C40.525, 37.632 39.887, 38 39.175, 38zM39.175, 36L39.175, 37L39.176, 36L26.975, 14.956L14.851, 36.044L39.175, 36z" fill="#FFFFFF" fill-opacity="1" class="White" />
            </g>
          </g>
        </g>
      </g>
    </g>
  </g>
</svg>