<?xml version='1.0' encoding='UTF-8'?>
<svg viewBox="-2 -2.0025 32 32" xmlns="http://www.w3.org/2000/svg" >
  <g transform="translate(0, -0.0032)">
    <g transform="matrix(0.0546874962747097, 0, 0, 0.0546874962747097, 0, 0)">
      <path d="M288, 109.3L288, 352C288, 369.7 273.7, 384 256, 384C238.3, 384 224, 369.7 224, 352L224, 109.3L150.6, 182.7C138.1, 195.2 117.8, 195.2 105.3, 182.7C92.8, 170.2 92.8, 149.9 105.3, 137.4L233.3, 9.4C245.8, -3.1 266.1, -3.1 278.6, 9.4L406.6, 137.4C419.1, 149.9 419.1, 170.2 406.6, 182.7C394.1, 195.2 373.8, 195.2 361.3, 182.7L288, 109.3zM64, 352L192, 352C192, 387.3 220.7, 416 256, 416C291.3, 416 320, 387.3 320, 352L448, 352C483.3, 352 512, 380.7 512, 416L512, 448C512, 483.3 483.3, 512 448, 512L64, 512C28.7, 512 0, 483.3 0, 448L0, 416C0, 380.7 28.7, 352 64, 352zM432, 456A24 24 0 1 0 432, 408A24 24 0 1 0 432, 456z" />
    </g>
  </g>
</svg>