<?xml version='1.0' encoding='UTF-8'?>
<svg viewBox="-2 -8.16 32 32" xmlns="http://www.w3.org/2000/svg" >
  <g transform="translate(0, -6.16)">
    <g transform="matrix(0.0280000045895576, 0, 0, 0.0280000045895576, 0, 0)">
      <g>
        <path d="M500, 220C561.333, 220 620.333, 228.333 677, 245C733.667, 261.667 780.667, 282.333 818, 307C855.333, 331.667 888.333, 357.333 917, 384C945.667, 410.667 966.667, 434.333 980, 455C993.333, 475.667 1000, 490.667 1000, 500C1000, 509.333 993.333, 524 980, 544C966.667, 564 945.667, 587.667 917, 615C888.333, 642.333 855.333, 668.333 818, 693C780.667, 717.667 733.667, 738.333 677, 755C620.333, 771.667 561.333, 780 500, 780C438.667, 780 379.667, 771.667 323, 755C266.333, 738.333 219.333, 717.667 182, 693C144.667, 668.333 111.667, 642.333 83, 615C54.333, 587.667 33.333, 564 20, 544C6.667, 524 0, 509.333 0, 500C0, 490.667 6.667, 475.667 20, 455C33.333, 434.333 54.333, 410.667 83, 384C111.667, 357.333 144.667, 331.667 182, 307C219.333, 282.333 266.333, 261.667 323, 245C379.667, 228.333 438.667, 220 500, 220C500, 220 500, 220 500, 220M500, 714C561.333, 714 613.667, 693 657, 651C700.333, 609 722, 558.667 722, 500C722, 440 700.333, 389 657, 347C613.667, 305 561.333, 284 500, 284C438.667, 284 386.333, 305 343, 347C299.667, 389 278, 440 278, 500C278, 558.667 299.667, 609 343, 651C386.333, 693 438.667, 714 500, 714C500, 714 500, 714 500, 714M500, 500C505.333, 505.333 517.667, 506 537, 502C556.333, 498 573, 494.333 587, 491C601, 487.667 609.333, 490.667 612, 500C612, 529.333 601, 554.333 579, 575C557, 595.667 530.667, 606 500, 606C469.333, 606 443.333, 595.667 422, 575C400.667, 554.333 390, 529.333 390, 500C390, 469.333 400.667, 443.667 422, 423C443.333, 402.333 469.333, 392 500, 392C509.333, 392 512.667, 399.667 510, 415C507.333, 430.333 503.333, 446 498, 462C492.667, 478 493.333, 490.667 500, 500C500, 500 500, 500 500, 500" />
      </g>
    </g>
  </g>
</svg>