<?xml version='1.0' encoding='UTF-8'?>
<svg viewBox="-2.0175 -2 32 32" xmlns="http://www.w3.org/2000/svg" >
  <g id="Capa_1" transform="translate(-0.0176003814697268, -5.14984130894902E-07)" style="enable-background:new 0 0 297 297">
    <g transform="matrix(0.0942760929465294, 0, 0, 0.0942760929465294, 0, 0)">
      <g>
        <path d="M150.079, 100.075C150.077, 100.075 150.075, 100.075 150.073, 100.075L120.034, 100.093L120.048, 70.048C120.051, 64.549 115.594, 60.087 110.095, 60.085C110.093, 60.085 110.092, 60.085 110.09, 60.085C104.592, 60.085 100.136, 64.539 100.133, 70.038L100.118, 100.103L70.051, 100.121C64.552, 100.124 60.095, 104.584 60.098, 110.084C60.101, 115.584 64.559, 120.037 70.057, 120.037C70.059, 120.037 70.061, 120.037 70.063, 120.037L100.109, 120.019L100.094, 150.069C100.091, 155.568 104.548, 160.028 110.047, 160.031C110.049, 160.031 110.05, 160.031 110.052, 160.031C115.55, 160.031 120.007, 155.577 120.01, 150.079L120.025, 120.009L150.086, 119.991C155.585, 119.988 160.04, 115.527 160.037, 110.027C160.034, 104.529 155.576, 100.075 150.079, 100.075z" fill="#727272" class="Black" />
      </g>
    </g>
  </g>
  <g id="Capa_1" transform="translate(-0.0176, 0)" style="enable-background:new 0 0 297 297">
    <g transform="matrix(0.0942760929465294, 0, 0, 0.0942760929465294, 0, 0)">
      <g>
        <path d="M288.969, 246.75L206.053, 163.745C229.421, 121.855 223.342, 67.803 187.811, 32.237C167.048, 11.449 139.438, 0 110.069, 0C80.701, 0 53.091, 11.449 32.323, 32.237C-10.54, 75.148 -10.54, 144.966 32.323, 187.868C53.09, 208.661 80.701, 220.111 110.069, 220.111C129.164, 220.111 147.51, 215.266 163.719, 206.167L246.598, 289.138C251.662, 294.209 258.412, 297 265.607, 297C272.8, 297 279.552, 294.209 284.617, 289.138L288.971, 284.778C299.443, 274.293 299.442, 257.232 288.969, 246.75zM46.412, 173.794C11.304, 138.651 11.305, 81.462 46.412, 46.311C63.418, 29.291 86.024, 19.916 110.069, 19.916C134.114, 19.916 156.719, 29.291 173.722, 46.311C208.834, 81.46 208.834, 138.649 173.72, 173.795C156.719, 190.819 134.114, 200.195 110.069, 200.195C86.024, 200.195 63.418, 190.819 46.412, 173.794zM274.879, 270.704L270.524, 275.064C269.225, 276.366 267.478, 277.084 265.607, 277.084C263.737, 277.084 261.991, 276.365 260.689, 275.064L180.378, 194.664C182.94, 192.522 185.424, 190.261 187.81, 187.87C190.203, 185.476 192.453, 182.992 194.578, 180.441L274.879, 260.825C277.553, 263.502 277.553, 268.025 274.879, 270.704z" fill="#727272" class="Black" />
      </g>
    </g>
  </g>
</svg>