<?xml version="1.0" encoding="UTF-8" standalone="no"?>
<svg
   viewBox="-4 -4 32 32"
   version="1.1"
   id="svg2"
   sodipodi:docname="zoom_reset.svg"
   inkscape:version="1.4 (e7c3feb100, 2024-10-09)"
   xmlns:inkscape="http://www.inkscape.org/namespaces/inkscape"
   xmlns:sodipodi="http://sodipodi.sourceforge.net/DTD/sodipodi-0.dtd"
   xmlns="http://www.w3.org/2000/svg"
   xmlns:svg="http://www.w3.org/2000/svg">
  <defs
     id="defs2" />
  <sodipodi:namedview
     id="namedview2"
     pagecolor="#ffffff"
     bordercolor="#000000"
     borderopacity="0.25"
     inkscape:showpageshadow="2"
     inkscape:pageopacity="0.0"
     inkscape:pagecheckerboard="0"
     inkscape:deskcolor="#d1d1d1"
     inkscape:zoom="17.832349"
     inkscape:cx="6.9816937"
     inkscape:cy="17.972955"
     inkscape:window-width="1920"
     inkscape:window-height="969"
     inkscape:window-x="0"
     inkscape:window-y="0"
     inkscape:window-maximized="1"
     inkscape:current-layer="svg2" />
  <g
     id="Layer_1"
     transform="translate(-4, -4)"
     style="enable-background:new 0 0 32 32">
    <g
       id="Zoom">
      <path
         d="M27.7, 25.3L20.5, 18C21.5, 16.6 22, 14.8 22, 13C22, 8 18, 4 13, 4C8, 4 4, 8 4, 13C4, 18 8, 22 13, 22C14.9, 22 16.6, 21.4 18, 20.5L25.3, 27.8C25.6, 28.1 26.2, 28.1 26.5, 27.8L27.7, 26.6C28.1, 26.2 28.1, 25.6 27.7, 25.3zM6, 13C6, 9.1 9.1, 6 13, 6C16.9, 6 20, 9.1 20, 13C20, 16.9 16.9, 20 13, 20C9.1, 20 6, 16.9 6, 13z"
         fill="#727272"
         class="Black"
         id="path1" />
    </g>
  </g>
  <text
     xml:space="preserve"
     style="font-style:normal;font-variant:normal;font-weight:normal;font-stretch:normal;font-size:6.46567px;font-family:'Liberation Sans Narrow';-inkscape-font-specification:'Liberation Sans Narrow';text-align:start;letter-spacing:0.89px;writing-mode:lr-tb;direction:ltr;text-anchor:start;display:none;fill:#727272;stroke:#727272;stroke-width:1.21231"
     x="3.3768804"
     y="11.458093"
     id="text2"
     transform="scale(1.0278292,0.9729243)"
     sodipodi:insensitive="true"><tspan
       sodipodi:role="line"
       id="tspan2"
       x="0"
       y="0"
       style="font-style:normal;font-variant:normal;font-weight:normal;font-stretch:normal;font-size:6.46567px;font-family:'Liberation Sans Narrow';-inkscape-font-specification:'Liberation Sans Narrow';letter-spacing:0.89px;stroke-width:1.21231">100</tspan></text>
  <path
     d="M 3.7809848,11.458093 V 10.975062 H 4.709162 V 7.5528027 L 3.888325,8.2694566 V 7.7327554 l 0.8618789,-0.722968 h 0.4293609 v 3.9652746 h 0.8871354 v 0.483031 z M 9.9559126,9.2323615 q 0,0.6408843 -0.1010261,1.0797165 -0.097869,0.435675 -0.2715076,0.707183 -0.1704816,0.26835 -0.4041044,0.385162 -0.2304658,0.116811 -0.4956593,0.116811 -0.2651935,0 -0.4956593,-0.116811 Q 7.9574901,11.287611 7.7870086,11.019261 7.6165271,10.75091 7.518658,10.315235 7.4239461,9.8764029 7.4239461,9.2323615 q 0,-0.6724549 0.094712,-1.111287 Q 7.6165271,7.6790853 7.7870086,7.4170489 7.9574901,7.1550124 8.191113,7.0508293 8.4247358,6.943489 8.6994005,6.943489 q 0.2620365,0 0.4893452,0.1073403 0.2304658,0.1041831 0.4009473,0.3662196 0.1704815,0.2620364 0.2683506,0.7040256 0.097869,0.4388321 0.097869,1.111287 z m -0.4735598,0 q 0,-0.530387 -0.050513,-0.8808212 Q 9.3813267,7.9979489 9.2803006,7.7895826 9.1792745,7.5780592 9.0308924,7.4928184 8.8856674,7.4044206 8.6994005,7.4044206 q -0.195738,0 -0.3472772,0.088398 Q 8.2005842,7.5812163 8.0995581,7.7927397 7.998532,8.001106 7.9448619,8.3546973 q -0.050513,0.3504343 -0.050513,0.8776642 0,0.5114446 0.050513,0.8618785 0.05367,0.350435 0.1546962,0.565115 0.1041831,0.211524 0.2525652,0.306235 0.1483821,0.09155 0.337806,0.09155 0.1831098,0 0.3283348,-0.09155 0.1483821,-0.09471 0.2494082,-0.306235 0.1041832,-0.21468 0.1578533,-0.565115 0.056827,-0.3504339 0.056827,-0.8618785 z m 4.3122592,0 q 0,0.6408843 -0.101026,1.0797165 -0.09787,0.435675 -0.271508,0.707183 -0.170481,0.26835 -0.404104,0.385162 -0.230466,0.116811 -0.495659,0.116811 -0.265194,0 -0.49566,-0.116811 -0.230466,-0.116812 -0.400947,-0.385162 -0.170482,-0.268351 -0.268351,-0.704026 -0.09471,-0.4388321 -0.09471,-1.0828735 0,-0.6724549 0.09471,-1.111287 0.09787,-0.4419892 0.268351,-0.7040256 0.170481,-0.2620365 0.404104,-0.3662196 0.233623,-0.1073403 0.508288,-0.1073403 0.262036,0 0.489345,0.1073403 0.230466,0.1041831 0.400947,0.3662196 0.170482,0.2620364 0.268351,0.7040256 0.09787,0.4388321 0.09787,1.111287 z m -0.47356,0 q 0,-0.530387 -0.05051,-0.8808212 Q 13.220026,7.9979489 13.119,7.7895826 13.017974,7.5780592 12.869592,7.4928184 12.724367,7.4044206 12.5381,7.4044206 q -0.195738,0 -0.347277,0.088398 -0.151539,0.088398 -0.252566,0.2999213 -0.101026,0.2083663 -0.154696,0.5619576 -0.05051,0.3504343 -0.05051,0.8776642 0,0.5114446 0.05051,0.8618785 0.05367,0.350435 0.154696,0.565115 0.104184,0.211524 0.252566,0.306235 0.148382,0.09155 0.337806,0.09155 0.183109,0 0.328334,-0.09155 0.148383,-0.09471 0.249409,-0.306235 0.104183,-0.21468 0.157853,-0.565115 0.05683,-0.3504339 0.05683,-0.8618785 z"
     id="text5"
     style="font-size:6.46567px;font-family:'Liberation Sans Narrow';-inkscape-font-specification:'Liberation Sans Narrow';letter-spacing:0.89px;fill:#727272;stroke:#727272;stroke-width:0.499;stroke-linejoin:round;stroke-dasharray:none"
     transform="scale(1.0278292,0.9729243)"
     aria-label="100" />
</svg>
